<?xml version="1.0" encoding="UTF-8"?>
<svg xmlns="http://www.w3.org/2000/svg" xmlns:xlink="http://www.w3.org/1999/xlink" width="58pt" height="52pt" viewBox="0 0 58 52" version="1.1">
<g id="surface1">
<path style=" stroke:none;fill-rule:nonzero;fill:rgb(24.705882%,23.921569%,33.72549%);fill-opacity:1;" d="M 29.054688 51.886719 C 29.039062 51.863281 28.707031 51.296875 28.589844 50.121094 C 28.484375 49.042969 28.550781 47.21875 29.480469 44.679688 C 31.238281 39.871094 29.074219 35.988281 29.054688 35.949219 L 29.160156 35.886719 C 29.167969 35.898438 29.722656 36.886719 30.054688 38.464844 C 30.488281 40.550781 30.332031 42.722656 29.597656 44.726562 C 27.84375 49.527344 29.144531 51.800781 29.160156 51.824219 Z M 29.054688 51.886719 "/>
<path style=" stroke:none;fill-rule:nonzero;fill:rgb(20.784314%,20%,48.235294%);fill-opacity:1;" d="M 29.167969 34.851562 C 29.167969 35.304688 28.808594 35.667969 28.367188 35.667969 C 27.925781 35.667969 27.566406 35.304688 27.566406 34.851562 C 27.566406 34.402344 27.925781 34.039062 28.367188 34.039062 C 28.808594 34.039062 29.167969 34.402344 29.167969 34.851562 Z M 29.167969 34.851562 "/>
<path style=" stroke:none;fill-rule:nonzero;fill:rgb(24.705882%,23.921569%,33.72549%);fill-opacity:1;" d="M 31.695312 37.863281 C 31.695312 38.316406 31.339844 38.679688 30.894531 38.679688 C 30.453125 38.679688 30.09375 38.316406 30.09375 37.863281 C 30.09375 37.414062 30.453125 37.046875 30.894531 37.046875 C 31.339844 37.046875 31.695312 37.414062 31.695312 37.863281 Z M 31.695312 37.863281 "/>
<path style=" stroke:none;fill-rule:nonzero;fill:rgb(20.784314%,20%,48.235294%);fill-opacity:1;" d="M 29.96875 39.871094 C 29.96875 40.324219 29.609375 40.6875 29.167969 40.6875 C 28.726562 40.6875 28.367188 40.324219 28.367188 39.871094 C 28.367188 39.421875 28.726562 39.054688 29.167969 39.054688 C 29.609375 39.054688 29.96875 39.421875 29.96875 39.871094 Z M 29.96875 39.871094 "/>
<path style=" stroke:none;fill-rule:nonzero;fill:rgb(20.784314%,20%,48.235294%);fill-opacity:1;" d="M 32.066406 41.566406 C 32.066406 42.015625 31.707031 42.382812 31.265625 42.382812 C 30.820312 42.382812 30.464844 42.015625 30.464844 41.566406 C 30.464844 41.113281 30.820312 40.75 31.265625 40.75 C 31.707031 40.75 32.066406 41.113281 32.066406 41.566406 Z M 32.066406 41.566406 "/>
<path style=" stroke:none;fill-rule:nonzero;fill:rgb(24.705882%,23.921569%,33.72549%);fill-opacity:1;" d="M 29.355469 44.203125 C 29.355469 44.652344 28.992188 45.015625 28.550781 45.015625 C 28.109375 45.015625 27.75 44.652344 27.75 44.203125 C 27.75 43.75 28.109375 43.386719 28.550781 43.386719 C 28.992188 43.386719 29.355469 43.75 29.355469 44.203125 Z M 29.355469 44.203125 "/>
<path style=" stroke:none;fill-rule:nonzero;fill:rgb(24.705882%,23.921569%,33.72549%);fill-opacity:1;" d="M 29.539062 51.917969 C 29.539062 51.917969 28.738281 49.910156 31.140625 48.40625 Z M 29.539062 51.917969 "/>
<path style=" stroke:none;fill-rule:nonzero;fill:rgb(24.705882%,23.921569%,33.72549%);fill-opacity:1;" d="M 28.550781 51.882812 C 28.550781 51.882812 28.1875 49.746094 25.363281 49.765625 Z M 28.550781 51.882812 "/>
<path style=" stroke:none;fill-rule:nonzero;fill:rgb(24.705882%,23.921569%,33.72549%);fill-opacity:1;" d="M 10.054688 28.707031 L 10.175781 28.707031 L 10.175781 44.449219 L 10.054688 44.449219 Z M 10.054688 28.707031 "/>
<path style=" stroke:none;fill-rule:nonzero;fill:rgb(24.705882%,23.921569%,33.72549%);fill-opacity:1;" d="M 13.8125 26.285156 L 13.9375 26.285156 L 13.9375 46.871094 L 13.8125 46.871094 Z M 13.8125 26.285156 "/>
<path style=" stroke:none;fill-rule:nonzero;fill:rgb(24.705882%,23.921569%,33.72549%);fill-opacity:1;" d="M 17.574219 25.597656 L 17.699219 25.597656 L 17.699219 47.558594 L 17.574219 47.558594 Z M 17.574219 25.597656 "/>
<path style=" stroke:none;fill-rule:nonzero;fill:rgb(24.705882%,23.921569%,33.72549%);fill-opacity:1;" d="M 21.335938 26.285156 L 21.460938 26.285156 L 21.460938 46.871094 L 21.335938 46.871094 Z M 21.335938 26.285156 "/>
<path style=" stroke:none;fill-rule:nonzero;fill:rgb(24.705882%,23.921569%,33.72549%);fill-opacity:1;" d="M 25.097656 28.707031 L 25.222656 28.707031 L 25.222656 44.449219 L 25.097656 44.449219 Z M 25.097656 28.707031 "/>
<path style=" stroke:none;fill-rule:nonzero;fill:rgb(24.705882%,23.921569%,33.72549%);fill-opacity:1;" d="M 8.136719 31.308594 L 27.140625 31.308594 L 27.140625 31.433594 L 8.136719 31.433594 Z M 8.136719 31.308594 "/>
<path style=" stroke:none;fill-rule:nonzero;fill:rgb(24.705882%,23.921569%,33.72549%);fill-opacity:1;" d="M 6.847656 36.515625 L 28.429688 36.515625 L 28.429688 36.640625 L 6.847656 36.640625 Z M 6.847656 36.515625 "/>
<path style=" stroke:none;fill-rule:nonzero;fill:rgb(24.705882%,23.921569%,33.72549%);fill-opacity:1;" d="M 8.136719 41.722656 L 27.140625 41.722656 L 27.140625 41.847656 L 8.136719 41.847656 Z M 8.136719 41.722656 "/>
<path style=" stroke:none;fill-rule:nonzero;fill:rgb(20.784314%,20%,48.235294%);fill-opacity:1;" d="M 57.902344 20.453125 C 57.902344 26.519531 53.070312 31.433594 47.113281 31.433594 C 41.152344 31.433594 36.320312 26.519531 36.320312 20.453125 C 36.320312 14.390625 41.152344 9.472656 47.113281 9.472656 C 53.070312 9.472656 57.902344 14.390625 57.902344 20.453125 Z M 57.902344 20.453125 "/>
<path style=" stroke:none;fill-rule:nonzero;fill:rgb(24.705882%,23.921569%,33.72549%);fill-opacity:1;" d="M 28.738281 18.292969 L 28.859375 18.292969 L 28.859375 34.035156 L 28.738281 34.035156 Z M 28.738281 18.292969 "/>
<path style=" stroke:none;fill-rule:nonzero;fill:rgb(24.705882%,23.921569%,33.72549%);fill-opacity:1;" d="M 32.496094 15.871094 L 32.621094 15.871094 L 32.621094 36.457031 L 32.496094 36.457031 Z M 32.496094 15.871094 "/>
<path style=" stroke:none;fill-rule:nonzero;fill:rgb(24.705882%,23.921569%,33.72549%);fill-opacity:1;" d="M 36.257812 15.183594 L 36.382812 15.183594 L 36.382812 37.144531 L 36.257812 37.144531 Z M 36.257812 15.183594 "/>
<path style=" stroke:none;fill-rule:nonzero;fill:rgb(24.705882%,23.921569%,33.72549%);fill-opacity:1;" d="M 40.019531 15.871094 L 40.144531 15.871094 L 40.144531 36.457031 L 40.019531 36.457031 Z M 40.019531 15.871094 "/>
<path style=" stroke:none;fill-rule:nonzero;fill:rgb(24.705882%,23.921569%,33.72549%);fill-opacity:1;" d="M 43.78125 18.292969 L 43.90625 18.292969 L 43.90625 34.035156 L 43.78125 34.035156 Z M 43.78125 18.292969 "/>
<path style=" stroke:none;fill-rule:nonzero;fill:rgb(24.705882%,23.921569%,33.72549%);fill-opacity:1;" d="M 26.820312 20.894531 L 45.824219 20.894531 L 45.824219 21.019531 L 26.820312 21.019531 Z M 26.820312 20.894531 "/>
<path style=" stroke:none;fill-rule:nonzero;fill:rgb(24.705882%,23.921569%,33.72549%);fill-opacity:1;" d="M 25.53125 26.101562 L 47.113281 26.101562 L 47.113281 26.226562 L 25.53125 26.226562 Z M 25.53125 26.101562 "/>
<path style=" stroke:none;fill-rule:nonzero;fill:rgb(24.705882%,23.921569%,33.72549%);fill-opacity:1;" d="M 26.820312 31.308594 L 45.824219 31.308594 L 45.824219 31.433594 L 26.820312 31.433594 Z M 26.820312 31.308594 "/>
<path style=" stroke:none;fill-rule:nonzero;fill:rgb(18.431373%,18.039216%,25.490196%);fill-opacity:1;" d="M 44.660156 2.074219 C 41.695312 2.074219 39.285156 4.792969 39.285156 8.144531 L 39.285156 12.402344 L 40.574219 12.402344 L 41.320312 10.824219 L 41.132812 12.402344 L 49.40625 12.402344 L 50.085938 10.96875 L 49.914062 12.402344 L 50.847656 12.402344 L 50.847656 9.058594 C 50.847656 5.203125 48.078125 2.074219 44.660156 2.074219 Z M 44.660156 2.074219 "/>
<path style=" stroke:none;fill-rule:nonzero;fill:rgb(100%,72.156863%,72.156863%);fill-opacity:1;" d="M 42.066406 9.730469 C 42.066406 9.730469 43.746094 13.710938 41.507812 14.507812 L 43.746094 22.019531 L 47.546875 21.792969 L 48.554688 19.289062 L 48.332031 15.535156 L 47.996094 13.03125 C 47.996094 13.03125 45.648438 13.597656 45.871094 9.386719 Z M 42.066406 9.730469 "/>
<path style=" stroke:none;fill-rule:nonzero;fill:rgb(100%,72.156863%,72.156863%);fill-opacity:1;" d="M 41.171875 14.394531 C 41.171875 14.394531 37.480469 14.054688 37.816406 16.785156 C 38.152344 19.515625 38.488281 20.085938 38.488281 20.085938 L 38.824219 24.183594 L 36.8125 25.433594 L 34.910156 25.433594 C 34.910156 25.433594 29.09375 26.796875 32 28.277344 C 34.910156 29.757812 35.917969 27.140625 35.917969 27.140625 C 35.917969 27.140625 41.285156 27.140625 41.621094 26.230469 C 41.957031 25.320312 41.171875 14.394531 41.171875 14.394531 Z M 41.171875 14.394531 "/>
<path style=" stroke:none;fill-rule:nonzero;fill:rgb(100%,72.156863%,72.156863%);fill-opacity:1;" d="M 48.332031 13.257812 C 48.332031 13.257812 51.796875 12.003906 52.019531 14.738281 C 52.246094 17.46875 52.246094 17.695312 52.246094 17.695312 L 52.917969 21.5625 C 52.917969 21.5625 54.257812 24.976562 54.257812 26.003906 C 54.257812 27.027344 55.265625 30.210938 55.265625 30.210938 C 55.265625 30.210938 56.605469 34.652344 55.152344 34.539062 C 53.699219 34.421875 53.476562 29.757812 53.476562 29.757812 L 50.457031 23.613281 L 49.5625 19.859375 Z M 48.332031 13.257812 "/>
<path style=" stroke:none;fill-rule:nonzero;fill:rgb(100%,100%,100%);fill-opacity:1;" d="M 41.730469 13.941406 L 40.835938 13.941406 L 40.726562 18.71875 C 40.726562 18.71875 39.269531 20.765625 41.0625 22.589844 L 41.507812 25.546875 L 49.671875 25.207031 L 50.230469 22.132812 C 50.230469 22.132812 51.351562 19.628906 49.785156 17.355469 L 48.332031 12.6875 L 47.546875 12.6875 C 47.546875 12.6875 49.359375 19.492188 45.535156 19.628906 C 42.402344 19.742188 41.730469 13.941406 41.730469 13.941406 Z M 41.730469 13.941406 "/>
<path style=" stroke:none;fill-rule:nonzero;fill:rgb(18.431373%,18.039216%,25.490196%);fill-opacity:1;" d="M 54.71875 42.199219 C 52.199219 45.085938 49.128906 47.421875 45.691406 49.066406 C 45.691406 43.371094 45.757812 38.746094 45.757812 38.746094 C 45.757812 38.746094 45.285156 43.632812 44.679688 49.527344 C 41.234375 51.007812 37.53125 51.765625 33.792969 51.761719 C 33.726562 51.761719 33.660156 51.761719 33.59375 51.761719 C 36.671875 40.511719 41.160156 27.617188 41.28125 27.261719 C 41.285156 27.257812 41.285156 27.257812 41.285156 27.253906 L 41.554688 26.335938 L 41.671875 25.945312 L 41.792969 25.535156 L 41.957031 24.976562 L 49.226562 24.75 L 49.429688 25.214844 L 50.121094 26.796875 C 50.179688 26.816406 50.238281 26.84375 50.289062 26.878906 C 51.597656 27.753906 53.246094 34.425781 54.71875 42.199219 Z M 54.71875 42.199219 "/>
<path style=" stroke:none;fill-rule:nonzero;fill:rgb(24.705882%,23.921569%,33.72549%);fill-opacity:1;" d="M 50.007812 23.839844 L 41.171875 24.183594 C 41.171875 24.183594 40.769531 27.253906 41.171875 27.253906 C 41.285156 27.253906 50.457031 28.050781 50.34375 26.683594 C 50.230469 25.320312 50.007812 23.839844 50.007812 23.839844 Z M 50.007812 23.839844 "/>
<path style=" stroke:none;fill-rule:nonzero;fill:rgb(100%,72.156863%,72.156863%);fill-opacity:1;" d="M 46.9375 7.835938 C 46.9375 9.601562 45.53125 11.03125 43.796875 11.03125 C 42.0625 11.03125 40.652344 9.601562 40.652344 7.835938 C 40.652344 6.070312 42.0625 4.636719 43.796875 4.636719 C 45.53125 4.636719 46.9375 6.070312 46.9375 7.835938 Z M 46.9375 7.835938 "/>
<path style=" stroke:none;fill-rule:nonzero;fill:rgb(18.431373%,18.039216%,25.490196%);fill-opacity:1;" d="M 46.191406 3.746094 C 45.652344 3.039062 44.855469 2.59375 43.964844 2.59375 L 43.859375 2.59375 C 41.824219 2.59375 40.175781 4.464844 40.175781 6.777344 L 40.859375 6.777344 L 40.96875 5.925781 L 41.128906 6.777344 L 45.171875 6.777344 L 45.511719 6.054688 L 45.425781 6.777344 L 46.222656 6.777344 C 46.59375 8.652344 46.0625 10.527344 44.621094 12.402344 L 45.976562 12.402344 L 46.65625 10.960938 L 46.484375 12.402344 L 49.070312 12.402344 L 49.578125 9.085938 C 49.578125 6.597656 48.15625 4.492188 46.191406 3.746094 Z M 46.191406 3.746094 "/>
<path style=" stroke:none;fill-rule:nonzero;fill:rgb(18.431373%,18.039216%,25.490196%);fill-opacity:1;" d="M 48.945312 2.046875 C 48.945312 3.179688 48.042969 4.097656 46.933594 4.097656 C 45.820312 4.097656 44.917969 3.179688 44.917969 2.046875 C 44.917969 0.917969 45.820312 0 46.933594 0 C 48.042969 0 48.945312 0.917969 48.945312 2.046875 Z M 48.945312 2.046875 "/>
<path style=" stroke:none;fill-rule:nonzero;fill:rgb(20.784314%,20%,48.235294%);fill-opacity:1;" d="M 33.238281 26.15625 C 33.238281 26.722656 32.785156 27.1875 32.226562 27.1875 C 31.667969 27.1875 31.214844 26.722656 31.214844 26.15625 C 31.214844 25.585938 31.667969 25.125 32.226562 25.125 C 32.785156 25.125 33.238281 25.585938 33.238281 26.15625 Z M 33.238281 26.15625 "/>
<path style=" stroke:none;fill-rule:nonzero;fill:rgb(93.72549%,93.72549%,93.72549%);fill-opacity:1;" d="M 32.226562 26.15625 L 10.164062 26.15625 L 10.164062 17.09375 L 28.515625 17.09375 Z M 32.226562 26.15625 "/>
<path style=" stroke:none;fill-rule:nonzero;fill:rgb(24.705882%,23.921569%,33.72549%);fill-opacity:1;" d="M 32.328125 26.222656 L 7.460938 26.222656 L 7.460938 15.101562 L 27.816406 15.101562 L 27.835938 15.144531 Z M 7.597656 26.085938 L 32.125 26.085938 L 27.726562 15.238281 L 7.597656 15.238281 Z M 7.597656 26.085938 "/>
<path style=" stroke:none;fill-rule:nonzero;fill:rgb(24.705882%,23.921569%,33.72549%);fill-opacity:1;" d="M 13.804688 18.535156 L 24.804688 18.535156 L 24.804688 19.566406 L 13.804688 19.566406 Z M 13.804688 18.535156 "/>
<path style=" stroke:none;fill-rule:nonzero;fill:rgb(24.705882%,23.921569%,33.72549%);fill-opacity:1;" d="M 13.804688 20.664062 L 24.804688 20.664062 L 24.804688 21.691406 L 13.804688 21.691406 Z M 13.804688 20.664062 "/>
<path style=" stroke:none;fill-rule:nonzero;fill:rgb(24.705882%,23.921569%,33.72549%);fill-opacity:1;" d="M 13.804688 22.792969 L 24.804688 22.792969 L 24.804688 23.820312 L 13.804688 23.820312 Z M 13.804688 22.792969 "/>
<path style=" stroke:none;fill-rule:nonzero;fill:rgb(18.431373%,18.039216%,25.490196%);fill-opacity:1;" d="M 0.742188 36.789062 C 0.332031 36.789062 0 36.449219 0 36.035156 C 0 35.621094 0.332031 35.28125 0.742188 35.28125 C 1.148438 35.28125 1.480469 35.621094 1.480469 36.035156 C 1.480469 36.449219 1.148438 36.789062 0.742188 36.789062 Z M 0.742188 35.40625 C 0.398438 35.40625 0.125 35.6875 0.125 36.035156 C 0.125 36.382812 0.398438 36.664062 0.742188 36.664062 C 1.082031 36.664062 1.355469 36.382812 1.355469 36.035156 C 1.355469 35.6875 1.082031 35.410156 0.742188 35.40625 Z M 0.742188 35.40625 "/>
<path style=" stroke:none;fill-rule:nonzero;fill:rgb(24.705882%,23.921569%,33.72549%);fill-opacity:1;" d="M 26.75 8.449219 L 25.535156 8.449219 L 25.535156 7.207031 L 26.75 7.207031 Z M 25.628906 8.351562 L 26.65625 8.351562 L 26.65625 7.304688 L 25.628906 7.304688 Z M 25.628906 8.351562 "/>
<path style=" stroke:none;fill-rule:nonzero;fill:rgb(18.431373%,18.039216%,25.490196%);fill-opacity:1;" d="M 3.730469 8.703125 L 2.898438 7.796875 L 3.789062 6.953125 L 4.621094 7.859375 Z M 3.03125 7.800781 L 3.734375 8.566406 L 4.488281 7.851562 L 3.785156 7.085938 Z M 3.03125 7.800781 "/>
</g>
</svg>
