<?xml version="1.0" encoding="UTF-8"?>
<svg xmlns="http://www.w3.org/2000/svg" xmlns:xlink="http://www.w3.org/1999/xlink" width="54pt" height="33pt" viewBox="0 0 54 33" version="1.1">
<g id="surface1">
<path style=" stroke:none;fill-rule:nonzero;fill:rgb(24.705882%,23.921569%,33.72549%);fill-opacity:1;" d="M 53.207031 0 L 15.625 0 C 15.328125 0 15.085938 0.242188 15.085938 0.542969 L 15.085938 26.203125 C 15.085938 26.503906 15.328125 26.746094 15.625 26.746094 L 53.207031 26.746094 C 53.363281 26.746094 53.515625 26.675781 53.617188 26.554688 C 53.621094 26.550781 53.625 26.546875 53.628906 26.539062 C 53.660156 26.5 53.6875 26.457031 53.707031 26.410156 C 53.734375 26.34375 53.75 26.273438 53.746094 26.203125 L 53.746094 0.542969 C 53.746094 0.242188 53.503906 0 53.207031 0 Z M 53.59375 26.203125 C 53.59375 26.277344 53.570312 26.351562 53.527344 26.414062 C 53.492188 26.472656 53.441406 26.515625 53.382812 26.546875 C 53.328125 26.578125 53.269531 26.59375 53.207031 26.59375 L 15.625 26.59375 C 15.414062 26.589844 15.242188 26.417969 15.242188 26.203125 L 15.242188 0.542969 C 15.242188 0.328125 15.414062 0.15625 15.625 0.15625 L 53.207031 0.15625 C 53.421875 0.15625 53.59375 0.328125 53.59375 0.542969 Z M 53.59375 26.203125 "/>
<path style=" stroke:none;fill-rule:nonzero;fill:rgb(24.705882%,23.921569%,33.72549%);fill-opacity:1;" d="M 15.164062 2.179688 L 53.671875 2.179688 L 53.671875 2.335938 L 15.164062 2.335938 Z M 15.164062 2.179688 "/>
<path style=" stroke:none;fill-rule:nonzero;fill:rgb(24.705882%,23.921569%,33.72549%);fill-opacity:1;" d="M 16.9375 1.164062 C 16.9375 1.421875 16.730469 1.632812 16.476562 1.632812 C 16.21875 1.632812 16.011719 1.421875 16.011719 1.164062 C 16.011719 0.90625 16.21875 0.699219 16.476562 0.699219 C 16.730469 0.699219 16.9375 0.90625 16.9375 1.164062 Z M 16.9375 1.164062 "/>
<path style=" stroke:none;fill-rule:nonzero;fill:rgb(24.705882%,23.921569%,33.72549%);fill-opacity:1;" d="M 18.269531 1.164062 C 18.269531 1.421875 18.0625 1.632812 17.804688 1.632812 C 17.550781 1.632812 17.34375 1.421875 17.34375 1.164062 C 17.34375 0.90625 17.550781 0.699219 17.804688 0.699219 C 18.0625 0.699219 18.269531 0.90625 18.269531 1.164062 Z M 18.269531 1.164062 "/>
<path style=" stroke:none;fill-rule:nonzero;fill:rgb(24.705882%,23.921569%,33.72549%);fill-opacity:1;" d="M 19.601562 1.164062 C 19.601562 1.421875 19.394531 1.632812 19.136719 1.632812 C 18.882812 1.632812 18.675781 1.421875 18.675781 1.164062 C 18.675781 0.90625 18.882812 0.699219 19.136719 0.699219 C 19.394531 0.699219 19.601562 0.90625 19.601562 1.164062 Z M 19.601562 1.164062 "/>
<path style=" stroke:none;fill-rule:nonzero;fill:rgb(94.901961%,94.901961%,94.901961%);fill-opacity:1;" d="M 49.105469 13.453125 L 19.074219 13.453125 C 18.496094 13.453125 18.023438 12.976562 18.023438 12.394531 L 18.023438 5.96875 C 18.023438 5.382812 18.496094 4.90625 19.074219 4.90625 L 49.105469 4.90625 C 49.683594 4.90625 50.15625 5.382812 50.15625 5.96875 L 50.15625 12.394531 C 50.15625 12.976562 49.683594 13.453125 49.105469 13.453125 Z M 19.074219 5.03125 C 18.5625 5.03125 18.148438 5.453125 18.148438 5.96875 L 18.148438 12.394531 C 18.148438 12.910156 18.5625 13.328125 19.074219 13.328125 L 49.105469 13.328125 C 49.617188 13.328125 50.03125 12.910156 50.03125 12.394531 L 50.03125 5.96875 C 50.03125 5.453125 49.617188 5.03125 49.105469 5.03125 Z M 19.074219 5.03125 "/>
<path style=" stroke:none;fill-rule:nonzero;fill:rgb(94.901961%,94.901961%,94.901961%);fill-opacity:1;" d="M 25.699219 25.054688 L 19.074219 25.054688 C 18.496094 25.054688 18.023438 24.582031 18.023438 23.996094 L 18.023438 19.257812 C 18.023438 18.671875 18.496094 18.195312 19.074219 18.195312 L 25.699219 18.195312 C 26.28125 18.195312 26.753906 18.671875 26.753906 19.257812 L 26.753906 23.996094 C 26.753906 24.582031 26.28125 25.054688 25.699219 25.054688 Z M 19.074219 18.320312 C 18.5625 18.320312 18.148438 18.738281 18.148438 19.257812 L 18.148438 23.996094 C 18.148438 24.511719 18.5625 24.929688 19.074219 24.933594 L 25.699219 24.933594 C 26.214844 24.929688 26.628906 24.511719 26.628906 23.996094 L 26.628906 19.257812 C 26.628906 18.738281 26.214844 18.320312 25.699219 18.320312 Z M 19.074219 18.320312 "/>
<path style=" stroke:none;fill-rule:nonzero;fill:rgb(94.901961%,94.901961%,94.901961%);fill-opacity:1;" d="M 49.105469 25.054688 L 42.480469 25.054688 C 41.898438 25.054688 41.425781 24.582031 41.425781 23.996094 L 41.425781 19.257812 C 41.425781 18.671875 41.898438 18.195312 42.480469 18.195312 L 49.105469 18.195312 C 49.683594 18.195312 50.15625 18.671875 50.15625 19.257812 L 50.15625 23.996094 C 50.15625 24.582031 49.683594 25.054688 49.105469 25.054688 Z M 42.480469 18.320312 C 41.964844 18.320312 41.550781 18.738281 41.550781 19.257812 L 41.550781 23.996094 C 41.550781 24.511719 41.964844 24.929688 42.480469 24.933594 L 49.105469 24.933594 C 49.617188 24.929688 50.03125 24.511719 50.03125 23.996094 L 50.03125 19.257812 C 50.03125 18.738281 49.617188 18.320312 49.105469 18.320312 Z M 42.480469 18.320312 "/>
<path style=" stroke:none;fill-rule:nonzero;fill:rgb(94.901961%,94.901961%,94.901961%);fill-opacity:1;" d="M 37.898438 25.054688 L 31.273438 25.054688 C 30.691406 25.054688 30.222656 24.582031 30.21875 23.996094 L 30.21875 19.257812 C 30.222656 18.671875 30.691406 18.195312 31.273438 18.195312 L 37.898438 18.195312 C 38.480469 18.195312 38.949219 18.671875 38.949219 19.257812 L 38.949219 23.996094 C 38.949219 24.582031 38.480469 25.054688 37.898438 25.054688 Z M 31.273438 18.320312 C 30.761719 18.320312 30.34375 18.738281 30.34375 19.257812 L 30.34375 23.996094 C 30.34375 24.511719 30.761719 24.929688 31.273438 24.933594 L 37.898438 24.933594 C 38.410156 24.929688 38.824219 24.511719 38.824219 23.996094 L 38.824219 19.257812 C 38.824219 18.738281 38.410156 18.320312 37.898438 18.320312 Z M 31.273438 18.320312 "/>
<path style=" stroke:none;fill-rule:nonzero;fill:rgb(94.901961%,94.901961%,94.901961%);fill-opacity:1;" d="M 18.363281 5.320312 L 18.390625 5.199219 L 50.109375 13.019531 L 50.082031 13.140625 Z M 18.363281 5.320312 "/>
<path style=" stroke:none;fill-rule:nonzero;fill:rgb(94.901961%,94.901961%,94.901961%);fill-opacity:1;" d="M 18.363281 13.042969 L 49.789062 5.199219 L 49.816406 5.320312 L 18.394531 13.164062 Z M 18.363281 13.042969 "/>
<path style=" stroke:none;fill-rule:nonzero;fill:rgb(100%,100%,100%);fill-opacity:1;" d="M 50.34375 15.605469 L 20.3125 15.605469 C 19.75 15.605469 19.292969 15.144531 19.292969 14.578125 L 19.292969 8.152344 C 19.292969 7.582031 19.75 7.125 20.3125 7.121094 L 50.34375 7.121094 C 50.90625 7.125 51.363281 7.582031 51.363281 8.152344 L 51.363281 14.578125 C 51.363281 15.144531 50.90625 15.605469 50.34375 15.605469 Z M 50.34375 15.605469 "/>
<path style=" stroke:none;fill-rule:nonzero;fill:rgb(94.901961%,94.901961%,94.901961%);fill-opacity:1;" d="M 30.558594 18.574219 L 30.636719 18.476562 L 38.570312 24.714844 L 38.496094 24.8125 Z M 30.558594 18.574219 "/>
<path style=" stroke:none;fill-rule:nonzero;fill:rgb(94.901961%,94.901961%,94.901961%);fill-opacity:1;" d="M 30.703125 24.789062 L 38.535156 18.476562 L 38.613281 18.574219 L 30.78125 24.886719 Z M 30.703125 24.789062 "/>
<path style=" stroke:none;fill-rule:nonzero;fill:rgb(94.901961%,94.901961%,94.901961%);fill-opacity:1;" d="M 18.363281 18.574219 L 18.4375 18.476562 L 26.375 24.714844 L 26.296875 24.8125 Z M 18.363281 18.574219 "/>
<path style=" stroke:none;fill-rule:nonzero;fill:rgb(94.901961%,94.901961%,94.901961%);fill-opacity:1;" d="M 18.507812 24.789062 L 26.335938 18.476562 L 26.414062 18.574219 L 18.582031 24.886719 Z M 18.507812 24.789062 "/>
<path style=" stroke:none;fill-rule:nonzero;fill:rgb(94.901961%,94.901961%,94.901961%);fill-opacity:1;" d="M 41.765625 18.574219 L 41.84375 18.476562 L 49.777344 24.714844 L 49.699219 24.8125 Z M 41.765625 18.574219 "/>
<path style=" stroke:none;fill-rule:nonzero;fill:rgb(94.901961%,94.901961%,94.901961%);fill-opacity:1;" d="M 41.910156 24.789062 L 49.742188 18.476562 L 49.816406 18.574219 L 41.988281 24.886719 Z M 41.910156 24.789062 "/>
<path style=" stroke:none;fill-rule:nonzero;fill:rgb(42.352941%,38.823529%,100%);fill-opacity:1;" d="M 38.824219 29.578125 L 32.203125 29.578125 C 31.636719 29.578125 31.179688 29.117188 31.179688 28.550781 L 31.179688 23.808594 C 31.179688 23.242188 31.636719 22.78125 32.203125 22.78125 L 38.824219 22.78125 C 39.390625 22.78125 39.847656 23.242188 39.847656 23.808594 L 39.847656 28.550781 C 39.847656 29.117188 39.390625 29.578125 38.824219 29.578125 Z M 38.824219 29.578125 "/>
<path style=" stroke:none;fill-rule:nonzero;fill:rgb(80%,80%,80%);fill-opacity:1;" d="M 42.285156 29.671875 L 28.726562 29.671875 C 28.695312 29.671875 28.664062 29.644531 28.664062 29.609375 C 28.664062 29.578125 28.695312 29.546875 28.726562 29.546875 L 42.285156 29.546875 C 42.320312 29.546875 42.347656 29.578125 42.347656 29.609375 C 42.347656 29.644531 42.320312 29.671875 42.285156 29.671875 Z M 42.285156 29.671875 "/>
<path style=" stroke:none;fill-rule:nonzero;fill:rgb(80%,80%,80%);fill-opacity:1;" d="M 13.621094 32.980469 L 0.0625 32.980469 C 0.0273438 32.980469 0 32.953125 0 32.917969 C 0 32.882812 0.0273438 32.855469 0.0625 32.855469 L 13.621094 32.855469 C 13.65625 32.855469 13.683594 32.882812 13.683594 32.917969 C 13.683594 32.953125 13.65625 32.980469 13.621094 32.980469 Z M 13.621094 32.980469 "/>
<path style=" stroke:none;fill-rule:nonzero;fill:rgb(100%,100%,100%);fill-opacity:1;" d="M 36.378906 25.835938 L 34.644531 25.835938 C 34.371094 25.835938 34.148438 25.613281 34.148438 25.335938 C 34.148438 25.0625 34.371094 24.839844 34.644531 24.839844 L 36.378906 24.839844 C 36.652344 24.839844 36.875 25.0625 36.875 25.335938 C 36.875 25.613281 36.652344 25.835938 36.378906 25.835938 Z M 36.378906 25.835938 "/>
<path style=" stroke:none;fill-rule:nonzero;fill:rgb(100%,100%,100%);fill-opacity:1;" d="M 37.402344 27.523438 L 33.625 27.523438 C 33.351562 27.523438 33.128906 27.296875 33.128906 27.023438 C 33.128906 26.746094 33.351562 26.523438 33.625 26.523438 L 37.402344 26.523438 C 37.675781 26.523438 37.898438 26.746094 37.898438 27.023438 C 37.898438 27.296875 37.675781 27.523438 37.402344 27.523438 Z M 37.402344 27.523438 "/>
<path style=" stroke:none;fill-rule:nonzero;fill:rgb(42.352941%,38.823529%,100%);fill-opacity:1;" d="M 26.753906 25.960938 L 20.128906 25.960938 C 19.566406 25.960938 19.109375 25.5 19.105469 24.933594 L 19.105469 20.191406 C 19.109375 19.625 19.566406 19.164062 20.128906 19.164062 L 26.753906 19.164062 C 27.316406 19.164062 27.773438 19.625 27.773438 20.191406 L 27.773438 24.933594 C 27.773438 25.5 27.316406 25.960938 26.753906 25.960938 Z M 26.753906 25.960938 "/>
<path style=" stroke:none;fill-rule:nonzero;fill:rgb(100%,100%,100%);fill-opacity:1;" d="M 24.304688 22.21875 L 22.570312 22.21875 C 22.296875 22.21875 22.078125 21.996094 22.078125 21.71875 C 22.078125 21.445312 22.296875 21.21875 22.570312 21.21875 L 24.304688 21.21875 C 24.578125 21.21875 24.800781 21.445312 24.800781 21.71875 C 24.800781 21.996094 24.578125 22.21875 24.304688 22.21875 Z M 24.304688 22.21875 "/>
<path style=" stroke:none;fill-rule:nonzero;fill:rgb(100%,100%,100%);fill-opacity:1;" d="M 25.328125 23.902344 L 21.554688 23.902344 C 21.28125 23.902344 21.058594 23.679688 21.058594 23.40625 C 21.058594 23.128906 21.28125 22.90625 21.554688 22.90625 L 25.328125 22.90625 C 25.601562 22.90625 25.824219 23.128906 25.824219 23.40625 C 25.824219 23.679688 25.601562 23.902344 25.328125 23.902344 Z M 25.328125 23.902344 "/>
<path style=" stroke:none;fill-rule:nonzero;fill:rgb(90.196078%,90.196078%,90.196078%);fill-opacity:1;" d="M 50.527344 27.769531 L 43.902344 27.769531 C 43.339844 27.769531 42.882812 27.308594 42.882812 26.742188 L 42.882812 22 C 42.882812 21.429688 43.339844 20.972656 43.902344 20.96875 L 50.527344 20.96875 C 51.09375 20.972656 51.546875 21.429688 51.550781 22 L 51.550781 26.742188 C 51.546875 27.308594 51.09375 27.769531 50.527344 27.769531 Z M 50.527344 27.769531 "/>
<path style=" stroke:none;fill-rule:nonzero;fill:rgb(100%,100%,100%);fill-opacity:1;" d="M 48.078125 24.027344 L 46.347656 24.027344 C 46.074219 24.027344 45.851562 23.804688 45.851562 23.527344 C 45.851562 23.253906 46.074219 23.03125 46.347656 23.03125 L 48.078125 23.03125 C 48.351562 23.03125 48.574219 23.253906 48.574219 23.527344 C 48.574219 23.804688 48.351562 24.027344 48.078125 24.027344 Z M 48.078125 24.027344 "/>
<path style=" stroke:none;fill-rule:nonzero;fill:rgb(100%,100%,100%);fill-opacity:1;" d="M 49.105469 25.710938 L 45.328125 25.710938 C 45.054688 25.710938 44.832031 25.488281 44.832031 25.210938 C 44.832031 24.9375 45.054688 24.714844 45.328125 24.714844 L 49.105469 24.714844 C 49.378906 24.714844 49.597656 24.9375 49.597656 25.210938 C 49.597656 25.488281 49.378906 25.710938 49.105469 25.710938 Z M 49.105469 25.710938 "/>
<path style=" stroke:none;fill-rule:nonzero;fill:rgb(62.745098%,38.039216%,41.568627%);fill-opacity:1;" d="M 18.65625 21.621094 L 18.65625 20.859375 L 15.730469 20.492188 L 15.730469 21.621094 Z M 18.65625 21.621094 "/>
<path style=" stroke:none;fill-rule:nonzero;fill:rgb(18.431373%,18.039216%,25.490196%);fill-opacity:1;" d="M 19.363281 19.382812 L 19.363281 21.785156 L 18.441406 21.785156 L 18.441406 20.3125 C 18.441406 19.796875 18.851562 19.382812 19.363281 19.382812 Z M 19.363281 19.382812 "/>
<path style=" stroke:none;fill-rule:nonzero;fill:rgb(62.745098%,38.039216%,41.568627%);fill-opacity:1;" d="M 5.617188 32.121094 L 6.378906 32.121094 L 6.738281 29.171875 L 5.617188 29.171875 Z M 5.617188 32.121094 "/>
<path style=" stroke:none;fill-rule:nonzero;fill:rgb(18.431373%,18.039216%,25.490196%);fill-opacity:1;" d="M 7.84375 32.832031 L 5.457031 32.832031 L 5.457031 31.902344 L 6.917969 31.902344 C 7.429688 31.902344 7.84375 32.320312 7.84375 32.832031 Z M 7.84375 32.832031 "/>
<path style=" stroke:none;fill-rule:nonzero;fill:rgb(18.431373%,18.039216%,25.490196%);fill-opacity:1;" d="M 6.558594 31.058594 C 6.550781 31.058594 6.539062 31.058594 6.53125 31.058594 L 5.496094 30.96875 C 5.410156 30.964844 5.328125 30.921875 5.273438 30.851562 C 5.222656 30.785156 5.195312 30.695312 5.207031 30.609375 L 5.742188 26.40625 C 5.746094 26.390625 5.746094 26.375 5.742188 26.355469 L 4.890625 19.578125 C 4.878906 19.488281 4.90625 19.398438 4.96875 19.328125 C 5.027344 19.261719 5.113281 19.21875 5.203125 19.21875 L 8.21875 19.175781 C 8.234375 19.175781 8.246094 19.175781 8.261719 19.179688 L 8.273438 19.179688 L 8.851562 19.433594 L 17.28125 20.367188 C 17.441406 20.390625 17.558594 20.527344 17.558594 20.6875 L 17.558594 21.78125 C 17.558594 21.875 17.519531 21.960938 17.453125 22.019531 C 17.386719 22.082031 17.292969 22.109375 17.203125 22.101562 L 12.335938 21.527344 C 12.308594 21.523438 12.285156 21.527344 12.261719 21.53125 L 8.410156 22.601562 C 8.335938 22.625 8.285156 22.683594 8.269531 22.757812 L 6.871094 30.792969 C 6.84375 30.945312 6.710938 31.058594 6.558594 31.058594 Z M 6.558594 31.058594 "/>
<path style=" stroke:none;fill-rule:nonzero;fill:rgb(18.431373%,18.039216%,25.490196%);fill-opacity:1;" d="M 8.390625 10.941406 C 8.390625 12.097656 7.457031 13.035156 6.3125 13.035156 C 5.164062 13.035156 4.230469 12.097656 4.230469 10.941406 C 4.230469 9.785156 5.164062 8.847656 6.3125 8.847656 C 7.457031 8.847656 8.390625 9.785156 8.390625 10.941406 Z M 8.390625 10.941406 "/>
<path style=" stroke:none;fill-rule:nonzero;fill:rgb(18.431373%,18.039216%,25.490196%);fill-opacity:1;" d="M 6.445312 8.738281 C 6.445312 9.21875 6.058594 9.605469 5.582031 9.605469 C 5.109375 9.605469 4.722656 9.21875 4.722656 8.738281 C 4.722656 8.257812 5.109375 7.871094 5.582031 7.871094 C 6.058594 7.871094 6.445312 8.257812 6.445312 8.738281 Z M 6.445312 8.738281 "/>
<path style=" stroke:none;fill-rule:nonzero;fill:rgb(18.431373%,18.039216%,25.490196%);fill-opacity:1;" d="M 4.4375 8.269531 C 4.4375 7.828125 4.769531 7.453125 5.207031 7.40625 C 5.175781 7.40625 5.148438 7.402344 5.117188 7.402344 C 4.644531 7.402344 4.257812 7.789062 4.257812 8.269531 C 4.257812 8.75 4.644531 9.136719 5.117188 9.136719 C 5.148438 9.136719 5.175781 9.132812 5.207031 9.132812 C 4.769531 9.085938 4.4375 8.710938 4.4375 8.269531 Z M 4.4375 8.269531 "/>
<path style=" stroke:none;fill-rule:nonzero;fill:rgb(80%,80%,80%);fill-opacity:1;" d="M 6.554688 20.359375 C 6.039062 20.359375 5.464844 20.214844 4.867188 19.8125 L 4.855469 19.804688 L 4.855469 19.792969 C 4.847656 19.769531 4.296875 17.425781 4.289062 15.609375 C 4.28125 14.960938 4.585938 14.351562 5.105469 13.96875 C 5.605469 13.59375 6.253906 13.484375 6.847656 13.671875 C 6.886719 13.6875 6.925781 13.699219 6.964844 13.714844 C 7.796875 14.027344 8.324219 14.863281 8.242188 15.757812 C 8.167969 16.71875 8.132812 18.464844 8.804688 19.390625 L 8.820312 19.410156 L 8.800781 19.429688 C 8.789062 19.445312 7.855469 20.359375 6.554688 20.359375 Z M 6.554688 20.359375 "/>
<path style=" stroke:none;fill-rule:nonzero;fill:rgb(62.745098%,38.039216%,41.568627%);fill-opacity:1;" d="M 7.824219 11.609375 C 7.824219 12.453125 7.144531 13.140625 6.304688 13.140625 C 5.464844 13.140625 4.785156 12.453125 4.785156 11.609375 C 4.785156 10.761719 5.464844 10.078125 6.304688 10.078125 C 7.144531 10.078125 7.824219 10.761719 7.824219 11.609375 Z M 7.824219 11.609375 "/>
<path style=" stroke:none;fill-rule:nonzero;fill:rgb(62.745098%,38.039216%,41.568627%);fill-opacity:1;" d="M 4.441406 11.507812 C 4.484375 11.6875 4.449219 11.878906 4.339844 12.027344 C 4.230469 12.179688 4.0625 12.273438 3.878906 12.285156 L 3.292969 14.433594 L 2.535156 13.5625 L 3.207031 11.65625 C 3.207031 11.335938 3.445312 11.066406 3.757812 11.03125 C 4.074219 10.992188 4.367188 11.195312 4.441406 11.507812 Z M 4.441406 11.507812 "/>
<path style=" stroke:none;fill-rule:nonzero;fill:rgb(80%,80%,80%);fill-opacity:1;" d="M 2.136719 16.242188 C 1.945312 16.242188 1.765625 16.148438 1.65625 15.992188 C 1.546875 15.835938 1.519531 15.632812 1.582031 15.453125 L 2.699219 12.292969 C 2.753906 12.140625 2.914062 12.054688 3.070312 12.09375 L 3.882812 12.3125 C 3.964844 12.335938 4.039062 12.390625 4.078125 12.46875 C 4.117188 12.550781 4.125 12.640625 4.09375 12.722656 L 3.378906 14.671875 L 4.59375 14.28125 C 4.875 14.191406 5.1875 14.265625 5.394531 14.480469 C 5.605469 14.695312 5.675781 15.007812 5.582031 15.292969 C 5.488281 15.578125 5.242188 15.785156 4.949219 15.828125 L 2.222656 16.238281 C 2.195312 16.242188 2.164062 16.242188 2.136719 16.242188 Z M 2.136719 16.242188 "/>
<path style=" stroke:none;fill-rule:nonzero;fill:rgb(18.431373%,18.039216%,25.490196%);fill-opacity:1;" d="M 7.984375 10.5 C 7.984375 10.019531 7.34375 9.632812 6.550781 9.632812 C 5.761719 9.632812 5.117188 10.019531 5.117188 10.5 C 5.117188 10.976562 5.761719 11.367188 6.550781 11.367188 C 7.34375 11.367188 7.984375 10.976562 7.984375 10.5 Z M 7.984375 10.5 "/>
<path style=" stroke:none;fill-rule:nonzero;fill:rgb(62.745098%,38.039216%,41.568627%);fill-opacity:1;" d="M 10.914062 20.867188 C 10.738281 20.820312 10.589844 20.691406 10.511719 20.523438 C 10.4375 20.355469 10.4375 20.160156 10.515625 19.992188 L 8.9375 18.429688 L 10.0625 18.1875 L 11.386719 19.710938 C 11.664062 19.863281 11.78125 20.203125 11.660156 20.5 C 11.542969 20.796875 11.21875 20.953125 10.914062 20.867188 Z M 10.914062 20.867188 "/>
<path style=" stroke:none;fill-rule:nonzero;fill:rgb(80%,80%,80%);fill-opacity:1;" d="M 10.1875 20.015625 C 10.101562 20.015625 10.019531 19.980469 9.964844 19.914062 L 8.242188 17.804688 L 6.890625 15.195312 C 6.808594 14.929688 6.855469 14.636719 7.019531 14.414062 C 7.179688 14.195312 7.433594 14.070312 7.703125 14.078125 C 7.769531 14.078125 7.835938 14.085938 7.902344 14.097656 C 8.171875 14.160156 8.398438 14.355469 8.492188 14.621094 L 9.636719 17.324219 L 11.007812 19.066406 C 11.101562 19.191406 11.082031 19.371094 10.960938 19.46875 L 10.367188 19.953125 C 10.316406 19.996094 10.25 20.015625 10.1875 20.015625 Z M 10.1875 20.015625 "/>
<path style=" stroke:none;fill-rule:nonzero;fill:rgb(80%,80%,80%);fill-opacity:1;" d="M 53.988281 27.863281 L 40.429688 27.863281 C 40.394531 27.863281 40.367188 27.835938 40.367188 27.800781 C 40.367188 27.765625 40.394531 27.738281 40.429688 27.738281 L 53.988281 27.738281 C 54.023438 27.738281 54.050781 27.765625 54.050781 27.800781 C 54.050781 27.835938 54.023438 27.863281 53.988281 27.863281 Z M 53.988281 27.863281 "/>
<path style=" stroke:none;fill-rule:nonzero;fill:rgb(42.352941%,38.823529%,100%);fill-opacity:1;" d="M 42.0625 15.496094 L 42.0625 15.574219 L 28.832031 15.574219 L 28.832031 15.492188 L 28.902344 15.390625 L 33.097656 9.421875 C 33.136719 9.367188 33.199219 9.335938 33.265625 9.335938 C 33.335938 9.335938 33.398438 9.367188 33.4375 9.421875 L 36.25 13.425781 L 38.253906 10.601562 C 38.292969 10.546875 38.355469 10.515625 38.421875 10.515625 C 38.488281 10.515625 38.550781 10.546875 38.589844 10.601562 L 41.992188 15.394531 Z M 42.0625 15.496094 "/>
<path style=" stroke:none;fill-rule:nonzero;fill:rgb(42.352941%,38.823529%,100%);fill-opacity:1;" d="M 30.34375 9.976562 C 30.34375 10.832031 29.65625 11.527344 28.804688 11.527344 C 27.953125 11.527344 27.265625 10.832031 27.265625 9.976562 C 27.265625 9.117188 27.953125 8.421875 28.804688 8.421875 C 29.65625 8.421875 30.34375 9.117188 30.34375 9.976562 Z M 30.34375 9.976562 "/>
<path style=" stroke:none;fill-rule:nonzero;fill:rgb(24.705882%,23.921569%,33.72549%);fill-opacity:1;" d="M 50.34375 15.636719 L 20.3125 15.636719 C 19.734375 15.636719 19.261719 15.164062 19.261719 14.578125 L 19.261719 8.152344 C 19.261719 7.566406 19.734375 7.09375 20.3125 7.089844 L 50.34375 7.089844 C 50.921875 7.09375 51.394531 7.566406 51.394531 8.152344 L 51.394531 14.578125 C 51.394531 15.164062 50.921875 15.636719 50.34375 15.636719 Z M 20.3125 7.214844 C 19.800781 7.21875 19.386719 7.632812 19.386719 8.152344 L 19.386719 14.578125 C 19.386719 15.09375 19.800781 15.511719 20.3125 15.511719 L 50.34375 15.511719 C 50.855469 15.511719 51.269531 15.09375 51.269531 14.578125 L 51.269531 8.152344 C 51.269531 7.632812 50.855469 7.21875 50.34375 7.214844 Z M 20.3125 7.214844 "/>
</g>
</svg>
