<?xml version="1.0" encoding="UTF-8"?>
<svg xmlns="http://www.w3.org/2000/svg" xmlns:xlink="http://www.w3.org/1999/xlink" width="291pt" height="171pt" viewBox="0 0 291 171" version="1.1">
<defs>
<filter id="alpha" filterUnits="objectBoundingBox" x="0%" y="0%" width="100%" height="100%">
  <feColorMatrix type="matrix" in="SourceGraphic" values="0 0 0 0 1 0 0 0 0 1 0 0 0 0 1 0 0 0 1 0"/>
</filter>
<mask id="mask0">
  <g filter="url(#alpha)">
<rect x="0" y="0" width="291" height="171" style="fill:rgb(0%,0%,0%);fill-opacity:0.101961;stroke:none;"/>
  </g>
</mask>
<clipPath id="clip1">
  <rect x="0" y="0" width="291" height="171"/>
</clipPath>
<g id="surface5" clip-path="url(#clip1)">
<path style=" stroke:none;fill-rule:nonzero;fill:rgb(0%,0%,0%);fill-opacity:1;" d="M 84.613281 67.65625 L 176.207031 67.65625 L 176.207031 130.640625 L 84.613281 130.640625 Z M 84.613281 67.65625 "/>
</g>
<mask id="mask1">
  <g filter="url(#alpha)">
<rect x="0" y="0" width="291" height="171" style="fill:rgb(0%,0%,0%);fill-opacity:0.101961;stroke:none;"/>
  </g>
</mask>
<clipPath id="clip2">
  <rect x="0" y="0" width="291" height="171"/>
</clipPath>
<g id="surface8" clip-path="url(#clip2)">
<path style=" stroke:none;fill-rule:nonzero;fill:rgb(0%,0%,0%);fill-opacity:1;" d="M 138.703125 85.835938 L 137.722656 95.648438 L 147.671875 97.121094 L 148.40625 91.480469 L 149.140625 85.835938 Z M 138.703125 85.835938 "/>
</g>
</defs>
<g id="surface1">
<path style=" stroke:none;fill-rule:nonzero;fill:rgb(24.705882%,23.921569%,33.72549%);fill-opacity:1;" d="M 259.074219 63.90625 C 241.476562 63.90625 227.210938 49.601562 227.210938 31.953125 C 227.210938 14.304688 241.476562 0 259.074219 0 C 276.671875 0 290.9375 14.304688 290.9375 31.953125 C 290.917969 49.59375 276.664062 63.886719 259.074219 63.90625 Z M 259.074219 0.5 C 241.753906 0.5 227.710938 14.582031 227.710938 31.953125 C 227.710938 49.324219 241.753906 63.40625 259.074219 63.40625 C 276.398438 63.40625 290.441406 49.324219 290.441406 31.953125 C 290.421875 14.589844 276.390625 0.519531 259.074219 0.5 Z M 259.074219 0.5 "/>
<path style=" stroke:none;fill-rule:nonzero;fill:rgb(94.901961%,94.901961%,94.901961%);fill-opacity:1;" d="M 275.179688 32.046875 C 275.179688 40.90625 268.019531 48.089844 259.179688 48.089844 C 250.34375 48.089844 243.183594 40.90625 243.183594 32.046875 C 243.183594 23.183594 250.34375 16 259.179688 16 C 268.019531 16 275.179688 23.183594 275.179688 32.046875 Z M 275.179688 32.046875 "/>
<path style=" stroke:none;fill-rule:nonzero;fill:rgb(24.705882%,23.921569%,33.72549%);fill-opacity:1;" d="M 15.992188 32.082031 L 260.238281 32.082031 L 260.238281 155.132812 L 15.992188 155.132812 Z M 15.992188 32.082031 "/>
<use xlink:href="#surface5" mask="url(#mask0)"/>
<path style=" stroke:none;fill-rule:nonzero;fill:rgb(42.352941%,38.823529%,100%);fill-opacity:1;" d="M 287.53125 9.492188 C 287.53125 13.066406 284.644531 15.960938 281.078125 15.960938 C 277.515625 15.960938 274.628906 13.066406 274.628906 9.492188 C 274.628906 5.921875 277.515625 3.023438 281.078125 3.023438 C 284.644531 3.023438 287.53125 5.921875 287.53125 9.492188 Z M 287.53125 9.492188 "/>
<path style=" stroke:none;fill-rule:nonzero;fill:rgb(42.352941%,38.823529%,100%);fill-opacity:1;" d="M 26.167969 36.746094 C 26.167969 38.359375 24.867188 39.664062 23.261719 39.664062 C 21.65625 39.664062 20.355469 38.359375 20.355469 36.746094 C 20.355469 35.136719 21.65625 33.832031 23.261719 33.832031 C 24.867188 33.832031 26.167969 35.136719 26.167969 36.746094 Z M 26.167969 36.746094 "/>
<path style=" stroke:none;fill-rule:nonzero;fill:rgb(42.352941%,38.823529%,100%);fill-opacity:1;" d="M 35.183594 36.746094 C 35.183594 38.359375 33.882812 39.664062 32.273438 39.664062 C 30.667969 39.664062 29.367188 38.359375 29.367188 36.746094 C 29.367188 35.136719 30.667969 33.832031 32.273438 33.832031 C 33.882812 33.832031 35.183594 35.136719 35.183594 36.746094 Z M 35.183594 36.746094 "/>
<path style=" stroke:none;fill-rule:nonzero;fill:rgb(42.352941%,38.823529%,100%);fill-opacity:1;" d="M 44.195312 36.746094 C 44.195312 38.359375 42.894531 39.664062 41.289062 39.664062 C 39.683594 39.664062 38.382812 38.359375 38.382812 36.746094 C 38.382812 35.136719 39.683594 33.832031 41.289062 33.832031 C 42.894531 33.832031 44.195312 35.136719 44.195312 36.746094 Z M 44.195312 36.746094 "/>
<path style=" stroke:none;fill-rule:nonzero;fill:rgb(42.352941%,38.823529%,100%);fill-opacity:1;" d="M 44.195312 77.863281 L 50.011719 77.863281 L 50.011719 83.695312 L 44.195312 83.695312 Z M 44.195312 77.863281 "/>
<path style=" stroke:none;fill-rule:nonzero;fill:rgb(100%,100%,100%);fill-opacity:1;" d="M 221.273438 128.597656 L 227.089844 128.597656 L 227.089844 134.429688 L 221.273438 134.429688 Z M 221.273438 128.597656 "/>
<path style=" stroke:none;fill-rule:nonzero;fill:rgb(42.352941%,38.823529%,100%);fill-opacity:1;" d="M 202.066406 91.71875 L 206.585938 88.050781 L 210.242188 92.582031 L 205.722656 96.25 Z M 202.066406 91.71875 "/>
<path style=" stroke:none;fill-rule:nonzero;fill:rgb(24.705882%,23.921569%,33.72549%);fill-opacity:1;" d="M 186.089844 167.378906 L 3.488281 167.378906 L 3.488281 68.824219 L 4.070312 68.824219 L 4.070312 166.796875 L 186.089844 166.796875 Z M 186.089844 167.378906 "/>
<path style=" stroke:none;fill-rule:nonzero;fill:rgb(24.705882%,23.921569%,33.72549%);fill-opacity:1;" d="M 189.582031 170.878906 C 187.492188 170.878906 185.800781 169.183594 185.800781 167.089844 C 185.800781 164.996094 187.492188 163.296875 189.582031 163.296875 C 191.667969 163.296875 193.359375 164.996094 193.359375 167.089844 C 193.359375 169.179688 191.667969 170.875 189.582031 170.878906 Z M 189.582031 163.882812 C 187.8125 163.882812 186.382812 165.316406 186.382812 167.089844 C 186.382812 168.859375 187.8125 170.296875 189.582031 170.296875 C 191.347656 170.296875 192.777344 168.859375 192.777344 167.089844 C 192.777344 165.316406 191.347656 163.882812 189.582031 163.882812 Z M 189.582031 163.882812 "/>
<path style=" stroke:none;fill-rule:nonzero;fill:rgb(24.705882%,23.921569%,33.72549%);fill-opacity:1;" d="M 3.78125 69.113281 C 1.691406 69.113281 0 67.417969 0 65.324219 C 0 63.230469 1.691406 61.53125 3.78125 61.53125 C 5.867188 61.53125 7.558594 63.230469 7.558594 65.324219 C 7.558594 67.417969 5.867188 69.113281 3.78125 69.113281 Z M 3.78125 62.117188 C 2.011719 62.117188 0.582031 63.550781 0.582031 65.324219 C 0.582031 67.09375 2.011719 68.53125 3.78125 68.53125 C 5.546875 68.53125 6.976562 67.09375 6.976562 65.324219 C 6.976562 63.554688 5.546875 62.117188 3.78125 62.117188 Z M 3.78125 62.117188 "/>
<path style=" stroke:none;fill-rule:nonzero;fill:rgb(94.901961%,94.901961%,94.901961%);fill-opacity:1;" d="M 58.445312 147.84375 L 55.847656 155.132812 L 50.011719 155.132812 L 50.011719 147.699219 C 50.441406 138.371094 55.660156 133.984375 55.824219 133.851562 C 51.902344 137.644531 52.339844 150.757812 52.339844 150.757812 C 54.957031 139.386719 57.28125 139.097656 57.28125 139.097656 C 55.875 141.214844 55.148438 150.859375 55.101562 151.460938 C 55.277344 149.433594 58.445312 147.84375 58.445312 147.84375 Z M 58.445312 147.84375 "/>
<path style=" stroke:none;fill-rule:nonzero;fill:rgb(94.901961%,94.901961%,94.901961%);fill-opacity:1;" d="M 239.011719 148.835938 L 239.011719 155.132812 L 234.523438 155.132812 L 232.324219 148.949219 C 232.324219 148.949219 234.832031 150.207031 234.972656 151.816406 C 234.9375 151.320312 234.363281 143.691406 233.246094 142.011719 C 233.246094 142.011719 235.089844 142.242188 237.167969 151.261719 C 237.167969 151.261719 237.511719 140.859375 234.402344 137.851562 C 234.535156 137.957031 238.671875 141.433594 239.011719 148.835938 Z M 239.011719 148.835938 "/>
<path style=" stroke:none;fill-rule:nonzero;fill:rgb(81.568627%,80.392157%,88.235294%);fill-opacity:1;" d="M 160.488281 130.636719 L 153.417969 130.636719 L 153.371094 130.058594 L 152.855469 123.574219 L 152.855469 123.570312 L 152.320312 116.832031 L 155.582031 102.929688 L 158.355469 105.710938 L 158.355469 118.957031 C 158.355469 118.957031 159.988281 121.410156 159.660156 122.066406 C 159.335938 122.71875 159.007812 122.71875 159.335938 123.210938 C 159.660156 123.703125 159.988281 124.027344 159.660156 124.355469 C 159.335938 124.792969 159.335938 125.390625 159.660156 125.828125 C 159.988281 126.15625 160.640625 126.644531 160.148438 127.136719 C 159.660156 127.625 159.007812 127.296875 159.660156 129.097656 C 159.78125 129.429688 159.929688 129.75 160.109375 130.058594 C 160.226562 130.257812 160.351562 130.453125 160.488281 130.636719 Z M 160.488281 130.636719 "/>
<path style=" stroke:none;fill-rule:nonzero;fill:rgb(100%,72.54902%,72.54902%);fill-opacity:1;" d="M 138.703125 85.835938 L 137.722656 95.648438 L 147.671875 97.121094 L 148.40625 91.480469 L 149.140625 85.835938 Z M 138.703125 85.835938 "/>
<use xlink:href="#surface8" mask="url(#mask1)"/>
<path style=" stroke:none;fill-rule:nonzero;fill:rgb(100%,72.54902%,72.54902%);fill-opacity:1;" d="M 151.992188 81.175781 C 151.992188 85.511719 148.488281 89.027344 144.164062 89.027344 C 139.839844 89.027344 136.335938 85.511719 136.335938 81.175781 C 136.335938 76.839844 139.839844 73.324219 144.164062 73.324219 C 148.488281 73.324219 151.992188 76.839844 151.992188 81.175781 Z M 151.992188 81.175781 "/>
<path style=" stroke:none;fill-rule:nonzero;fill:rgb(81.568627%,80.392157%,88.235294%);fill-opacity:1;" d="M 124.382812 130.636719 C 124.355469 130.582031 124.324219 130.519531 124.292969 130.457031 C 124.238281 130.335938 124.175781 130.203125 124.109375 130.058594 C 123.675781 129.089844 123.144531 127.710938 123.449219 127.296875 C 123.941406 126.644531 124.101562 125.992188 123.777344 125.664062 C 123.449219 125.335938 122.472656 125.992188 123.449219 125.171875 C 124.429688 124.355469 124.753906 124.84375 124.429688 123.863281 C 124.101562 122.882812 123.449219 123.375 124.101562 122.882812 C 124.753906 122.394531 125.246094 122.554688 124.917969 122.066406 C 124.59375 121.574219 123.941406 121.574219 124.59375 121.246094 C 125.246094 120.921875 125.734375 121.246094 125.570312 120.429688 C 125.40625 119.613281 125.246094 119.9375 125.570312 119.613281 C 125.65625 119.527344 125.953125 118.703125 126.347656 117.527344 C 127.457031 114.207031 129.324219 108.078125 129.324219 107.835938 C 129.324219 107.507812 126.714844 97.203125 126.714844 97.203125 L 125.570312 96.546875 C 125.570312 96.546875 120.515625 99.984375 118.886719 107.671875 C 117.253906 115.359375 116.113281 117.324219 116.113281 117.324219 C 116.113281 117.324219 114.480469 117.648438 115.621094 118.792969 C 116.765625 119.9375 116.765625 119.773438 115.785156 120.429688 C 114.808594 121.082031 114.15625 119.773438 114.808594 121.082031 C 115.460938 122.394531 116.273438 122.066406 115.621094 122.882812 C 114.96875 123.703125 113.828125 123.703125 114.480469 124.355469 C 115.132812 125.007812 113.828125 126.480469 114.644531 127.136719 C 115.460938 127.789062 115.785156 127.953125 115.785156 129.097656 C 115.785156 129.417969 115.8125 129.738281 115.863281 130.058594 C 115.890625 130.253906 115.929688 130.449219 115.984375 130.636719 C 116.019531 130.789062 116.058594 130.90625 116.082031 130.976562 Z M 124.382812 130.636719 "/>
<path style=" stroke:none;fill-rule:nonzero;fill:rgb(24.705882%,23.921569%,33.72549%);fill-opacity:1;" d="M 124.382812 130.636719 L 125.046875 130.636719 L 125.082031 130.40625 L 124.292969 130.457031 L 121.433594 130.636719 L 116.082031 130.976562 Z M 124.382812 130.636719 "/>
<path style=" stroke:none;fill-rule:nonzero;fill:rgb(81.568627%,80.392157%,88.235294%);fill-opacity:1;" d="M 127.855469 123.703125 L 126.386719 118.632812 L 126.347656 117.527344 L 125.570312 96.546875 L 135.195312 93.117188 L 136.824219 91.804688 C 136.824219 91.804688 137.152344 88.042969 137.640625 87.714844 C 137.820312 87.597656 138.101562 87.734375 138.480469 88.054688 C 139.136719 88.617188 140.085938 89.738281 141.230469 90.988281 C 143.023438 92.953125 146.777344 92.625 147.914062 91.96875 C 148.0625 91.882812 148.214844 91.808594 148.371094 91.742188 C 149.191406 91.402344 149.546875 91.644531 149.546875 91.644531 C 150.363281 92.296875 148.40625 94.425781 148.40625 94.425781 C 148.40625 94.425781 149.058594 95.894531 153.296875 97.367188 C 157.539062 98.839844 158.355469 105.710938 158.355469 105.710938 C 158.355469 105.710938 153.296875 119.449219 153.460938 120.429688 C 153.601562 121.269531 153.023438 123.070312 152.855469 123.570312 L 152.855469 123.574219 C 152.828125 123.652344 152.808594 123.703125 152.808594 123.703125 L 153.179688 130.058594 L 153.214844 130.636719 L 128.542969 130.636719 C 128.472656 130.4375 128.378906 130.242188 128.269531 130.058594 C 128.242188 130.011719 128.210938 129.964844 128.179688 129.917969 C 126.714844 127.625 127.855469 123.703125 127.855469 123.703125 Z M 127.855469 123.703125 "/>
<path style=" stroke:none;fill-rule:nonzero;fill:rgb(18.431373%,18.039216%,25.490196%);fill-opacity:1;" d="M 136.28125 82.179688 C 136.28125 82.179688 135.46875 80.957031 135.78125 79.640625 C 135.96875 78.894531 136.042969 78.121094 136 77.351562 C 136 77.351562 136.65625 75.21875 137.3125 74.027344 C 137.96875 72.835938 137.65625 72.335938 139.722656 71.957031 C 141.785156 71.582031 140.941406 68.886719 146.382812 71.800781 C 146.757812 72.328125 147.410156 72.574219 148.039062 72.429688 C 149.164062 72.210938 149.570312 73.777344 149.570312 73.777344 C 149.570312 73.777344 150.320312 73.335938 150.601562 73.964844 C 150.882812 74.59375 152.890625 73.589844 152.890625 77.820312 C 152.890625 82.054688 150.609375 85.835938 150.609375 85.835938 C 150.609375 85.835938 150.773438 78.714844 147.054688 77.996094 C 143.332031 77.273438 139.332031 75.171875 138.363281 77.867188 C 137.839844 79.382812 137.140625 80.828125 136.28125 82.179688 Z M 136.28125 82.179688 "/>
<path style=" stroke:none;fill-rule:nonzero;fill:rgb(100%,72.54902%,72.54902%);fill-opacity:1;" d="M 151.421875 82.890625 C 151.421875 82.351562 151.09375 81.910156 150.6875 81.910156 C 150.285156 81.910156 149.957031 82.351562 149.957031 82.890625 C 149.957031 83.433594 150.285156 83.875 150.6875 83.875 C 151.09375 83.875 151.421875 83.433594 151.421875 82.890625 Z M 151.421875 82.890625 "/>
<path style=" stroke:none;fill-rule:nonzero;fill:rgb(100%,100%,100%);fill-opacity:1;" d="M 84.613281 62.988281 L 84.613281 130.636719 L 191.617188 130.636719 L 191.617188 62.988281 Z M 191.035156 130.058594 L 85.195312 130.058594 L 85.195312 63.574219 L 191.035156 63.574219 Z M 191.035156 130.058594 "/>
</g>
</svg>
