<?xml version="1.0" encoding="UTF-8"?>
<svg xmlns="http://www.w3.org/2000/svg" xmlns:xlink="http://www.w3.org/1999/xlink" width="51pt" height="35pt" viewBox="0 0 51 35" version="1.1">
<g id="surface1">
<path style=" stroke:none;fill-rule:nonzero;fill:rgb(94.117647%,94.117647%,94.117647%);fill-opacity:1;" d="M 18.6875 33.507812 C 16.652344 32.558594 14.980469 30.558594 14.933594 28.292969 C 16.859375 29.800781 19.253906 30.570312 21.6875 30.464844 C 22.625 30.417969 23.664062 30.273438 24.417969 30.839844 C 24.886719 31.191406 25.148438 31.773438 25.242188 32.355469 C 25.335938 32.941406 25.28125 33.535156 25.226562 34.125 L 25.28125 34.261719 C 23.054688 34.507812 20.722656 34.453125 18.6875 33.507812 Z M 18.6875 33.507812 "/>
<path style=" stroke:none;fill-rule:nonzero;fill:rgb(100%,100%,100%);fill-opacity:1;" d="M 14.980469 28.285156 C 15.925781 29.898438 17.347656 31.171875 19.046875 31.921875 C 19.410156 32.089844 19.796875 32.199219 20.195312 32.246094 C 20.582031 32.277344 20.972656 32.203125 21.320312 32.03125 C 21.648438 31.878906 21.96875 31.683594 22.332031 31.613281 C 22.707031 31.546875 23.089844 31.644531 23.386719 31.886719 C 23.761719 32.167969 24.015625 32.574219 24.246094 32.976562 C 24.507812 33.425781 24.765625 33.894531 25.203125 34.1875 C 25.257812 34.226562 25.199219 34.304688 25.144531 34.269531 C 24.386719 33.757812 24.171875 32.78125 23.539062 32.148438 C 23.246094 31.851562 22.863281 31.644531 22.4375 31.699219 C 22.066406 31.742188 21.738281 31.945312 21.402344 32.101562 C 21.066406 32.273438 20.691406 32.359375 20.308594 32.351562 C 19.914062 32.328125 19.523438 32.234375 19.15625 32.074219 C 18.324219 31.734375 17.550781 31.261719 16.867188 30.675781 C 16.082031 30.011719 15.410156 29.21875 14.890625 28.328125 C 14.859375 28.269531 14.949219 28.230469 14.980469 28.285156 Z M 14.980469 28.285156 "/>
<path style=" stroke:none;fill-rule:nonzero;fill:rgb(100%,100%,100%);fill-opacity:1;" d="M 18.488281 31.714844 C 18.148438 32.273438 17.460938 32.503906 16.859375 32.261719 C 16.800781 32.234375 16.835938 32.140625 16.894531 32.167969 C 17.453125 32.398438 18.09375 32.179688 18.40625 31.65625 C 18.4375 31.597656 18.519531 31.660156 18.488281 31.714844 Z M 18.488281 31.714844 "/>
<path style=" stroke:none;fill-rule:nonzero;fill:rgb(100%,100%,100%);fill-opacity:1;" d="M 21.164062 32.132812 C 21.015625 31.5 20.640625 30.945312 20.109375 30.582031 C 20.054688 30.546875 20.113281 30.464844 20.167969 30.503906 C 20.71875 30.882812 21.109375 31.457031 21.261719 32.117188 C 21.277344 32.179688 21.179688 32.195312 21.164062 32.132812 Z M 21.164062 32.132812 "/>
<path style=" stroke:none;fill-rule:nonzero;fill:rgb(100%,100%,100%);fill-opacity:1;" d="M 16.199219 29.953125 C 16.367188 29.765625 16.4375 29.503906 16.378906 29.257812 C 16.363281 29.195312 16.460938 29.179688 16.476562 29.242188 C 16.539062 29.515625 16.464844 29.804688 16.277344 30.011719 C 16.261719 30.03125 16.230469 30.039062 16.207031 30.023438 C 16.1875 30.007812 16.179688 29.976562 16.199219 29.953125 Z M 16.199219 29.953125 "/>
<path style=" stroke:none;fill-rule:nonzero;fill:rgb(94.117647%,94.117647%,94.117647%);fill-opacity:1;" d="M 20.675781 23.28125 C 20.683594 23.316406 20.695312 23.355469 20.707031 23.394531 C 20.851562 23.914062 21.039062 24.421875 21.261719 24.914062 C 21.28125 24.953125 21.296875 24.992188 21.316406 25.027344 C 21.871094 26.203125 22.640625 27.261719 23.578125 28.152344 C 23.953125 28.507812 24.351562 28.832031 24.773438 29.125 C 25.359375 29.53125 26.023438 29.921875 26.429688 30.480469 C 26.472656 30.539062 26.511719 30.601562 26.546875 30.660156 L 25.441406 34.183594 C 25.433594 34.191406 25.429688 34.199219 25.421875 34.203125 L 25.382812 34.347656 C 25.359375 34.332031 25.335938 34.320312 25.316406 34.304688 C 25.300781 34.296875 25.289062 34.289062 25.277344 34.28125 C 25.265625 34.277344 25.257812 34.269531 25.25 34.265625 C 25.246094 34.261719 25.242188 34.261719 25.242188 34.261719 C 25.234375 34.253906 25.226562 34.25 25.21875 34.246094 C 25.085938 34.164062 24.957031 34.082031 24.828125 34 C 24.824219 34 24.824219 34 24.824219 34 C 23.832031 33.363281 22.886719 32.636719 22.078125 31.789062 C 22.054688 31.761719 22.027344 31.738281 22.003906 31.710938 C 21.640625 31.324219 21.3125 30.910156 21.015625 30.472656 C 20.851562 30.230469 20.703125 29.984375 20.566406 29.726562 C 20.21875 29.066406 19.972656 28.351562 19.839844 27.609375 C 19.578125 26.136719 19.785156 24.59375 20.609375 23.371094 C 20.628906 23.339844 20.652344 23.308594 20.675781 23.28125 Z M 20.675781 23.28125 "/>
<path style=" stroke:none;fill-rule:nonzero;fill:rgb(100%,100%,100%);fill-opacity:1;" d="M 20.714844 23.300781 C 20.507812 25.164062 20.886719 27.046875 21.800781 28.683594 C 21.988281 29.035156 22.234375 29.359375 22.523438 29.636719 C 22.8125 29.898438 23.167969 30.078125 23.550781 30.15625 C 23.902344 30.234375 24.277344 30.273438 24.605469 30.4375 C 24.945312 30.613281 25.191406 30.925781 25.289062 31.296875 C 25.417969 31.753906 25.378906 32.226562 25.324219 32.691406 C 25.265625 33.207031 25.195312 33.742188 25.367188 34.242188 C 25.386719 34.304688 25.292969 34.332031 25.273438 34.273438 C 24.972656 33.398438 25.378906 32.488281 25.25 31.601562 C 25.191406 31.183594 25.011719 30.785156 24.640625 30.570312 C 24.316406 30.378906 23.933594 30.339844 23.574219 30.261719 C 23.203125 30.195312 22.847656 30.03125 22.550781 29.792969 C 22.25 29.53125 21.992188 29.21875 21.792969 28.871094 C 21.335938 28.089844 21 27.242188 20.800781 26.359375 C 20.566406 25.347656 20.503906 24.308594 20.621094 23.277344 C 20.625 23.214844 20.722656 23.238281 20.714844 23.300781 Z M 20.714844 23.300781 "/>
<path style=" stroke:none;fill-rule:nonzero;fill:rgb(100%,100%,100%);fill-opacity:1;" d="M 21.476562 28.171875 C 20.875 28.417969 20.1875 28.179688 19.851562 27.621094 C 19.820312 27.5625 19.902344 27.511719 19.9375 27.566406 C 20.246094 28.089844 20.886719 28.308594 21.445312 28.078125 C 21.503906 28.054688 21.535156 28.148438 21.476562 28.171875 Z M 21.476562 28.171875 "/>
<path style=" stroke:none;fill-rule:nonzero;fill:rgb(100%,100%,100%);fill-opacity:1;" d="M 23.363281 30.140625 C 23.625 29.542969 23.652344 28.875 23.445312 28.257812 C 23.421875 28.199219 23.515625 28.167969 23.539062 28.230469 C 23.753906 28.871094 23.722656 29.570312 23.453125 30.1875 C 23.425781 30.246094 23.339844 30.199219 23.363281 30.140625 Z M 23.363281 30.140625 "/>
<path style=" stroke:none;fill-rule:nonzero;fill:rgb(100%,100%,100%);fill-opacity:1;" d="M 20.695312 25.371094 C 20.945312 25.328125 21.152344 25.160156 21.253906 24.925781 C 21.277344 24.871094 21.367188 24.914062 21.339844 24.976562 C 21.230469 25.234375 21 25.417969 20.726562 25.46875 C 20.699219 25.476562 20.671875 25.460938 20.664062 25.433594 C 20.65625 25.410156 20.671875 25.382812 20.695312 25.371094 Z M 20.695312 25.371094 "/>
<path style=" stroke:none;fill-rule:nonzero;fill:rgb(94.117647%,94.117647%,94.117647%);fill-opacity:1;" d="M 47.128906 33.339844 C 46.921875 33.777344 46.644531 34.175781 46.3125 34.527344 C 46.238281 34.605469 46.164062 34.683594 46.085938 34.757812 C 46.03125 34.808594 45.972656 34.855469 45.917969 34.90625 L 42.0625 34.90625 C 42.066406 34.855469 42.070312 34.804688 42.078125 34.757812 C 42.105469 34.59375 42.160156 34.4375 42.242188 34.300781 C 42.5625 33.777344 43.222656 33.617188 43.796875 33.417969 C 43.933594 33.371094 44.070312 33.320312 44.203125 33.261719 C 44.375 33.1875 44.542969 33.109375 44.710938 33.019531 C 45.445312 32.628906 46.105469 32.105469 46.652344 31.472656 C 46.667969 31.449219 46.6875 31.429688 46.703125 31.410156 C 46.925781 31.144531 47.128906 30.859375 47.308594 30.558594 C 47.324219 30.539062 47.335938 30.515625 47.347656 30.492188 C 47.355469 30.515625 47.367188 30.539062 47.375 30.5625 C 47.679688 31.46875 47.542969 32.464844 47.128906 33.339844 Z M 47.128906 33.339844 "/>
<path style=" stroke:none;fill-rule:nonzero;fill:rgb(100%,100%,100%);fill-opacity:1;" d="M 47.382812 30.503906 C 47.378906 30.523438 47.378906 30.542969 47.375 30.5625 C 47.300781 31 47.175781 31.429688 47.007812 31.835938 C 46.929688 32.027344 46.84375 32.210938 46.746094 32.390625 C 46.558594 32.738281 46.335938 33.066406 46.082031 33.371094 C 46.066406 33.386719 46.050781 33.402344 46.039062 33.421875 C 45.929688 33.546875 45.816406 33.664062 45.695312 33.78125 C 45.511719 33.960938 45.300781 34.113281 45.066406 34.222656 C 44.878906 34.304688 44.671875 34.34375 44.46875 34.339844 C 44.429688 34.339844 44.390625 34.335938 44.351562 34.335938 C 44.191406 34.324219 44.03125 34.304688 43.871094 34.308594 C 43.792969 34.308594 43.710938 34.320312 43.636719 34.339844 C 43.417969 34.402344 43.238281 34.554688 43.136719 34.757812 C 43.117188 34.796875 43.09375 34.835938 43.078125 34.875 C 43.074219 34.886719 43.070312 34.898438 43.066406 34.90625 L 42.996094 34.90625 C 43.015625 34.855469 43.039062 34.804688 43.0625 34.757812 C 43.078125 34.730469 43.09375 34.707031 43.105469 34.679688 C 43.230469 34.464844 43.4375 34.3125 43.679688 34.261719 C 43.75 34.25 43.824219 34.242188 43.898438 34.246094 C 44.058594 34.242188 44.222656 34.265625 44.386719 34.273438 C 44.402344 34.273438 44.417969 34.277344 44.433594 34.277344 C 44.457031 34.277344 44.476562 34.277344 44.5 34.277344 C 44.710938 34.277344 44.921875 34.226562 45.113281 34.132812 C 45.339844 34.007812 45.546875 33.851562 45.726562 33.660156 C 45.824219 33.566406 45.917969 33.464844 46.003906 33.359375 C 46.007812 33.355469 46.011719 33.351562 46.015625 33.347656 C 46.398438 32.898438 46.707031 32.390625 46.9375 31.84375 C 46.945312 31.824219 46.953125 31.804688 46.960938 31.785156 C 47.121094 31.390625 47.238281 30.980469 47.308594 30.558594 C 47.3125 30.539062 47.316406 30.519531 47.320312 30.5 C 47.324219 30.460938 47.390625 30.460938 47.382812 30.503906 Z M 47.382812 30.503906 "/>
<path style=" stroke:none;fill-rule:nonzero;fill:rgb(100%,100%,100%);fill-opacity:1;" d="M 46.015625 33.402344 C 46.347656 33.65625 46.816406 33.632812 47.121094 33.339844 C 47.148438 33.3125 47.105469 33.265625 47.078125 33.292969 C 46.792969 33.566406 46.359375 33.589844 46.046875 33.347656 C 46.015625 33.320312 45.980469 33.375 46.015625 33.402344 Z M 46.015625 33.402344 "/>
<path style=" stroke:none;fill-rule:nonzero;fill:rgb(100%,100%,100%);fill-opacity:1;" d="M 44.5 34.296875 C 44.441406 33.878906 44.539062 33.457031 44.773438 33.113281 C 44.796875 33.078125 44.742188 33.042969 44.71875 33.078125 C 44.476562 33.4375 44.375 33.878906 44.441406 34.308594 C 44.445312 34.351562 44.507812 34.335938 44.5 34.296875 Z M 44.5 34.296875 "/>
<path style=" stroke:none;fill-rule:nonzero;fill:rgb(100%,100%,100%);fill-opacity:1;" d="M 46.976562 31.796875 C 46.832031 31.722656 46.730469 31.582031 46.707031 31.417969 C 46.703125 31.378906 46.640625 31.394531 46.644531 31.433594 C 46.671875 31.613281 46.78125 31.769531 46.945312 31.847656 C 46.957031 31.859375 46.976562 31.851562 46.988281 31.839844 C 46.996094 31.824219 46.992188 31.804688 46.976562 31.796875 Z M 46.976562 31.796875 "/>
<path style=" stroke:none;fill-rule:nonzero;fill:rgb(94.117647%,94.117647%,94.117647%);fill-opacity:1;" d="M 44.296875 32.707031 C 44.273438 32.894531 44.242188 33.078125 44.203125 33.261719 C 44.128906 33.597656 44.027344 33.925781 43.898438 34.242188 L 43.898438 34.246094 C 43.890625 34.265625 43.882812 34.289062 43.871094 34.308594 C 43.808594 34.460938 43.742188 34.609375 43.671875 34.757812 C 43.648438 34.808594 43.625 34.855469 43.597656 34.90625 L 41.085938 34.90625 L 40.964844 34.757812 L 40.921875 34.703125 C 40.929688 34.65625 40.9375 34.609375 40.949219 34.566406 C 41.0625 34.132812 41.371094 33.738281 41.628906 33.355469 C 41.8125 33.078125 41.976562 32.785156 42.117188 32.484375 C 42.476562 31.722656 42.6875 30.902344 42.746094 30.0625 C 42.75 30.035156 42.75 30.007812 42.75 29.980469 C 42.773438 29.628906 42.765625 29.28125 42.730469 28.933594 L 42.730469 28.929688 C 42.730469 28.90625 42.726562 28.878906 42.722656 28.855469 C 42.742188 28.867188 42.761719 28.882812 42.78125 28.894531 L 42.785156 28.894531 C 43.5625 29.429688 44.050781 30.304688 44.238281 31.253906 C 44.238281 31.253906 44.238281 31.257812 44.238281 31.257812 C 44.335938 31.734375 44.351562 32.226562 44.296875 32.707031 Z M 44.296875 32.707031 "/>
<path style=" stroke:none;fill-rule:nonzero;fill:rgb(100%,100%,100%);fill-opacity:1;" d="M 43.421875 31.925781 C 43.421875 31.945312 43.421875 31.96875 43.417969 31.988281 C 43.40625 32.15625 43.386719 32.324219 43.359375 32.488281 C 43.320312 32.742188 43.242188 32.992188 43.121094 33.222656 C 43.019531 33.402344 42.878906 33.558594 42.710938 33.683594 C 42.679688 33.707031 42.648438 33.726562 42.617188 33.75 C 42.417969 33.882812 42.195312 33.996094 42.046875 34.191406 C 41.925781 34.351562 41.867188 34.554688 41.890625 34.757812 C 41.890625 34.808594 41.898438 34.855469 41.910156 34.90625 L 41.84375 34.90625 C 41.835938 34.867188 41.828125 34.824219 41.824219 34.785156 C 41.824219 34.773438 41.824219 34.765625 41.824219 34.757812 C 41.800781 34.515625 41.878906 34.28125 42.035156 34.101562 C 42.195312 33.921875 42.410156 33.8125 42.605469 33.679688 C 42.621094 33.667969 42.632812 33.660156 42.648438 33.648438 C 42.664062 33.636719 42.679688 33.625 42.699219 33.609375 C 42.867188 33.480469 43.007812 33.3125 43.101562 33.121094 C 43.210938 32.886719 43.28125 32.632812 43.3125 32.375 C 43.332031 32.238281 43.347656 32.101562 43.355469 31.960938 C 43.355469 31.957031 43.355469 31.949219 43.355469 31.945312 L 43.355469 31.941406 C 43.394531 31.351562 43.339844 30.757812 43.199219 30.183594 C 43.191406 30.164062 43.1875 30.144531 43.179688 30.121094 C 43.074219 29.710938 42.925781 29.3125 42.730469 28.933594 L 42.730469 28.929688 C 42.722656 28.914062 42.714844 28.898438 42.703125 28.878906 C 42.683594 28.84375 42.738281 28.804688 42.753906 28.839844 C 42.765625 28.859375 42.773438 28.875 42.78125 28.894531 C 42.988281 29.292969 43.144531 29.710938 43.25 30.144531 C 43.300781 30.339844 43.339844 30.539062 43.367188 30.738281 C 43.425781 31.128906 43.445312 31.527344 43.421875 31.925781 Z M 43.421875 31.925781 "/>
<path style=" stroke:none;fill-rule:nonzero;fill:rgb(100%,100%,100%);fill-opacity:1;" d="M 43.386719 31.992188 C 43.804688 31.992188 44.164062 31.6875 44.234375 31.265625 C 44.242188 31.226562 44.179688 31.214844 44.171875 31.253906 C 44.109375 31.644531 43.773438 31.929688 43.382812 31.925781 C 43.34375 31.925781 43.347656 31.988281 43.386719 31.992188 Z M 43.386719 31.992188 "/>
<path style=" stroke:none;fill-rule:nonzero;fill:rgb(100%,100%,100%);fill-opacity:1;" d="M 42.710938 33.625 C 42.417969 33.332031 42.242188 32.933594 42.222656 32.515625 C 42.222656 32.472656 42.160156 32.476562 42.160156 32.519531 C 42.179688 32.957031 42.363281 33.367188 42.671875 33.675781 C 42.699219 33.703125 42.742188 33.652344 42.710938 33.625 Z M 42.710938 33.625 "/>
<path style=" stroke:none;fill-rule:nonzero;fill:rgb(100%,100%,100%);fill-opacity:1;" d="M 43.199219 30.121094 C 43.042969 30.152344 42.875 30.101562 42.761719 29.984375 C 42.730469 29.957031 42.691406 30.003906 42.71875 30.035156 C 42.847656 30.164062 43.027344 30.21875 43.207031 30.183594 C 43.222656 30.183594 43.234375 30.167969 43.234375 30.148438 C 43.234375 30.132812 43.21875 30.117188 43.199219 30.121094 Z M 43.199219 30.121094 "/>
<path style=" stroke:none;fill-rule:nonzero;fill:rgb(94.117647%,94.117647%,94.117647%);fill-opacity:1;" d="M 0.261719 7.445312 C 0.320312 5.179688 1.480469 2.839844 3.523438 1.90625 C 2.910156 4.289062 3.152344 6.816406 4.207031 9.039062 C 4.613281 9.894531 5.15625 10.804688 4.9375 11.730469 C 4.800781 12.304688 4.378906 12.773438 3.886719 13.09375 C 3.390625 13.410156 2.828125 13.59375 2.273438 13.773438 L 2.167969 13.878906 C 1.070312 11.902344 0.199219 9.710938 0.261719 7.445312 Z M 0.261719 7.445312 "/>
<path style=" stroke:none;fill-rule:nonzero;fill:rgb(100%,100%,100%);fill-opacity:1;" d="M 3.546875 1.945312 C 2.449219 3.457031 1.855469 5.28125 1.84375 7.160156 C 1.832031 7.5625 1.886719 7.964844 2 8.351562 C 2.125 8.726562 2.34375 9.058594 2.636719 9.316406 C 2.90625 9.5625 3.210938 9.785156 3.414062 10.09375 C 3.621094 10.414062 3.683594 10.8125 3.585938 11.183594 C 3.472656 11.644531 3.207031 12.035156 2.929688 12.410156 C 2.625 12.828125 2.300781 13.253906 2.203125 13.777344 C 2.191406 13.839844 2.097656 13.816406 2.109375 13.753906 C 2.277344 12.847656 3.078125 12.261719 3.402344 11.425781 C 3.558594 11.039062 3.59375 10.601562 3.378906 10.226562 C 3.191406 9.898438 2.878906 9.671875 2.605469 9.421875 C 2.316406 9.175781 2.089844 8.859375 1.949219 8.503906 C 1.816406 8.125 1.746094 7.722656 1.746094 7.320312 C 1.730469 6.414062 1.855469 5.507812 2.117188 4.640625 C 2.410156 3.648438 2.871094 2.710938 3.472656 1.875 C 3.511719 1.824219 3.585938 1.894531 3.546875 1.945312 Z M 3.546875 1.945312 "/>
<path style=" stroke:none;fill-rule:nonzero;fill:rgb(100%,100%,100%);fill-opacity:1;" d="M 1.8125 6.554688 C 1.171875 6.460938 0.6875 5.914062 0.675781 5.257812 C 0.675781 5.191406 0.773438 5.1875 0.773438 5.253906 C 0.785156 5.863281 1.234375 6.375 1.832031 6.457031 C 1.898438 6.464844 1.875 6.5625 1.8125 6.554688 Z M 1.8125 6.554688 "/>
<path style=" stroke:none;fill-rule:nonzero;fill:rgb(100%,100%,100%);fill-opacity:1;" d="M 2.484375 9.210938 C 3.003906 8.824219 3.355469 8.257812 3.476562 7.621094 C 3.488281 7.554688 3.585938 7.578125 3.574219 7.640625 C 3.445312 8.304688 3.078125 8.894531 2.539062 9.292969 C 2.484375 9.332031 2.433594 9.25 2.484375 9.210938 Z M 2.484375 9.210938 "/>
<path style=" stroke:none;fill-rule:nonzero;fill:rgb(100%,100%,100%);fill-opacity:1;" d="M 2.511719 3.730469 C 2.75 3.820312 3.011719 3.78125 3.214844 3.625 C 3.265625 3.585938 3.316406 3.671875 3.265625 3.710938 C 3.042969 3.878906 2.753906 3.921875 2.488281 3.828125 C 2.460938 3.824219 2.445312 3.796875 2.453125 3.769531 C 2.457031 3.742188 2.484375 3.726562 2.511719 3.730469 Z M 2.511719 3.730469 "/>
<path style=" stroke:none;fill-rule:nonzero;fill:rgb(94.117647%,94.117647%,94.117647%);fill-opacity:1;" d="M 10.335938 5.273438 C 10.304688 5.296875 10.273438 5.324219 10.242188 5.347656 C 9.828125 5.6875 9.4375 6.058594 9.082031 6.464844 C 9.054688 6.496094 9.027344 6.527344 9 6.558594 C 8.148438 7.539062 7.488281 8.667969 7.050781 9.890625 C 6.875 10.378906 6.738281 10.878906 6.636719 11.386719 C 6.5 12.089844 6.40625 12.863281 6.054688 13.457031 C 6.019531 13.523438 5.980469 13.582031 5.9375 13.640625 L 2.304688 13.996094 C 2.292969 13.992188 2.285156 13.988281 2.277344 13.988281 L 2.132812 14.007812 C 2.136719 13.980469 2.140625 13.953125 2.144531 13.925781 C 2.144531 13.910156 2.148438 13.894531 2.148438 13.882812 C 2.152344 13.871094 2.152344 13.859375 2.152344 13.851562 C 2.152344 13.847656 2.15625 13.84375 2.15625 13.839844 C 2.15625 13.832031 2.15625 13.824219 2.160156 13.816406 C 2.179688 13.660156 2.203125 13.507812 2.226562 13.351562 C 2.417969 12.179688 2.703125 11.011719 3.15625 9.925781 C 3.167969 9.890625 3.183594 9.859375 3.199219 9.824219 C 3.40625 9.335938 3.652344 8.867188 3.933594 8.417969 C 4.089844 8.175781 4.257812 7.9375 4.433594 7.710938 C 4.898438 7.125 5.449219 6.613281 6.070312 6.199219 C 7.308594 5.375 8.792969 4.960938 10.226562 5.25 C 10.261719 5.257812 10.300781 5.265625 10.335938 5.273438 Z M 10.335938 5.273438 "/>
<path style=" stroke:none;fill-rule:nonzero;fill:rgb(100%,100%,100%);fill-opacity:1;" d="M 10.332031 5.320312 C 8.558594 5.859375 6.996094 6.953125 5.871094 8.445312 C 5.621094 8.761719 5.425781 9.113281 5.285156 9.496094 C 5.160156 9.867188 5.140625 10.265625 5.21875 10.652344 C 5.289062 11.011719 5.398438 11.375 5.378906 11.746094 C 5.351562 12.128906 5.167969 12.484375 4.867188 12.71875 C 4.503906 13.019531 4.054688 13.171875 3.613281 13.300781 C 3.121094 13.449219 2.609375 13.59375 2.21875 13.949219 C 2.171875 13.992188 2.109375 13.917969 2.15625 13.875 C 2.832031 13.25 3.816406 13.269531 4.574219 12.804688 C 4.929688 12.585938 5.21875 12.257812 5.273438 11.828125 C 5.316406 11.453125 5.203125 11.082031 5.132812 10.71875 C 5.046875 10.34375 5.054688 9.953125 5.152344 9.582031 C 5.273438 9.199219 5.457031 8.835938 5.695312 8.515625 C 6.222656 7.78125 6.863281 7.132812 7.585938 6.601562 C 8.410156 5.988281 9.335938 5.519531 10.316406 5.222656 C 10.375 5.203125 10.390625 5.300781 10.332031 5.320312 Z M 10.332031 5.320312 "/>
<path style=" stroke:none;fill-rule:nonzero;fill:rgb(100%,100%,100%);fill-opacity:1;" d="M 6.203125 7.941406 C 5.746094 7.476562 5.6875 6.746094 6.070312 6.214844 C 6.105469 6.164062 6.1875 6.21875 6.152344 6.269531 C 5.796875 6.765625 5.851562 7.449219 6.28125 7.878906 C 6.324219 7.925781 6.25 7.988281 6.203125 7.941406 Z M 6.203125 7.941406 "/>
<path style=" stroke:none;fill-rule:nonzero;fill:rgb(100%,100%,100%);fill-opacity:1;" d="M 5.160156 10.472656 C 5.804688 10.480469 6.421875 10.242188 6.898438 9.808594 C 6.945312 9.765625 7.011719 9.839844 6.964844 9.882812 C 6.46875 10.335938 5.820312 10.582031 5.152344 10.574219 C 5.089844 10.574219 5.097656 10.472656 5.160156 10.472656 Z M 5.160156 10.472656 "/>
<path style=" stroke:none;fill-rule:nonzero;fill:rgb(100%,100%,100%);fill-opacity:1;" d="M 8.441406 6.117188 C 8.578125 6.328125 8.8125 6.457031 9.066406 6.460938 C 9.128906 6.460938 9.121094 6.558594 9.058594 6.558594 C 8.78125 6.558594 8.519531 6.414062 8.367188 6.179688 C 8.347656 6.160156 8.351562 6.128906 8.371094 6.109375 C 8.390625 6.09375 8.421875 6.09375 8.441406 6.117188 Z M 8.441406 6.117188 "/>
<path style=" stroke:none;fill-rule:nonzero;fill:rgb(100%,100%,100%);fill-opacity:1;" d="M 36.152344 34.78125 L 25.761719 34.78125 C 24.550781 34.78125 23.574219 33.789062 23.570312 32.566406 L 23.570312 16.351562 C 23.574219 15.128906 24.550781 14.136719 25.761719 14.132812 L 36.152344 14.132812 C 37.363281 14.136719 38.339844 15.128906 38.34375 16.351562 L 38.34375 32.566406 C 38.339844 33.789062 37.363281 34.78125 36.152344 34.78125 Z M 36.152344 34.78125 "/>
<path style=" stroke:none;fill-rule:nonzero;fill:rgb(42.352941%,38.823529%,100%);fill-opacity:1;" d="M 35.027344 33.171875 L 26.886719 33.171875 C 25.695312 33.171875 24.730469 32.191406 24.730469 30.988281 L 24.730469 17.929688 C 24.730469 16.722656 25.695312 15.746094 26.886719 15.746094 L 35.027344 15.746094 C 36.21875 15.746094 37.183594 16.722656 37.183594 17.929688 L 37.183594 30.988281 C 37.183594 32.191406 36.21875 33.171875 35.027344 33.171875 Z M 35.027344 33.171875 "/>
<path style=" stroke:none;fill-rule:nonzero;fill:rgb(24.705882%,23.921569%,33.72549%);fill-opacity:1;" d="M 23.664062 28.417969 L 38.308594 28.417969 L 38.308594 31.839844 L 23.664062 31.839844 Z M 23.664062 28.417969 "/>
<path style=" stroke:none;fill-rule:nonzero;fill:rgb(100%,100%,100%);fill-opacity:1;" d="M 2.898438 20.210938 L 0.417969 16.980469 C -0.253906 16.105469 -0.0976562 14.84375 0.765625 14.164062 L 10.8125 6.257812 C 11.398438 5.792969 12.109375 5.515625 12.851562 5.457031 L 13.699219 5.390625 L 20.996094 1.066406 C 20.863281 0.773438 20.96875 0.429688 21.238281 0.261719 C 21.511719 0.09375 21.863281 0.160156 22.058594 0.414062 L 24.132812 3.113281 C 24.328125 3.367188 24.304688 3.730469 24.074219 3.957031 C 23.847656 4.179688 23.488281 4.199219 23.242188 3.992188 L 17.273438 10.03125 C 17.148438 11.039062 16.632812 11.949219 15.839844 12.570312 L 5.683594 20.5625 C 4.820312 21.242188 3.570312 21.085938 2.898438 20.210938 Z M 2.898438 20.210938 "/>
<path style=" stroke:none;fill-rule:nonzero;fill:rgb(24.705882%,23.921569%,33.72549%);fill-opacity:1;" d="M 36.152344 34.78125 L 25.761719 34.78125 C 24.550781 34.78125 23.574219 33.789062 23.570312 32.566406 L 23.570312 16.351562 C 23.574219 15.128906 24.550781 14.136719 25.761719 14.132812 L 36.152344 14.132812 C 37.363281 14.136719 38.339844 15.128906 38.34375 16.351562 L 38.34375 32.566406 C 38.339844 33.789062 37.363281 34.78125 36.152344 34.78125 Z M 25.761719 14.261719 C 24.621094 14.261719 23.699219 15.195312 23.695312 16.351562 L 23.695312 32.566406 C 23.699219 33.71875 24.621094 34.652344 25.761719 34.65625 L 36.152344 34.65625 C 37.292969 34.652344 38.214844 33.71875 38.21875 32.566406 L 38.21875 16.351562 C 38.214844 15.195312 37.292969 14.261719 36.152344 14.261719 Z M 25.761719 14.261719 "/>
<path style=" stroke:none;fill-rule:nonzero;fill:rgb(42.352941%,38.823529%,100%);fill-opacity:1;" d="M 23.898438 0.773438 C 25.042969 0.300781 26.339844 0.421875 27.375 1.101562 C 28.421875 1.785156 29.203125 3.011719 29.464844 4.386719 C 29.59375 5.0625 29.640625 5.847656 30.105469 6.265625 C 30.445312 6.574219 30.910156 6.582031 31.320312 6.730469 C 32.535156 7.167969 33.164062 8.875 32.988281 10.355469 C 32.808594 11.839844 32.023438 13.113281 31.175781 14.230469 C 31.445312 13.632812 31.097656 12.851562 30.585938 12.539062 C 30.074219 12.222656 29.464844 12.25 28.890625 12.300781 C 28.316406 12.355469 27.71875 12.417969 27.183594 12.167969 C 26.265625 11.742188 25.800781 10.503906 25.734375 9.347656 C 25.664062 8.191406 25.890625 7.039062 25.910156 5.878906 C 25.925781 4.71875 25.671875 3.449219 24.878906 2.761719 C 24.515625 2.441406 24.066406 2.273438 23.726562 1.917969 C 23.386719 1.5625 23.207031 0.890625 23.523438 0.507812 "/>
<path style=" stroke:none;fill-rule:nonzero;fill:rgb(94.117647%,94.117647%,94.117647%);fill-opacity:1;" d="M 36.621094 13.597656 C 36.585938 13.597656 36.554688 13.601562 36.523438 13.601562 C 36.75 12.949219 36.570312 12.222656 36.0625 11.757812 C 35.554688 11.296875 34.820312 11.1875 34.203125 11.484375 C 33.933594 10.710938 33.351562 10.179688 32.675781 10.179688 C 32 10.179688 31.421875 10.710938 31.148438 11.484375 C 30.691406 11.261719 30.15625 11.261719 29.699219 11.484375 C 29.425781 10.710938 28.84375 10.179688 28.171875 10.179688 C 27.496094 10.179688 26.914062 10.710938 26.640625 11.484375 C 26.023438 11.1875 25.292969 11.296875 24.785156 11.757812 C 24.277344 12.222656 24.09375 12.949219 24.324219 13.601562 C 24.292969 13.601562 24.257812 13.597656 24.226562 13.597656 C 23.292969 13.597656 22.535156 14.621094 22.535156 15.878906 C 22.535156 17.136719 23.292969 18.160156 24.226562 18.160156 C 24.996094 18.160156 25.644531 17.464844 25.847656 16.519531 C 26.355469 17.03125 27.121094 17.164062 27.769531 16.855469 C 28.039062 17.625 28.621094 18.160156 29.296875 18.160156 C 30.066406 18.160156 30.714844 17.464844 30.917969 16.519531 C 31.425781 17.03125 32.191406 17.164062 32.839844 16.855469 C 33.109375 17.625 33.691406 18.160156 34.367188 18.160156 C 35.042969 18.160156 35.625 17.625 35.894531 16.855469 C 36.519531 17.15625 37.265625 17.039062 37.773438 16.558594 C 38.28125 16.078125 38.445312 15.335938 38.191406 14.679688 C 37.9375 14.027344 37.3125 13.597656 36.621094 13.597656 Z M 36.621094 13.597656 "/>
<path style=" stroke:none;fill-rule:nonzero;fill:rgb(100%,100%,100%);fill-opacity:1;" d="M 27.921875 18.160156 C 27.921875 18.332031 27.78125 18.476562 27.605469 18.476562 C 27.433594 18.476562 27.292969 18.332031 27.292969 18.160156 C 27.292969 17.984375 27.433594 17.839844 27.605469 17.839844 C 27.78125 17.839844 27.921875 17.984375 27.921875 18.160156 Z M 27.921875 18.160156 "/>
<path style=" stroke:none;fill-rule:nonzero;fill:rgb(100%,100%,100%);fill-opacity:1;" d="M 29.859375 23.542969 C 29.859375 23.71875 29.71875 23.859375 29.546875 23.859375 C 29.375 23.859375 29.234375 23.71875 29.234375 23.542969 C 29.234375 23.367188 29.375 23.226562 29.546875 23.226562 C 29.71875 23.226562 29.859375 23.367188 29.859375 23.542969 Z M 29.859375 23.542969 "/>
<path style=" stroke:none;fill-rule:nonzero;fill:rgb(100%,100%,100%);fill-opacity:1;" d="M 31.863281 19.867188 C 31.863281 20.042969 31.722656 20.1875 31.550781 20.1875 C 31.378906 20.1875 31.238281 20.042969 31.238281 19.867188 C 31.238281 19.695312 31.378906 19.550781 31.550781 19.550781 C 31.722656 19.550781 31.863281 19.695312 31.863281 19.867188 Z M 31.863281 19.867188 "/>
<path style=" stroke:none;fill-rule:nonzero;fill:rgb(100%,100%,100%);fill-opacity:1;" d="M 29.609375 21.007812 C 29.609375 21.183594 29.46875 21.324219 29.296875 21.324219 C 29.125 21.324219 28.984375 21.183594 28.984375 21.007812 C 28.984375 20.832031 29.125 20.691406 29.296875 20.691406 C 29.46875 20.691406 29.609375 20.832031 29.609375 21.007812 Z M 29.609375 21.007812 "/>
<path style=" stroke:none;fill-rule:nonzero;fill:rgb(100%,100%,100%);fill-opacity:1;" d="M 33.554688 24.429688 C 33.554688 24.605469 33.414062 24.746094 33.238281 24.746094 C 33.066406 24.746094 32.925781 24.605469 32.925781 24.429688 C 32.925781 24.253906 33.066406 24.113281 33.238281 24.113281 C 33.414062 24.113281 33.554688 24.253906 33.554688 24.429688 Z M 33.554688 24.429688 "/>
<path style=" stroke:none;fill-rule:nonzero;fill:rgb(100%,100%,100%);fill-opacity:1;" d="M 34.679688 18.160156 C 34.679688 18.332031 34.539062 18.476562 34.367188 18.476562 C 34.195312 18.476562 34.054688 18.332031 34.054688 18.160156 C 34.054688 17.984375 34.195312 17.839844 34.367188 17.839844 C 34.539062 17.839844 34.679688 17.984375 34.679688 18.160156 Z M 34.679688 18.160156 "/>
<path style=" stroke:none;fill-rule:nonzero;fill:rgb(24.705882%,23.921569%,33.72549%);fill-opacity:1;" d="M 38.28125 29.621094 L 38.28125 29.496094 C 41.503906 29.496094 44.117188 26.851562 44.117188 23.589844 C 44.117188 20.324219 41.503906 17.679688 38.28125 17.679688 L 38.28125 17.554688 C 41.574219 17.554688 44.242188 20.257812 44.242188 23.589844 C 44.242188 26.921875 41.574219 29.621094 38.28125 29.621094 Z M 38.28125 29.621094 "/>
<path style=" stroke:none;fill-rule:nonzero;fill:rgb(24.705882%,23.921569%,33.72549%);fill-opacity:1;" d="M 38.308594 28.484375 L 38.246094 28.484375 L 38.246094 28.324219 L 38.371094 28.324219 L 38.371094 28.355469 C 40.832031 28.320312 42.800781 26.285156 42.785156 23.796875 C 42.765625 21.308594 40.769531 19.300781 38.308594 19.300781 L 38.308594 19.175781 C 40.851562 19.175781 42.910156 21.257812 42.910156 23.828125 C 42.910156 26.398438 40.851562 28.484375 38.308594 28.484375 Z M 38.308594 28.484375 "/>
<path style=" stroke:none;fill-rule:nonzero;fill:rgb(42.352941%,38.823529%,100%);fill-opacity:1;" d="M 3.421875 19.433594 L 1.289062 16.660156 C 0.71875 15.917969 0.851562 14.84375 1.585938 14.265625 L 10.222656 7.46875 C 10.722656 7.074219 11.328125 6.835938 11.964844 6.789062 L 12.699219 6.730469 L 19.460938 2.722656 L 21.277344 5.085938 L 15.746094 10.6875 C 15.636719 11.546875 15.195312 12.332031 14.515625 12.863281 L 5.785156 19.734375 C 5.050781 20.3125 3.992188 20.175781 3.421875 19.433594 Z M 3.421875 19.433594 "/>
<path style=" stroke:none;fill-rule:nonzero;fill:rgb(94.117647%,94.117647%,94.117647%);fill-opacity:1;" d="M 23.527344 3.191406 C 23.734375 3.25 24 3.191406 24.226562 3.015625 C 24.550781 2.757812 24.664062 2.347656 24.472656 2.097656 C 24.4375 2.054688 24.394531 2.015625 24.34375 1.988281 C 24.394531 1.832031 24.367188 1.664062 24.273438 1.53125 C 24.25 1.5 24.222656 1.472656 24.1875 1.445312 C 24.402344 1.144531 24.484375 0.875 24.371094 0.730469 C 24.308594 0.660156 24.214844 0.621094 24.117188 0.628906 C 24.132812 0.503906 24.101562 0.382812 24.027344 0.28125 C 23.867188 0.0703125 23.542969 0.046875 23.246094 0.195312 C 23.242188 0.191406 23.242188 0.1875 23.238281 0.183594 C 23.046875 -0.0664062 22.625 -0.0585938 22.296875 0.199219 C 22.132812 0.320312 22.019531 0.5 21.972656 0.703125 C 21.765625 0.699219 21.566406 0.765625 21.410156 0.898438 C 21.082031 1.15625 20.972656 1.566406 21.160156 1.816406 C 21.171875 1.824219 21.179688 1.835938 21.1875 1.84375 L 21.183594 1.847656 C 21.179688 1.835938 21.171875 1.824219 21.160156 1.816406 C 20.972656 1.566406 20.550781 1.574219 20.222656 1.832031 C 20.058594 1.953125 19.945312 2.132812 19.894531 2.335938 C 19.691406 2.332031 19.492188 2.402344 19.332031 2.53125 C 19.007812 2.789062 18.894531 3.199219 19.085938 3.449219 C 19.277344 3.695312 19.699219 3.6875 20.027344 3.433594 C 19.871094 3.550781 19.789062 3.746094 19.8125 3.945312 C 19.832031 4.140625 19.953125 4.3125 20.128906 4.394531 C 20.0625 4.5625 20.054688 4.707031 20.125 4.796875 C 20.234375 4.941406 20.511719 4.929688 20.855469 4.792969 C 20.871094 4.832031 20.890625 4.867188 20.914062 4.898438 C 21.105469 5.148438 21.527344 5.140625 21.851562 4.882812 C 22.015625 4.757812 22.132812 4.578125 22.179688 4.378906 C 22.382812 4.382812 22.582031 4.3125 22.742188 4.179688 C 22.816406 4.121094 22.882812 4.050781 22.941406 3.972656 C 23.027344 3.9375 23.113281 3.890625 23.1875 3.832031 C 23.410156 3.65625 23.53125 3.410156 23.527344 3.191406 Z M 23.527344 3.191406 "/>
<path style=" stroke:none;fill-rule:nonzero;fill:rgb(24.705882%,23.921569%,33.72549%);fill-opacity:1;" d="M 2.898438 20.210938 L 0.417969 16.980469 C -0.253906 16.105469 -0.0976562 14.84375 0.765625 14.164062 L 10.8125 6.257812 C 11.398438 5.792969 12.109375 5.515625 12.851562 5.457031 L 13.699219 5.390625 L 20.996094 1.066406 C 20.863281 0.773438 20.96875 0.429688 21.238281 0.261719 C 21.511719 0.09375 21.863281 0.160156 22.058594 0.414062 L 24.132812 3.113281 C 24.328125 3.367188 24.304688 3.730469 24.074219 3.957031 C 23.847656 4.179688 23.488281 4.199219 23.242188 3.992188 L 17.273438 10.03125 C 17.148438 11.039062 16.632812 11.949219 15.839844 12.570312 L 5.683594 20.5625 C 4.820312 21.242188 3.570312 21.085938 2.898438 20.210938 Z M 21.960938 0.492188 C 21.796875 0.28125 21.5 0.234375 21.28125 0.382812 C 21.066406 0.535156 21 0.828125 21.132812 1.058594 L 21.164062 1.113281 L 13.738281 5.515625 L 12.863281 5.582031 C 12.144531 5.640625 11.457031 5.910156 10.886719 6.355469 L 0.84375 14.261719 C 0.03125 14.902344 -0.113281 16.085938 0.515625 16.90625 L 2.996094 20.132812 C 3.628906 20.953125 4.796875 21.101562 5.609375 20.460938 L 15.761719 12.46875 C 16.535156 11.867188 17.035156 10.976562 17.152344 9.992188 L 17.15625 9.972656 L 23.242188 3.816406 L 23.285156 3.859375 C 23.472656 4.050781 23.773438 4.058594 23.96875 3.882812 C 24.167969 3.707031 24.195312 3.402344 24.035156 3.191406 Z M 21.960938 0.492188 "/>
<path style=" stroke:none;fill-rule:nonzero;fill:rgb(24.705882%,23.921569%,33.72549%);fill-opacity:1;" d="M 5.042969 10.878906 L 8.601562 8.078125 L 13.441406 14.378906 L 9.882812 17.175781 Z M 5.042969 10.878906 "/>
<path style=" stroke:none;fill-rule:nonzero;fill:rgb(24.705882%,23.921569%,33.72549%);fill-opacity:1;" d="M 5.128906 10.886719 L 9.894531 17.085938 L 13.355469 14.367188 L 8.589844 8.167969 Z M 5.128906 10.886719 "/>
<path style=" stroke:none;fill-rule:nonzero;fill:rgb(100%,100%,100%);fill-opacity:1;" d="M 19.351562 4.929688 C 19.351562 5.105469 19.210938 5.246094 19.039062 5.246094 C 18.863281 5.246094 18.722656 5.105469 18.722656 4.929688 C 18.722656 4.757812 18.863281 4.613281 19.039062 4.613281 C 19.210938 4.613281 19.351562 4.757812 19.351562 4.929688 Z M 19.351562 4.929688 "/>
<path style=" stroke:none;fill-rule:nonzero;fill:rgb(100%,100%,100%);fill-opacity:1;" d="M 16.878906 5.429688 C 16.878906 5.605469 16.738281 5.75 16.566406 5.75 C 16.394531 5.75 16.253906 5.605469 16.253906 5.429688 C 16.253906 5.257812 16.394531 5.113281 16.566406 5.113281 C 16.738281 5.113281 16.878906 5.257812 16.878906 5.429688 Z M 16.878906 5.429688 "/>
<path style=" stroke:none;fill-rule:nonzero;fill:rgb(100%,100%,100%);fill-opacity:1;" d="M 17.027344 7.480469 C 17.027344 7.65625 16.886719 7.796875 16.714844 7.796875 C 16.542969 7.796875 16.402344 7.65625 16.402344 7.480469 C 16.402344 7.304688 16.542969 7.164062 16.714844 7.164062 C 16.886719 7.164062 17.027344 7.304688 17.027344 7.480469 Z M 17.027344 7.480469 "/>
<path style=" stroke:none;fill-rule:nonzero;fill:rgb(100%,100%,100%);fill-opacity:1;" d="M 14.558594 7.980469 C 14.558594 8.15625 14.417969 8.296875 14.246094 8.296875 C 14.070312 8.296875 13.929688 8.15625 13.929688 7.980469 C 13.929688 7.804688 14.070312 7.664062 14.246094 7.664062 C 14.417969 7.664062 14.558594 7.804688 14.558594 7.980469 Z M 14.558594 7.980469 "/>
<path style=" stroke:none;fill-rule:nonzero;fill:rgb(100%,100%,100%);fill-opacity:1;" d="M 27.417969 4.222656 C 27.417969 4.398438 27.277344 4.542969 27.105469 4.542969 C 26.933594 4.542969 26.792969 4.398438 26.792969 4.222656 C 26.792969 4.050781 26.933594 3.90625 27.105469 3.90625 C 27.277344 3.90625 27.417969 4.050781 27.417969 4.222656 Z M 27.417969 4.222656 "/>
<path style=" stroke:none;fill-rule:nonzero;fill:rgb(100%,100%,100%);fill-opacity:1;" d="M 28.546875 5.933594 C 28.546875 6.109375 28.40625 6.25 28.234375 6.25 C 28.058594 6.25 27.921875 6.109375 27.921875 5.933594 C 27.921875 5.761719 28.058594 5.617188 28.234375 5.617188 C 28.40625 5.617188 28.546875 5.761719 28.546875 5.933594 Z M 28.546875 5.933594 "/>
<path style=" stroke:none;fill-rule:nonzero;fill:rgb(100%,100%,100%);fill-opacity:1;" d="M 28.546875 8.785156 C 28.546875 8.960938 28.40625 9.101562 28.234375 9.101562 C 28.058594 9.101562 27.921875 8.960938 27.921875 8.785156 C 27.921875 8.609375 28.058594 8.46875 28.234375 8.46875 C 28.40625 8.46875 28.546875 8.609375 28.546875 8.785156 Z M 28.546875 8.785156 "/>
<path style=" stroke:none;fill-rule:nonzero;fill:rgb(94.901961%,94.901961%,94.901961%);fill-opacity:1;" d="M 23.667969 10.988281 C 23.324219 11 22.214844 11.074219 21.636719 11.5625 C 20.949219 12.148438 20.949219 12.703125 21.285156 13.105469 C 21.617188 13.507812 22.15625 13.605469 22.84375 13.019531 C 23.429688 12.523438 23.691406 11.410156 23.757812 11.082031 Z M 23.667969 10.988281 "/>
<path style=" stroke:none;fill-rule:nonzero;fill:rgb(94.901961%,94.901961%,94.901961%);fill-opacity:1;" d="M 32.566406 3.945312 C 32.789062 4.21875 33.523438 5.058594 34.257812 5.222656 C 35.136719 5.414062 35.570312 5.074219 35.683594 4.5625 C 35.792969 4.050781 35.535156 3.558594 34.660156 3.363281 C 33.914062 3.199219 32.882812 3.671875 32.585938 3.820312 Z M 32.566406 3.945312 "/>
<path style=" stroke:none;fill-rule:nonzero;fill:rgb(94.901961%,94.901961%,94.901961%);fill-opacity:1;" d="M 38.199219 12.242188 C 38.238281 12.59375 38.40625 13.703125 38.941406 14.242188 C 39.574219 14.886719 40.121094 14.835938 40.488281 14.464844 C 40.855469 14.09375 40.902344 13.542969 40.265625 12.898438 C 39.730469 12.351562 38.609375 12.183594 38.28125 12.148438 Z M 38.199219 12.242188 "/>
<path style=" stroke:none;fill-rule:nonzero;fill:rgb(24.705882%,23.921569%,33.72549%);fill-opacity:1;" d="M 50.929688 34.832031 C 50.929688 34.875 50.898438 34.90625 50.855469 34.90625 L 10.339844 34.90625 C 10.300781 34.90625 10.265625 34.875 10.265625 34.832031 C 10.265625 34.789062 10.300781 34.757812 10.339844 34.757812 L 50.855469 34.757812 C 50.898438 34.753906 50.929688 34.789062 50.929688 34.832031 Z M 50.929688 34.832031 "/>
</g>
</svg>
