<?xml version="1.0" encoding="UTF-8"?>
<svg xmlns="http://www.w3.org/2000/svg" xmlns:xlink="http://www.w3.org/1999/xlink" width="143pt" height="103pt" viewBox="0 0 143 103" version="1.1">
<g id="surface1">
<path style=" stroke:none;fill-rule:nonzero;fill:rgb(94.901961%,94.901961%,94.901961%);fill-opacity:1;" d="M 138.8125 30.1875 L 60.539062 30.1875 C 58.246094 30.191406 56.386719 32.0625 56.382812 34.371094 L 56.382812 47.128906 C 56.386719 49.4375 58.246094 51.308594 60.539062 51.308594 L 138.8125 51.308594 C 141.109375 51.308594 142.96875 49.4375 142.96875 47.128906 L 142.96875 34.371094 C 142.96875 32.0625 141.109375 30.191406 138.8125 30.1875 Z M 138.8125 30.1875 "/>
<path style=" stroke:none;fill-rule:nonzero;fill:rgb(24.705882%,23.921569%,33.72549%);fill-opacity:1;" d="M 31.390625 103.019531 L 0.25 103.019531 C 0.113281 103.019531 0 102.910156 0 102.769531 C 0 102.632812 0.113281 102.519531 0.25 102.519531 L 31.390625 102.519531 C 31.527344 102.519531 31.640625 102.632812 31.640625 102.769531 C 31.640625 102.910156 31.527344 103.019531 31.390625 103.019531 Z M 31.390625 103.019531 "/>
<path style=" stroke:none;fill-rule:nonzero;fill:rgb(100%,72.156863%,72.156863%);fill-opacity:1;" d="M 26.816406 24.554688 C 26.234375 24.925781 25.84375 25.539062 25.75 26.226562 C 25.65625 26.917969 25.875 27.613281 26.339844 28.125 L 24.074219 32.988281 L 26.675781 35.09375 L 29.777344 28.179688 C 30.601562 27.316406 30.65625 25.96875 29.898438 25.042969 C 29.144531 24.121094 27.820312 23.910156 26.816406 24.554688 Z M 26.816406 24.554688 "/>
<path style=" stroke:none;fill-rule:nonzero;fill:rgb(80%,80%,80%);fill-opacity:1;" d="M 13.808594 26.527344 C 15.296875 25.628906 17.222656 26.0625 18.1875 27.515625 L 22.820312 34.492188 L 24.429688 30.925781 C 24.636719 30.464844 25.152344 30.234375 25.632812 30.382812 L 28.0625 31.148438 C 28.316406 31.226562 28.53125 31.40625 28.652344 31.648438 C 28.773438 31.890625 28.792969 32.167969 28.707031 32.425781 L 27.046875 37.359375 C 26.621094 38.625 25.628906 39.617188 24.367188 40.039062 C 23.109375 40.460938 21.722656 40.265625 20.628906 39.507812 C 20.375 39.332031 20.144531 39.132812 19.933594 38.90625 L 13.109375 31.570312 C 12.4375 30.847656 12.125 29.859375 12.261719 28.878906 C 12.398438 27.902344 12.964844 27.035156 13.808594 26.527344 Z M 13.808594 26.527344 "/>
<path style=" stroke:none;fill-rule:nonzero;fill:rgb(24.705882%,23.921569%,33.72549%);fill-opacity:1;" d="M 28.792969 19.316406 C 29.050781 19.324219 29.257812 19.542969 29.25 19.800781 L 29.210938 21.421875 L 29.292969 21.429688 L 29.261719 22.527344 L 29.183594 22.519531 L 29.039062 28.320312 C 29.03125 28.730469 28.71875 29.070312 28.3125 29.113281 L 24.644531 29.503906 C 24.464844 29.523438 24.285156 29.460938 24.152344 29.332031 C 24.023438 29.207031 23.953125 29.027344 23.964844 28.84375 L 24.523438 20.582031 C 24.546875 20.226562 24.8125 19.933594 25.164062 19.878906 L 28.707031 19.324219 C 28.734375 19.320312 28.765625 19.316406 28.792969 19.316406 Z M 28.792969 19.316406 "/>
<path style=" stroke:none;fill-rule:nonzero;fill:rgb(100%,100%,100%);fill-opacity:1;" d="M 25.957031 20.179688 L 27.816406 19.886719 C 27.886719 19.875 27.9375 19.820312 27.945312 19.75 C 27.953125 19.671875 28.015625 19.609375 28.09375 19.597656 L 28.484375 19.535156 C 28.59375 19.519531 28.703125 19.550781 28.785156 19.625 C 28.867188 19.695312 28.914062 19.800781 28.910156 19.910156 L 28.710938 28.324219 C 28.707031 28.539062 28.539062 28.71875 28.324219 28.738281 L 24.660156 29.066406 C 24.566406 29.074219 24.472656 29.039062 24.402344 28.972656 C 24.335938 28.90625 24.300781 28.8125 24.304688 28.71875 L 24.800781 20.53125 C 24.816406 20.285156 25 20.078125 25.246094 20.042969 L 25.660156 19.976562 C 25.691406 20.113281 25.820312 20.199219 25.957031 20.179688 Z M 25.957031 20.179688 "/>
<path style=" stroke:none;fill-rule:nonzero;fill:rgb(100%,72.156863%,72.156863%);fill-opacity:1;" d="M 17.320312 99.980469 L 20.167969 99.980469 L 21.523438 88.929688 L 17.320312 88.929688 Z M 17.320312 99.980469 "/>
<path style=" stroke:none;fill-rule:nonzero;fill:rgb(18.431373%,18.039216%,25.490196%);fill-opacity:1;" d="M 25.660156 102.640625 L 16.710938 102.640625 L 16.710938 99.160156 L 22.203125 99.160156 C 24.113281 99.160156 25.660156 100.71875 25.660156 102.640625 Z M 25.660156 102.640625 "/>
<path style=" stroke:none;fill-rule:nonzero;fill:rgb(100%,72.156863%,72.156863%);fill-opacity:1;" d="M 8.566406 99.980469 L 11.414062 99.980469 L 12.769531 88.929688 L 8.566406 88.929688 Z M 8.566406 99.980469 "/>
<path style=" stroke:none;fill-rule:nonzero;fill:rgb(18.431373%,18.039216%,25.490196%);fill-opacity:1;" d="M 16.90625 102.640625 L 7.957031 102.640625 L 7.957031 99.160156 L 13.449219 99.160156 C 15.359375 99.160156 16.90625 100.71875 16.90625 102.640625 Z M 16.90625 102.640625 "/>
<path style=" stroke:none;fill-rule:nonzero;fill:rgb(100%,72.156863%,72.156863%);fill-opacity:1;" d="M 23.027344 16.617188 C 23.027344 20.015625 20.285156 22.773438 16.90625 22.773438 C 13.527344 22.773438 10.789062 20.015625 10.789062 16.617188 C 10.789062 13.21875 13.527344 10.460938 16.90625 10.460938 C 20.285156 10.460938 23.027344 13.21875 23.027344 16.617188 Z M 23.027344 16.617188 "/>
<path style=" stroke:none;fill-rule:nonzero;fill:rgb(18.431373%,18.039216%,25.490196%);fill-opacity:1;" d="M 20.058594 33.085938 C 19.957031 29.871094 18.242188 26.925781 15.503906 25.261719 C 13.921875 24.324219 12.191406 23.960938 10.816406 25.34375 C 9.988281 26.199219 9.328125 27.195312 8.863281 28.292969 C 7.589844 31.277344 7.507812 34.640625 8.628906 37.6875 L 11.90625 46.792969 L 19.488281 47.621094 C 19.777344 47.652344 20.066406 47.554688 20.277344 47.355469 C 20.488281 47.15625 20.605469 46.875 20.59375 46.582031 Z M 20.058594 33.085938 "/>
<path style=" stroke:none;fill-rule:nonzero;fill:rgb(18.431373%,18.039216%,25.490196%);fill-opacity:1;" d="M 12.386719 45.671875 C 12.386719 45.671875 6.722656 47.800781 8.203125 56.808594 C 9.53125 64.894531 8.476562 91.726562 8.246094 97.148438 C 8.222656 97.6875 8.625 98.148438 9.15625 98.191406 L 12.464844 98.46875 C 13.003906 98.511719 13.480469 98.117188 13.539062 97.578125 L 15.246094 81.796875 C 15.261719 81.667969 15.367188 81.570312 15.496094 81.574219 C 15.625 81.574219 15.730469 81.671875 15.742188 81.800781 L 17.015625 96.988281 C 17.058594 97.519531 17.511719 97.921875 18.039062 97.90625 L 20.816406 97.816406 C 21.082031 97.808594 21.332031 97.695312 21.511719 97.5 C 21.695312 97.308594 21.789062 97.046875 21.78125 96.78125 L 20.144531 46.722656 Z M 12.386719 45.671875 "/>
<path style=" stroke:none;fill-rule:nonzero;fill:rgb(18.431373%,18.039216%,25.490196%);fill-opacity:1;" d="M 18.136719 16.210938 C 20.183594 17.054688 22.796875 16.070312 23.785156 14.078125 C 24.773438 12.089844 23.992188 9.394531 22.09375 8.253906 C 20.191406 7.113281 17.464844 7.699219 16.191406 9.515625 C 15.15625 7.640625 12.445312 7.164062 10.582031 8.210938 C 8.722656 9.257812 7.707031 11.449219 7.585938 13.589844 C 7.464844 15.734375 8.113281 17.84375 8.902344 19.835938 C 10.179688 23.058594 14.292969 24.792969 17.472656 23.453125 C 16.019531 21.269531 16.304688 18.078125 18.136719 16.210938 Z M 18.136719 16.210938 "/>
<path style=" stroke:none;fill-rule:nonzero;fill:rgb(42.352941%,38.823529%,100%);fill-opacity:1;" d="M 26.382812 25.300781 C 26.328125 25.300781 26.273438 25.28125 26.230469 25.25 L 26.226562 25.246094 L 25.660156 24.808594 C 25.546875 24.726562 25.527344 24.566406 25.613281 24.453125 C 25.699219 24.34375 25.855469 24.320312 25.96875 24.40625 L 26.335938 24.691406 L 27.207031 23.546875 C 27.292969 23.4375 27.449219 23.414062 27.5625 23.5 L 27.554688 23.507812 L 27.5625 23.5 C 27.671875 23.585938 27.691406 23.746094 27.609375 23.859375 L 26.582031 25.199219 C 26.535156 25.265625 26.460938 25.300781 26.382812 25.300781 Z M 26.382812 25.300781 "/>
<path style=" stroke:none;fill-rule:nonzero;fill:rgb(24.705882%,23.921569%,33.72549%);fill-opacity:1;" d="M 138.886719 0 L 60.613281 0 C 58.316406 0.00390625 56.457031 1.871094 56.457031 4.179688 L 56.457031 16.941406 C 56.457031 19.25 58.316406 21.117188 60.613281 21.121094 L 138.886719 21.121094 C 141.179688 21.117188 143.039062 19.25 143.042969 16.941406 L 143.042969 4.179688 C 143.039062 1.871094 141.179688 0.00390625 138.886719 0 Z M 142.605469 16.941406 C 142.601562 19.003906 140.9375 20.679688 138.886719 20.679688 L 60.613281 20.679688 C 58.558594 20.679688 56.898438 19.003906 56.894531 16.941406 L 56.894531 4.179688 C 56.898438 2.117188 58.558594 0.441406 60.613281 0.441406 L 138.886719 0.441406 C 140.9375 0.441406 142.601562 2.117188 142.605469 4.179688 Z M 142.605469 16.941406 "/>
<path style=" stroke:none;fill-rule:nonzero;fill:rgb(42.352941%,38.823529%,100%);fill-opacity:1;" d="M 76.542969 17.835938 C 72.546875 17.835938 69.308594 14.578125 69.308594 10.5625 C 69.308594 6.542969 72.546875 3.285156 76.542969 3.285156 C 80.535156 3.285156 83.773438 6.542969 83.773438 10.558594 C 83.769531 14.578125 80.535156 17.832031 76.542969 17.835938 Z M 76.542969 17.835938 "/>
<path style=" stroke:none;fill-rule:nonzero;fill:rgb(80%,80%,80%);fill-opacity:1;" d="M 128.207031 16.5 L 90.613281 16.5 C 89.648438 16.5 88.863281 15.710938 88.863281 14.742188 C 88.863281 13.769531 89.648438 12.980469 90.613281 12.980469 L 128.207031 12.980469 C 129.171875 12.980469 129.957031 13.769531 129.957031 14.742188 C 129.957031 15.710938 129.171875 16.5 128.207031 16.5 Z M 128.207031 16.5 "/>
<path style=" stroke:none;fill-rule:nonzero;fill:rgb(80%,80%,80%);fill-opacity:1;" d="M 103.054688 9.019531 L 90.613281 9.019531 C 89.648438 9.019531 88.863281 8.234375 88.863281 7.261719 C 88.863281 6.289062 89.648438 5.5 90.613281 5.5 L 103.054688 5.5 C 104.019531 5.5 104.804688 6.289062 104.804688 7.261719 C 104.804688 8.234375 104.019531 9.019531 103.054688 9.019531 Z M 103.054688 9.019531 "/>
<path style=" stroke:none;fill-rule:nonzero;fill:rgb(100%,100%,100%);fill-opacity:1;" d="M 76.171875 13.121094 C 75.992188 13.121094 75.816406 13.0625 75.675781 12.953125 L 75.664062 12.945312 L 73.789062 11.503906 C 73.554688 11.320312 73.433594 11.027344 73.46875 10.730469 C 73.507812 10.433594 73.703125 10.179688 73.976562 10.0625 C 74.253906 9.949219 74.566406 9.992188 74.804688 10.175781 L 76.019531 11.109375 L 78.886719 7.34375 C 79.167969 6.976562 79.691406 6.910156 80.054688 7.191406 L 80.039062 7.214844 L 80.054688 7.191406 C 80.421875 7.472656 80.488281 7.996094 80.210938 8.363281 L 76.835938 12.792969 C 76.675781 13 76.433594 13.121094 76.171875 13.117188 Z M 76.171875 13.121094 "/>
<path style=" stroke:none;fill-rule:nonzero;fill:rgb(100%,100%,100%);fill-opacity:1;" d="M 105.253906 34.332031 L 26.980469 34.332031 C 24.6875 34.335938 22.828125 36.207031 22.824219 38.511719 L 22.824219 51.273438 C 22.828125 53.582031 24.6875 55.453125 26.980469 55.453125 L 105.253906 55.453125 C 107.546875 55.453125 109.40625 53.582031 109.410156 51.273438 L 109.410156 38.511719 C 109.40625 36.207031 107.546875 34.335938 105.253906 34.332031 Z M 105.253906 34.332031 "/>
<path style=" stroke:none;fill-rule:nonzero;fill:rgb(24.705882%,23.921569%,33.72549%);fill-opacity:1;" d="M 105.253906 34.332031 L 26.980469 34.332031 C 24.6875 34.335938 22.828125 36.207031 22.824219 38.511719 L 22.824219 51.273438 C 22.828125 53.582031 24.6875 55.453125 26.980469 55.453125 L 105.253906 55.453125 C 107.546875 55.453125 109.40625 53.582031 109.410156 51.273438 L 109.410156 38.511719 C 109.40625 36.207031 107.546875 34.335938 105.253906 34.332031 Z M 108.972656 51.273438 C 108.96875 53.339844 107.308594 55.011719 105.253906 55.015625 L 26.980469 55.015625 C 24.925781 55.011719 23.265625 53.339844 23.261719 51.273438 L 23.261719 38.511719 C 23.265625 36.449219 24.925781 34.777344 26.980469 34.773438 L 105.253906 34.773438 C 107.308594 34.777344 108.96875 36.449219 108.972656 38.511719 Z M 108.972656 51.273438 "/>
<path style=" stroke:none;fill-rule:nonzero;fill:rgb(42.352941%,38.823529%,100%);fill-opacity:1;" d="M 42.910156 52.167969 C 38.914062 52.167969 35.675781 48.914062 35.675781 44.894531 C 35.675781 40.875 38.914062 37.617188 42.910156 37.617188 C 46.902344 37.617188 50.140625 40.875 50.140625 44.894531 C 50.136719 48.910156 46.902344 52.164062 42.910156 52.167969 Z M 42.910156 52.167969 "/>
<path style=" stroke:none;fill-rule:nonzero;fill:rgb(80%,80%,80%);fill-opacity:1;" d="M 94.574219 50.835938 L 56.980469 50.835938 C 56.015625 50.835938 55.230469 50.046875 55.230469 49.074219 C 55.230469 48.101562 56.015625 47.3125 56.980469 47.3125 L 94.574219 47.3125 C 95.542969 47.3125 96.324219 48.101562 96.324219 49.074219 C 96.324219 50.046875 95.542969 50.835938 94.574219 50.835938 Z M 94.574219 50.835938 "/>
<path style=" stroke:none;fill-rule:nonzero;fill:rgb(80%,80%,80%);fill-opacity:1;" d="M 69.421875 43.355469 L 56.980469 43.355469 C 56.015625 43.355469 55.230469 42.566406 55.230469 41.59375 C 55.230469 40.621094 56.015625 39.832031 56.980469 39.832031 L 69.421875 39.832031 C 70.390625 39.832031 71.171875 40.621094 71.171875 41.59375 C 71.171875 42.566406 70.390625 43.355469 69.421875 43.355469 Z M 69.421875 43.355469 "/>
<path style=" stroke:none;fill-rule:nonzero;fill:rgb(100%,100%,100%);fill-opacity:1;" d="M 42.539062 47.453125 C 42.359375 47.453125 42.183594 47.394531 42.042969 47.285156 L 42.03125 47.28125 L 40.160156 45.835938 C 39.921875 45.65625 39.800781 45.359375 39.839844 45.0625 C 39.875 44.765625 40.070312 44.511719 40.34375 44.398438 C 40.621094 44.28125 40.9375 44.324219 41.171875 44.507812 L 42.386719 45.445312 L 45.253906 41.679688 C 45.535156 41.3125 46.058594 41.242188 46.421875 41.523438 L 46.40625 41.546875 L 46.421875 41.523438 C 46.789062 41.804688 46.855469 42.332031 46.578125 42.699219 L 43.203125 47.125 C 43.042969 47.332031 42.800781 47.453125 42.539062 47.453125 Z M 42.539062 47.453125 "/>
<path style=" stroke:none;fill-rule:nonzero;fill:rgb(100%,72.156863%,72.156863%);fill-opacity:1;" d="M 24.441406 37.210938 C 23.804688 36.941406 23.082031 36.96875 22.464844 37.285156 C 21.851562 37.601562 21.40625 38.175781 21.253906 38.855469 L 15.992188 39.761719 L 15.761719 43.113281 L 23.171875 41.726562 C 24.347656 41.914062 25.476562 41.1875 25.800781 40.035156 C 26.125 38.882812 25.539062 37.671875 24.441406 37.210938 Z M 24.441406 37.210938 "/>
<path style=" stroke:none;fill-rule:nonzero;fill:rgb(80%,80%,80%);fill-opacity:1;" d="M 15.402344 27.59375 C 16.988281 28.308594 17.734375 30.148438 17.097656 31.777344 L 14.046875 39.585938 L 17.878906 38.878906 C 18.371094 38.785156 18.855469 39.078125 19.007812 39.5625 L 19.769531 42.003906 C 19.851562 42.261719 19.824219 42.539062 19.699219 42.777344 C 19.570312 43.015625 19.355469 43.191406 19.097656 43.265625 L 14.121094 44.710938 C 12.84375 45.082031 11.46875 44.828125 10.40625 44.03125 C 9.339844 43.230469 8.710938 41.972656 8.703125 40.636719 C 8.703125 40.328125 8.734375 40.023438 8.796875 39.722656 L 10.890625 29.894531 C 11.09375 28.925781 11.722656 28.105469 12.601562 27.660156 C 13.476562 27.214844 14.507812 27.1875 15.402344 27.59375 Z M 15.402344 27.59375 "/>
</g>
</svg>
