<?xml version="1.0" encoding="UTF-8"?>
<svg xmlns="http://www.w3.org/2000/svg" xmlns:xlink="http://www.w3.org/1999/xlink" width="56pt" height="30pt" viewBox="0 0 56 30" version="1.1">
<g id="surface1">
<path style=" stroke:none;fill-rule:nonzero;fill:rgb(94.901961%,94.901961%,94.901961%);fill-opacity:1;" d="M 48.984375 26.308594 C 47.523438 26.296875 46.0625 26.1875 44.613281 25.984375 C 44.5625 25.976562 44.511719 25.96875 44.460938 25.960938 L 44.539062 12.070312 C 44.589844 12.03125 44.640625 11.992188 44.691406 11.953125 C 44.863281 11.820312 45.039062 11.699219 45.222656 11.589844 C 46.097656 11.050781 47.125 10.808594 47.835938 11.054688 L 47.847656 11.058594 C 48.003906 11.109375 48.144531 11.195312 48.269531 11.304688 C 48.890625 11.863281 48.785156 13 48.285156 14.027344 C 49.28125 13.105469 50.539062 12.371094 51.660156 12.3125 C 52.753906 12.257812 53.539062 12.839844 54.199219 13.46875 C 54.222656 13.488281 54.246094 13.511719 54.265625 13.53125 C 54.277344 13.542969 54.289062 13.550781 54.296875 13.5625 C 54.804688 14.054688 55.304688 14.625 55.242188 15.457031 C 55.175781 16.363281 54.425781 17.371094 53.550781 18.078125 C 52.675781 18.785156 51.683594 19.253906 50.714844 19.730469 C 49.746094 20.207031 48.753906 20.722656 47.925781 21.488281 C 49.21875 20.453125 50.6875 19.617188 52.117188 19.308594 C 53.546875 19 54.917969 19.273438 55.59375 20.195312 C 55.789062 20.476562 55.917969 20.800781 55.96875 21.140625 C 55.976562 21.179688 55.980469 21.222656 55.984375 21.261719 C 56.082031 22.117188 55.789062 23.136719 55.09375 24.007812 C 54.324219 24.960938 53.1875 25.625 52.109375 25.957031 C 51.027344 26.285156 49.988281 26.320312 48.984375 26.308594 Z M 48.984375 26.308594 "/>
<path style=" stroke:none;fill-rule:nonzero;fill:rgb(100%,100%,100%);fill-opacity:1;" d="M 44.511719 17.222656 L 44.511719 16.957031 C 44.5625 16.871094 44.617188 16.785156 44.664062 16.703125 C 44.699219 16.648438 44.730469 16.59375 44.761719 16.542969 C 45.292969 15.660156 45.800781 14.773438 46.289062 13.882812 C 46.777344 12.992188 47.242188 12.09375 47.683594 11.195312 C 47.707031 11.144531 47.757812 11.121094 47.808594 11.132812 C 47.8125 11.132812 47.816406 11.132812 47.820312 11.136719 C 47.84375 11.148438 47.851562 11.175781 47.832031 11.21875 C 47.777344 11.328125 47.722656 11.4375 47.667969 11.550781 C 47.214844 12.453125 46.746094 13.351562 46.25 14.246094 C 45.753906 15.140625 45.238281 16.027344 44.699219 16.914062 C 44.6875 16.933594 44.675781 16.949219 44.664062 16.96875 C 44.613281 17.054688 44.5625 17.136719 44.511719 17.222656 Z M 44.511719 17.222656 "/>
<path style=" stroke:none;fill-rule:nonzero;fill:rgb(100%,100%,100%);fill-opacity:1;" d="M 44.492188 20.648438 L 44.492188 20.484375 C 44.542969 20.445312 44.59375 20.410156 44.644531 20.371094 C 45.847656 19.5 47.050781 18.628906 48.253906 17.761719 C 50.226562 16.335938 52.195312 14.914062 54.164062 13.488281 C 54.175781 13.480469 54.1875 13.472656 54.199219 13.46875 C 54.246094 13.457031 54.269531 13.488281 54.265625 13.53125 C 54.261719 13.566406 54.242188 13.597656 54.210938 13.617188 C 53.105469 14.417969 52.003906 15.214844 50.898438 16.015625 C 48.9375 17.429688 46.976562 18.847656 45.019531 20.265625 C 44.894531 20.355469 44.769531 20.445312 44.644531 20.535156 C 44.59375 20.574219 44.542969 20.609375 44.492188 20.648438 Z M 44.492188 20.648438 "/>
<path style=" stroke:none;fill-rule:nonzero;fill:rgb(100%,100%,100%);fill-opacity:1;" d="M 45.433594 24.304688 C 45.160156 24.296875 44.890625 24.277344 44.625 24.253906 C 44.574219 24.25 44.523438 24.246094 44.472656 24.242188 L 44.472656 24.070312 C 44.523438 24.074219 44.574219 24.078125 44.625 24.082031 C 45.007812 24.121094 45.398438 24.148438 45.796875 24.148438 C 46.90625 24.15625 48.007812 24.042969 49.09375 23.824219 C 50.261719 23.585938 51.410156 23.25 52.519531 22.8125 C 53.691406 22.351562 54.824219 21.800781 55.90625 21.15625 C 55.925781 21.144531 55.945312 21.140625 55.96875 21.140625 C 56.015625 21.148438 56.03125 21.214844 55.984375 21.261719 C 55.976562 21.273438 55.964844 21.28125 55.953125 21.289062 C 55.820312 21.367188 55.683594 21.445312 55.550781 21.523438 C 54.457031 22.140625 53.320312 22.671875 52.148438 23.105469 C 51.035156 23.519531 49.886719 23.835938 48.71875 24.046875 C 47.632812 24.246094 46.53125 24.332031 45.433594 24.304688 Z M 45.433594 24.304688 "/>
<path style=" stroke:none;fill-rule:nonzero;fill:rgb(24.705882%,23.921569%,33.72549%);fill-opacity:1;" d="M 44.082031 0 L 6.851562 0 C 6.554688 0 6.316406 0.242188 6.316406 0.542969 L 6.316406 26.132812 C 6.316406 26.433594 6.554688 26.675781 6.851562 26.675781 L 44.082031 26.675781 C 44.238281 26.675781 44.386719 26.605469 44.488281 26.484375 C 44.492188 26.480469 44.496094 26.476562 44.5 26.46875 C 44.53125 26.429688 44.558594 26.386719 44.578125 26.339844 C 44.605469 26.273438 44.617188 26.203125 44.617188 26.132812 L 44.617188 0.542969 C 44.617188 0.242188 44.378906 0 44.082031 0 Z M 44.464844 26.132812 C 44.464844 26.207031 44.445312 26.28125 44.402344 26.347656 C 44.367188 26.402344 44.316406 26.445312 44.257812 26.476562 C 44.203125 26.507812 44.144531 26.519531 44.082031 26.519531 L 6.851562 26.519531 C 6.640625 26.519531 6.46875 26.347656 6.46875 26.132812 L 6.46875 0.542969 C 6.46875 0.328125 6.640625 0.15625 6.851562 0.15625 L 44.082031 0.15625 C 44.292969 0.15625 44.464844 0.328125 44.464844 0.542969 Z M 44.464844 26.132812 "/>
<path style=" stroke:none;fill-rule:nonzero;fill:rgb(24.705882%,23.921569%,33.72549%);fill-opacity:1;" d="M 6.394531 2.175781 L 44.542969 2.175781 L 44.542969 2.328125 L 6.394531 2.328125 Z M 6.394531 2.175781 "/>
<path style=" stroke:none;fill-rule:nonzero;fill:rgb(24.705882%,23.921569%,33.72549%);fill-opacity:1;" d="M 8.152344 1.164062 C 8.152344 1.421875 7.945312 1.628906 7.691406 1.628906 C 7.4375 1.628906 7.234375 1.421875 7.234375 1.164062 C 7.234375 0.90625 7.4375 0.699219 7.691406 0.699219 C 7.945312 0.699219 8.152344 0.90625 8.152344 1.164062 Z M 8.152344 1.164062 "/>
<path style=" stroke:none;fill-rule:nonzero;fill:rgb(24.705882%,23.921569%,33.72549%);fill-opacity:1;" d="M 9.46875 1.164062 C 9.46875 1.421875 9.265625 1.628906 9.011719 1.628906 C 8.757812 1.628906 8.550781 1.421875 8.550781 1.164062 C 8.550781 0.90625 8.757812 0.699219 9.011719 0.699219 C 9.265625 0.699219 9.46875 0.90625 9.46875 1.164062 Z M 9.46875 1.164062 "/>
<path style=" stroke:none;fill-rule:nonzero;fill:rgb(24.705882%,23.921569%,33.72549%);fill-opacity:1;" d="M 10.789062 1.164062 C 10.789062 1.421875 10.582031 1.628906 10.332031 1.628906 C 10.078125 1.628906 9.871094 1.421875 9.871094 1.164062 C 9.871094 0.90625 10.078125 0.699219 10.332031 0.699219 C 10.582031 0.699219 10.789062 0.90625 10.789062 1.164062 Z M 10.789062 1.164062 "/>
<path style=" stroke:none;fill-rule:nonzero;fill:rgb(24.705882%,23.921569%,33.72549%);fill-opacity:1;" d="M 35.042969 5.765625 L 15.90625 5.765625 C 15.464844 5.765625 15.105469 5.402344 15.105469 4.957031 C 15.105469 4.507812 15.464844 4.148438 15.90625 4.148438 L 35.042969 4.148438 C 35.480469 4.148438 35.839844 4.507812 35.839844 4.957031 C 35.839844 5.402344 35.480469 5.765625 35.042969 5.765625 Z M 15.90625 4.269531 C 15.53125 4.269531 15.230469 4.578125 15.230469 4.957031 C 15.230469 5.332031 15.53125 5.640625 15.90625 5.640625 L 35.042969 5.640625 C 35.414062 5.640625 35.714844 5.332031 35.714844 4.957031 C 35.714844 4.578125 35.414062 4.269531 35.042969 4.269531 Z M 15.90625 4.269531 "/>
<path style=" stroke:none;fill-rule:nonzero;fill:rgb(80%,80%,80%);fill-opacity:1;" d="M 16.066406 10.710938 L 14.347656 10.710938 C 14.074219 10.710938 13.855469 10.488281 13.855469 10.210938 C 13.855469 9.9375 14.074219 9.714844 14.347656 9.714844 L 16.066406 9.714844 C 16.335938 9.714844 16.554688 9.9375 16.554688 10.210938 C 16.554688 10.488281 16.335938 10.710938 16.066406 10.710938 Z M 16.066406 10.710938 "/>
<path style=" stroke:none;fill-rule:nonzero;fill:rgb(80%,80%,80%);fill-opacity:1;" d="M 18.089844 12.390625 L 14.347656 12.390625 C 14.074219 12.390625 13.855469 12.167969 13.855469 11.890625 C 13.855469 11.617188 14.074219 11.394531 14.347656 11.394531 L 18.089844 11.394531 C 18.359375 11.394531 18.578125 11.617188 18.578125 11.890625 C 18.578125 12.167969 18.359375 12.390625 18.089844 12.390625 Z M 18.089844 12.390625 "/>
<path style=" stroke:none;fill-rule:nonzero;fill:rgb(80%,80%,80%);fill-opacity:1;" d="M 16.371094 18.050781 L 14.652344 18.050781 C 14.382812 18.050781 14.164062 17.828125 14.164062 17.554688 C 14.164062 17.28125 14.382812 17.054688 14.652344 17.054688 L 16.371094 17.054688 C 16.640625 17.054688 16.863281 17.28125 16.863281 17.554688 C 16.863281 17.828125 16.640625 18.050781 16.371094 18.050781 Z M 16.371094 18.050781 "/>
<path style=" stroke:none;fill-rule:nonzero;fill:rgb(80%,80%,80%);fill-opacity:1;" d="M 18.394531 19.730469 L 14.652344 19.730469 C 14.382812 19.730469 14.164062 19.507812 14.164062 19.234375 C 14.164062 18.957031 14.382812 18.738281 14.652344 18.738281 L 18.394531 18.738281 C 18.667969 18.738281 18.886719 18.957031 18.886719 19.234375 C 18.886719 19.507812 18.667969 19.730469 18.394531 19.730469 Z M 18.394531 19.730469 "/>
<path style=" stroke:none;fill-rule:nonzero;fill:rgb(80%,80%,80%);fill-opacity:1;" d="M 27.65625 17.867188 L 25.941406 17.867188 C 25.667969 17.867188 25.449219 17.640625 25.449219 17.367188 C 25.449219 17.09375 25.667969 16.871094 25.941406 16.871094 L 27.65625 16.871094 C 27.929688 16.871094 28.148438 17.09375 28.148438 17.367188 C 28.148438 17.640625 27.929688 17.867188 27.65625 17.867188 Z M 27.65625 17.867188 "/>
<path style=" stroke:none;fill-rule:nonzero;fill:rgb(80%,80%,80%);fill-opacity:1;" d="M 29.679688 19.542969 L 25.941406 19.542969 C 25.667969 19.542969 25.449219 19.324219 25.449219 19.046875 C 25.449219 18.773438 25.667969 18.550781 25.941406 18.550781 L 29.679688 18.550781 C 29.953125 18.550781 30.171875 18.773438 30.171875 19.046875 C 30.171875 19.324219 29.953125 19.542969 29.679688 19.542969 Z M 29.679688 19.542969 "/>
<path style=" stroke:none;fill-rule:nonzero;fill:rgb(80%,80%,80%);fill-opacity:1;" d="M 27.472656 11.019531 L 25.757812 11.019531 C 25.484375 11.019531 25.265625 10.796875 25.265625 10.523438 C 25.265625 10.25 25.484375 10.027344 25.757812 10.027344 L 27.472656 10.027344 C 27.742188 10.027344 27.964844 10.25 27.964844 10.523438 C 27.964844 10.796875 27.742188 11.019531 27.472656 11.019531 Z M 27.472656 11.019531 "/>
<path style=" stroke:none;fill-rule:nonzero;fill:rgb(80%,80%,80%);fill-opacity:1;" d="M 29.496094 12.703125 L 25.757812 12.703125 C 25.484375 12.703125 25.265625 12.476562 25.265625 12.203125 C 25.265625 11.929688 25.484375 11.707031 25.757812 11.707031 L 29.496094 11.707031 C 29.769531 11.707031 29.988281 11.929688 29.988281 12.203125 C 29.988281 12.476562 29.769531 12.703125 29.496094 12.703125 Z M 29.496094 12.703125 "/>
<path style=" stroke:none;fill-rule:nonzero;fill:rgb(80%,80%,80%);fill-opacity:1;" d="M 38.941406 10.648438 L 37.226562 10.648438 C 36.953125 10.648438 36.734375 10.425781 36.734375 10.148438 C 36.734375 9.875 36.953125 9.652344 37.226562 9.652344 L 38.941406 9.652344 C 39.214844 9.652344 39.433594 9.875 39.433594 10.148438 C 39.433594 10.425781 39.214844 10.648438 38.941406 10.648438 Z M 38.941406 10.648438 "/>
<path style=" stroke:none;fill-rule:nonzero;fill:rgb(80%,80%,80%);fill-opacity:1;" d="M 40.964844 12.328125 L 37.226562 12.328125 C 36.953125 12.328125 36.734375 12.105469 36.734375 11.832031 C 36.734375 11.554688 36.953125 11.332031 37.226562 11.332031 L 40.964844 11.332031 C 41.238281 11.332031 41.457031 11.554688 41.457031 11.832031 C 41.457031 12.105469 41.238281 12.328125 40.964844 12.328125 Z M 40.964844 12.328125 "/>
<path style=" stroke:none;fill-rule:nonzero;fill:rgb(20.784314%,20%,48.235294%);fill-opacity:1;" d="M 13.15625 11.050781 C 13.15625 12.082031 12.332031 12.917969 11.316406 12.917969 C 10.300781 12.917969 9.476562 12.082031 9.476562 11.050781 C 9.476562 10.023438 10.300781 9.1875 11.316406 9.1875 C 12.332031 9.1875 13.15625 10.023438 13.15625 11.050781 Z M 13.15625 11.050781 "/>
<path style=" stroke:none;fill-rule:nonzero;fill:rgb(100%,100%,100%);fill-opacity:1;" d="M 12.175781 11.890625 L 10.457031 11.890625 C 10.355469 11.890625 10.273438 11.808594 10.273438 11.707031 L 10.273438 10.398438 C 10.273438 10.296875 10.355469 10.214844 10.457031 10.210938 L 10.941406 10.210938 C 11.003906 10.210938 11.066406 10.246094 11.097656 10.300781 L 11.234375 10.523438 L 12.175781 10.523438 C 12.277344 10.523438 12.359375 10.605469 12.359375 10.710938 L 12.359375 11.707031 C 12.359375 11.808594 12.277344 11.890625 12.175781 11.890625 Z M 10.457031 10.335938 C 10.425781 10.335938 10.398438 10.363281 10.398438 10.398438 L 10.398438 11.707031 C 10.398438 11.738281 10.425781 11.769531 10.457031 11.769531 L 12.175781 11.769531 C 12.210938 11.769531 12.238281 11.738281 12.238281 11.707031 L 12.238281 10.710938 C 12.238281 10.675781 12.210938 10.648438 12.175781 10.648438 L 11.164062 10.648438 L 10.992188 10.367188 C 10.984375 10.347656 10.964844 10.335938 10.941406 10.335938 Z M 10.457031 10.335938 "/>
<path style=" stroke:none;fill-rule:nonzero;fill:rgb(20.784314%,20%,48.235294%);fill-opacity:1;" d="M 24.445312 11.363281 C 24.445312 12.394531 23.621094 13.230469 22.601562 13.230469 C 21.585938 13.230469 20.761719 12.394531 20.761719 11.363281 C 20.761719 10.332031 21.585938 9.496094 22.601562 9.496094 C 23.621094 9.496094 24.445312 10.332031 24.445312 11.363281 Z M 24.445312 11.363281 "/>
<path style=" stroke:none;fill-rule:nonzero;fill:rgb(100%,100%,100%);fill-opacity:1;" d="M 23.402344 12.546875 L 21.804688 12.546875 C 21.703125 12.546875 21.621094 12.460938 21.621094 12.359375 L 21.621094 10.367188 C 21.621094 10.265625 21.703125 10.183594 21.804688 10.179688 L 22.960938 10.179688 C 23.003906 10.179688 23.042969 10.195312 23.078125 10.222656 L 23.515625 10.582031 C 23.558594 10.617188 23.585938 10.667969 23.585938 10.726562 L 23.585938 12.359375 C 23.582031 12.460938 23.503906 12.546875 23.402344 12.546875 Z M 21.804688 10.304688 C 21.769531 10.304688 21.746094 10.332031 21.746094 10.367188 L 21.746094 12.359375 C 21.746094 12.394531 21.769531 12.421875 21.804688 12.421875 L 23.402344 12.421875 C 23.433594 12.421875 23.460938 12.394531 23.460938 12.359375 L 23.460938 10.726562 C 23.460938 10.707031 23.453125 10.691406 23.4375 10.679688 L 23 10.320312 C 22.988281 10.3125 22.976562 10.304688 22.960938 10.304688 Z M 21.804688 10.304688 "/>
<path style=" stroke:none;fill-rule:nonzero;fill:rgb(100%,100%,100%);fill-opacity:1;" d="M 23.09375 11.050781 L 22.113281 11.050781 C 22.078125 11.050781 22.050781 11.023438 22.050781 10.988281 C 22.050781 10.957031 22.078125 10.929688 22.113281 10.929688 L 23.09375 10.929688 C 23.128906 10.929688 23.15625 10.957031 23.15625 10.988281 C 23.15625 11.023438 23.128906 11.050781 23.09375 11.050781 Z M 23.09375 11.050781 "/>
<path style=" stroke:none;fill-rule:nonzero;fill:rgb(100%,100%,100%);fill-opacity:1;" d="M 23.09375 11.425781 L 22.113281 11.425781 C 22.078125 11.425781 22.050781 11.398438 22.050781 11.363281 C 22.050781 11.328125 22.078125 11.300781 22.113281 11.300781 L 23.09375 11.300781 C 23.128906 11.300781 23.15625 11.328125 23.15625 11.363281 C 23.15625 11.398438 23.128906 11.425781 23.09375 11.425781 Z M 23.09375 11.425781 "/>
<path style=" stroke:none;fill-rule:nonzero;fill:rgb(100%,100%,100%);fill-opacity:1;" d="M 23.09375 11.800781 L 22.113281 11.800781 C 22.078125 11.800781 22.050781 11.769531 22.050781 11.738281 C 22.050781 11.703125 22.078125 11.675781 22.113281 11.675781 L 23.09375 11.675781 C 23.128906 11.675781 23.15625 11.703125 23.15625 11.738281 C 23.15625 11.769531 23.128906 11.800781 23.09375 11.800781 Z M 23.09375 11.800781 "/>
<path style=" stroke:none;fill-rule:nonzero;fill:rgb(20.784314%,20%,48.235294%);fill-opacity:1;" d="M 35.789062 10.988281 C 35.789062 12.019531 34.964844 12.855469 33.949219 12.855469 C 32.933594 12.855469 32.109375 12.019531 32.109375 10.988281 C 32.109375 9.960938 32.933594 9.125 33.949219 9.125 C 34.964844 9.125 35.789062 9.960938 35.789062 10.988281 Z M 35.789062 10.988281 "/>
<path style=" stroke:none;fill-rule:nonzero;fill:rgb(100%,100%,100%);fill-opacity:1;" d="M 34.808594 11.675781 L 33.089844 11.675781 C 32.988281 11.675781 32.90625 11.589844 32.90625 11.488281 L 32.90625 10.492188 C 32.90625 10.390625 32.988281 10.304688 33.089844 10.304688 L 34.808594 10.304688 C 34.910156 10.304688 34.992188 10.390625 34.992188 10.492188 L 34.992188 11.488281 C 34.992188 11.589844 34.910156 11.675781 34.808594 11.675781 Z M 33.089844 10.429688 C 33.058594 10.429688 33.03125 10.457031 33.03125 10.492188 L 33.03125 11.488281 C 33.03125 11.523438 33.058594 11.550781 33.089844 11.550781 L 34.808594 11.550781 C 34.84375 11.550781 34.871094 11.523438 34.871094 11.488281 L 34.871094 10.492188 C 34.871094 10.457031 34.84375 10.429688 34.808594 10.429688 Z M 33.089844 10.429688 "/>
<path style=" stroke:none;fill-rule:nonzero;fill:rgb(100%,100%,100%);fill-opacity:1;" d="M 33.949219 11.152344 C 33.914062 11.152344 33.882812 11.144531 33.851562 11.125 L 32.9375 10.546875 C 32.90625 10.527344 32.898438 10.488281 32.917969 10.460938 C 32.933594 10.429688 32.972656 10.421875 33 10.441406 L 33.917969 11.019531 C 33.9375 11.03125 33.960938 11.03125 33.984375 11.019531 L 34.898438 10.441406 C 34.929688 10.421875 34.964844 10.429688 34.984375 10.460938 C 35 10.488281 34.992188 10.527344 34.964844 10.546875 L 34.046875 11.125 C 34.019531 11.144531 33.984375 11.152344 33.949219 11.152344 Z M 33.949219 11.152344 "/>
<path style=" stroke:none;fill-rule:nonzero;fill:rgb(20.784314%,20%,48.235294%);fill-opacity:1;" d="M 13.15625 18.394531 C 13.15625 19.425781 12.332031 20.261719 11.316406 20.261719 C 10.300781 20.261719 9.476562 19.425781 9.476562 18.394531 C 9.476562 17.363281 10.300781 16.527344 11.316406 16.527344 C 12.332031 16.527344 13.15625 17.363281 13.15625 18.394531 Z M 13.15625 18.394531 "/>
<path style=" stroke:none;fill-rule:nonzero;fill:rgb(100%,100%,100%);fill-opacity:1;" d="M 12.175781 19.078125 L 10.457031 19.078125 C 10.355469 19.078125 10.273438 18.996094 10.273438 18.890625 L 10.273438 17.894531 C 10.273438 17.792969 10.355469 17.710938 10.457031 17.710938 L 12.175781 17.710938 C 12.277344 17.710938 12.359375 17.792969 12.359375 17.894531 L 12.359375 18.890625 C 12.359375 18.996094 12.277344 19.078125 12.175781 19.078125 Z M 10.457031 17.835938 C 10.425781 17.835938 10.398438 17.863281 10.398438 17.894531 L 10.398438 18.890625 C 10.398438 18.925781 10.425781 18.953125 10.457031 18.953125 L 12.175781 18.953125 C 12.210938 18.953125 12.238281 18.925781 12.238281 18.890625 L 12.238281 17.894531 C 12.238281 17.863281 12.210938 17.835938 12.175781 17.835938 Z M 10.457031 17.835938 "/>
<path style=" stroke:none;fill-rule:nonzero;fill:rgb(100%,100%,100%);fill-opacity:1;" d="M 11.902344 19.078125 L 10.667969 19.078125 C 10.625 19.078125 10.585938 19.054688 10.5625 19.015625 C 10.542969 18.976562 10.542969 18.929688 10.5625 18.890625 L 10.933594 18.238281 C 10.957031 18.199219 10.996094 18.175781 11.042969 18.175781 C 11.085938 18.175781 11.125 18.199219 11.148438 18.238281 L 11.386719 18.660156 L 11.527344 18.417969 C 11.546875 18.378906 11.589844 18.351562 11.632812 18.351562 C 11.675781 18.351562 11.71875 18.378906 11.738281 18.417969 L 12.011719 18.890625 C 12.03125 18.929688 12.03125 18.976562 12.011719 19.015625 C 11.988281 19.054688 11.949219 19.078125 11.902344 19.078125 Z M 11.902344 18.953125 L 11.632812 18.476562 L 11.441406 18.816406 C 11.429688 18.835938 11.410156 18.847656 11.386719 18.847656 C 11.367188 18.847656 11.34375 18.835938 11.335938 18.816406 L 11.042969 18.300781 L 10.667969 18.953125 Z M 11.902344 18.953125 "/>
<path style=" stroke:none;fill-rule:nonzero;fill:rgb(100%,100%,100%);fill-opacity:1;" d="M 12.113281 18.082031 C 12.113281 18.152344 12.058594 18.207031 11.992188 18.207031 C 11.921875 18.207031 11.867188 18.152344 11.867188 18.082031 C 11.867188 18.015625 11.921875 17.957031 11.992188 17.957031 C 12.058594 17.957031 12.113281 18.015625 12.113281 18.082031 Z M 12.113281 18.082031 "/>
<path style=" stroke:none;fill-rule:nonzero;fill:rgb(20.784314%,20%,48.235294%);fill-opacity:1;" d="M 24.566406 18.207031 C 24.566406 19.238281 23.742188 20.074219 22.726562 20.074219 C 21.710938 20.074219 20.886719 19.238281 20.886719 18.207031 C 20.886719 17.175781 21.710938 16.339844 22.726562 16.339844 C 23.742188 16.339844 24.566406 17.175781 24.566406 18.207031 Z M 24.566406 18.207031 "/>
<path style=" stroke:none;fill-rule:nonzero;fill:rgb(100%,100%,100%);fill-opacity:1;" d="M 22.726562 18.238281 C 22.421875 18.238281 22.171875 17.988281 22.171875 17.679688 C 22.171875 17.371094 22.421875 17.117188 22.726562 17.117188 C 23.03125 17.117188 23.277344 17.371094 23.277344 17.679688 C 23.277344 17.988281 23.03125 18.238281 22.726562 18.238281 Z M 22.726562 17.242188 C 22.488281 17.242188 22.296875 17.4375 22.296875 17.679688 C 22.296875 17.917969 22.488281 18.113281 22.726562 18.113281 C 22.964844 18.113281 23.15625 17.917969 23.15625 17.679688 C 23.15625 17.4375 22.964844 17.242188 22.726562 17.242188 Z M 22.726562 17.242188 "/>
<path style=" stroke:none;fill-rule:nonzero;fill:rgb(100%,100%,100%);fill-opacity:1;" d="M 23.214844 19.296875 L 22.234375 19.296875 C 22.117188 19.296875 22.019531 19.199219 22.019531 19.078125 C 22.019531 18.683594 22.335938 18.363281 22.726562 18.363281 C 23.117188 18.363281 23.429688 18.683594 23.429688 19.078125 C 23.429688 19.199219 23.335938 19.296875 23.214844 19.296875 Z M 22.726562 18.488281 C 22.402344 18.488281 22.144531 18.75 22.144531 19.078125 C 22.144531 19.128906 22.183594 19.171875 22.234375 19.171875 L 23.214844 19.171875 C 23.265625 19.171875 23.308594 19.128906 23.308594 19.078125 C 23.308594 18.75 23.046875 18.488281 22.726562 18.488281 Z M 22.726562 18.488281 "/>
<path style=" stroke:none;fill-rule:nonzero;fill:rgb(100%,72.156863%,72.156863%);fill-opacity:1;" d="M 4.964844 29.316406 L 5.714844 29.316406 L 6.074219 26.371094 L 4.964844 26.371094 Z M 4.964844 29.316406 "/>
<path style=" stroke:none;fill-rule:nonzero;fill:rgb(18.431373%,18.039216%,25.490196%);fill-opacity:1;" d="M 7.167969 30.023438 L 4.804688 30.023438 L 4.804688 29.097656 L 6.253906 29.097656 C 6.757812 29.097656 7.167969 29.511719 7.167969 30.023438 Z M 7.167969 30.023438 "/>
<path style=" stroke:none;fill-rule:nonzero;fill:rgb(100%,72.156863%,72.156863%);fill-opacity:1;" d="M 2.144531 29.316406 L 2.894531 29.316406 L 3.253906 26.371094 L 2.140625 26.371094 Z M 2.144531 29.316406 "/>
<path style=" stroke:none;fill-rule:nonzero;fill:rgb(18.431373%,18.039216%,25.490196%);fill-opacity:1;" d="M 4.34375 30.023438 L 1.980469 30.023438 L 1.980469 29.097656 L 3.433594 29.097656 C 3.9375 29.097656 4.34375 29.511719 4.34375 30.023438 Z M 4.34375 30.023438 "/>
<path style=" stroke:none;fill-rule:nonzero;fill:rgb(100%,72.156863%,72.156863%);fill-opacity:1;" d="M 2.234375 20.554688 C 2.398438 20.445312 2.507812 20.269531 2.53125 20.074219 C 2.558594 19.878906 2.492188 19.679688 2.359375 19.535156 L 2.855469 12.410156 L 1.429688 12.550781 L 1.390625 19.527344 C 1.160156 19.777344 1.148438 20.160156 1.363281 20.421875 C 1.582031 20.683594 1.953125 20.738281 2.234375 20.554688 Z M 2.234375 20.554688 "/>
<path style=" stroke:none;fill-rule:nonzero;fill:rgb(18.431373%,18.039216%,25.490196%);fill-opacity:1;" d="M 4.988281 27.832031 C 4.847656 27.832031 4.730469 27.726562 4.710938 27.585938 L 4.273438 23.878906 C 4.261719 23.769531 4.171875 23.6875 4.066406 23.6875 C 3.960938 23.683594 3.867188 23.761719 3.851562 23.871094 L 3.300781 27.421875 C 3.28125 27.558594 3.164062 27.660156 3.027344 27.65625 L 2.132812 27.65625 C 2.0625 27.65625 1.992188 27.628906 1.9375 27.574219 C 1.886719 27.523438 1.859375 27.449219 1.859375 27.375 L 2.285156 19.503906 C 2.285156 19.363281 2.386719 19.246094 2.519531 19.226562 L 5.832031 18.742188 C 5.910156 18.730469 5.992188 18.753906 6.054688 18.808594 C 6.113281 18.859375 6.148438 18.9375 6.148438 19.019531 L 6.089844 27.515625 C 6.089844 27.664062 5.972656 27.785156 5.828125 27.792969 L 5 27.832031 C 4.996094 27.832031 4.992188 27.832031 4.988281 27.832031 Z M 4.988281 27.832031 "/>
<path style=" stroke:none;fill-rule:nonzero;fill:rgb(24.705882%,23.921569%,33.72549%);fill-opacity:1;" d="M 3.269531 19.800781 C 2.953125 19.800781 2.636719 19.742188 2.335938 19.632812 C 2.234375 19.59375 2.160156 19.496094 2.15625 19.382812 C 2.128906 18.742188 1.960938 15.429688 1.476562 13.410156 C 1.28125 12.601562 1.585938 11.75 2.25 11.261719 C 2.277344 11.242188 2.300781 11.222656 2.328125 11.203125 C 2.902344 10.816406 3.628906 10.757812 4.253906 11.050781 C 4.902344 11.34375 5.351562 11.953125 5.441406 12.664062 L 6.234375 18.640625 C 6.246094 18.714844 6.226562 18.792969 6.179688 18.851562 C 6.132812 18.910156 6.066406 18.949219 5.992188 18.957031 C 5.71875 18.984375 5.148438 19.09375 4.417969 19.503906 C 4.066406 19.699219 3.671875 19.804688 3.269531 19.800781 Z M 3.269531 19.800781 "/>
<path style=" stroke:none;fill-rule:nonzero;fill:rgb(24.705882%,23.921569%,33.72549%);fill-opacity:1;" d="M 2.300781 14.847656 L 0.992188 14.488281 C 0.847656 14.449219 0.761719 14.292969 0.800781 14.144531 L 1.257812 12.425781 C 1.359375 12.046875 1.730469 11.804688 2.113281 11.867188 C 2.5 11.929688 2.773438 12.277344 2.75 12.671875 L 2.648438 14.59375 C 2.644531 14.675781 2.601562 14.753906 2.535156 14.804688 C 2.464844 14.851562 2.378906 14.871094 2.300781 14.847656 Z M 2.300781 14.847656 "/>
<path style=" stroke:none;fill-rule:nonzero;fill:rgb(100%,72.156863%,72.156863%);fill-opacity:1;" d="M 5.257812 8.710938 C 5.257812 9.554688 4.585938 10.238281 3.753906 10.238281 C 2.921875 10.238281 2.246094 9.554688 2.246094 8.710938 C 2.246094 7.867188 2.921875 7.183594 3.753906 7.183594 C 4.585938 7.183594 5.257812 7.867188 5.257812 8.710938 Z M 5.257812 8.710938 "/>
<path style=" stroke:none;fill-rule:nonzero;fill:rgb(100%,72.156863%,72.156863%);fill-opacity:1;" d="M 9.210938 11.714844 C 9.203125 11.746094 9.199219 11.78125 9.199219 11.816406 L 6.5625 13.355469 L 5.921875 12.984375 L 5.238281 13.890625 L 6.609375 14.878906 L 9.617188 12.472656 C 9.867188 12.570312 10.148438 12.496094 10.324219 12.292969 C 10.5 12.085938 10.53125 11.792969 10.40625 11.554688 C 10.28125 11.3125 10.019531 11.179688 9.753906 11.214844 C 9.488281 11.25 9.273438 11.449219 9.210938 11.714844 Z M 9.210938 11.714844 "/>
<path style=" stroke:none;fill-rule:nonzero;fill:rgb(24.705882%,23.921569%,33.72549%);fill-opacity:1;" d="M 6.34375 13.429688 L 5.210938 14.179688 C 5.082031 14.261719 4.910156 14.226562 4.828125 14.09375 L 3.875 12.601562 C 3.660156 12.273438 3.730469 11.832031 4.03125 11.582031 C 4.335938 11.335938 4.773438 11.359375 5.046875 11.636719 L 6.390625 13 C 6.449219 13.058594 6.476562 13.140625 6.46875 13.226562 C 6.460938 13.308594 6.414062 13.386719 6.34375 13.429688 Z M 6.34375 13.429688 "/>
<path style=" stroke:none;fill-rule:nonzero;fill:rgb(18.431373%,18.039216%,25.490196%);fill-opacity:1;" d="M 2.6875 9.917969 C 2.96875 10.222656 3.492188 10.058594 3.527344 9.644531 C 3.53125 9.613281 3.53125 9.582031 3.527344 9.546875 C 3.507812 9.367188 3.402344 9.199219 3.429688 9.003906 C 3.433594 8.957031 3.449219 8.910156 3.480469 8.871094 C 3.703125 8.566406 4.230469 9.007812 4.441406 8.730469 C 4.570312 8.5625 4.417969 8.296875 4.515625 8.109375 C 4.648438 7.859375 5.035156 7.980469 5.28125 7.84375 C 5.550781 7.691406 5.535156 7.269531 5.359375 7.015625 C 5.140625 6.703125 4.757812 6.535156 4.378906 6.511719 C 4.003906 6.484375 3.628906 6.589844 3.277344 6.730469 C 2.878906 6.886719 2.480469 7.105469 2.234375 7.460938 C 1.933594 7.894531 1.90625 8.480469 2.054688 8.984375 C 2.148438 9.292969 2.457031 9.671875 2.6875 9.917969 Z M 2.6875 9.917969 "/>
<path style=" stroke:none;fill-rule:nonzero;fill:rgb(24.705882%,23.921569%,33.72549%);fill-opacity:1;" d="M 8.648438 30.027344 L 0.0625 30.027344 C 0.0273438 30.027344 0 30 0 29.964844 C 0 29.929688 0.0273438 29.902344 0.0625 29.902344 L 8.648438 29.902344 C 8.683594 29.902344 8.710938 29.929688 8.710938 29.964844 C 8.710938 30 8.683594 30.027344 8.648438 30.027344 Z M 8.648438 30.027344 "/>
</g>
</svg>
