<?xml version="1.0" encoding="UTF-8"?>
<svg xmlns="http://www.w3.org/2000/svg" xmlns:xlink="http://www.w3.org/1999/xlink" width="54pt" height="34pt" viewBox="0 0 54 34" version="1.1">
<defs>
<linearGradient id="linear0" gradientUnits="userSpaceOnUse" x1="435.95" y1="538.91" x2="435.95" y2="377.68" gradientTransform="matrix(0.0618132,0,0,0.0629865,0,0)">
<stop offset="0" style="stop-color:rgb(50.196078%,50.196078%,50.196078%);stop-opacity:0.25098;"/>
<stop offset="0.54" style="stop-color:rgb(50.196078%,50.196078%,50.196078%);stop-opacity:0.121569;"/>
<stop offset="1" style="stop-color:rgb(50.196078%,50.196078%,50.196078%);stop-opacity:0.101961;"/>
</linearGradient>
<linearGradient id="linear1" gradientUnits="userSpaceOnUse" x1="895.46" y1="705.26" x2="895.46" y2="584.97" gradientTransform="matrix(0.0618132,0,0,0.0629865,-10.140453,-11.372206)">
<stop offset="0" style="stop-color:rgb(70.196078%,70.196078%,70.196078%);stop-opacity:0.25098;"/>
<stop offset="0.54" style="stop-color:rgb(70.196078%,70.196078%,70.196078%);stop-opacity:0.101961;"/>
<stop offset="1" style="stop-color:rgb(70.196078%,70.196078%,70.196078%);stop-opacity:0.0509804;"/>
</linearGradient>
<linearGradient id="linear2" gradientUnits="userSpaceOnUse" x1="858.28" y1="627.87" x2="858.28" y2="622.08" gradientTransform="matrix(0.0618132,0,0,0.0629865,-10.140453,-11.372206)">
<stop offset="0" style="stop-color:rgb(0%,0%,0%);stop-opacity:0.121569;"/>
<stop offset="0.55" style="stop-color:rgb(0%,0%,0%);stop-opacity:0.0901961;"/>
<stop offset="1" style="stop-color:rgb(0%,0%,0%);stop-opacity:0.0196078;"/>
</linearGradient>
<linearGradient id="linear3" gradientUnits="userSpaceOnUse" x1="884.88" y1="621.23" x2="884.88" y2="603.52" gradientTransform="matrix(0.0618132,0,0,0.0629865,-10.140453,-11.372206)">
<stop offset="0" style="stop-color:rgb(0%,0%,0%);stop-opacity:0.121569;"/>
<stop offset="0.55" style="stop-color:rgb(0%,0%,0%);stop-opacity:0.0901961;"/>
<stop offset="1" style="stop-color:rgb(0%,0%,0%);stop-opacity:0.0196078;"/>
</linearGradient>
<linearGradient id="linear4" gradientUnits="userSpaceOnUse" x1="547.45" y1="337.11" x2="547.45" y2="180.55" gradientTransform="matrix(0.0618132,0,0,0.0629865,-10.140453,-11.372206)">
<stop offset="0" style="stop-color:rgb(50.196078%,50.196078%,50.196078%);stop-opacity:0.25098;"/>
<stop offset="0.54" style="stop-color:rgb(50.196078%,50.196078%,50.196078%);stop-opacity:0.121569;"/>
<stop offset="1" style="stop-color:rgb(50.196078%,50.196078%,50.196078%);stop-opacity:0.101961;"/>
</linearGradient>
<clipPath id="clip1">
  <path d="M 19.53125 2.261719 L 22.5 2.261719 L 22.5 7.542969 L 19.53125 7.542969 Z M 19.53125 2.261719 "/>
</clipPath>
<clipPath id="clip2">
  <path d="M 27.652344 4.164062 L 23.796875 4.164062 L 23.796875 5.792969 L 26.015625 5.792969 C 25.808594 6.832031 24.945312 7.425781 23.796875 7.425781 C 22.441406 7.425781 21.347656 6.308594 21.347656 4.929688 C 21.347656 3.554688 22.441406 2.4375 23.796875 2.4375 C 24.351562 2.433594 24.890625 2.632812 25.320312 2.992188 L 26.527344 1.765625 C 25.140625 0.523438 23.121094 0.363281 21.566406 1.371094 C 20.011719 2.378906 19.296875 4.3125 19.8125 6.113281 C 20.328125 7.917969 21.953125 9.15625 23.796875 9.152344 C 25.867188 9.152344 27.75 7.617188 27.75 4.929688 C 27.746094 4.671875 27.714844 4.414062 27.652344 4.164062 Z M 27.652344 4.164062 "/>
</clipPath>
<clipPath id="clip3">
  <path d="M 19.53125 0.503906 L 27.941406 0.503906 L 27.941406 5 L 19.53125 5 Z M 19.53125 0.503906 "/>
</clipPath>
<clipPath id="clip4">
  <path d="M 27.652344 4.164062 L 23.796875 4.164062 L 23.796875 5.792969 L 26.015625 5.792969 C 25.808594 6.832031 24.945312 7.425781 23.796875 7.425781 C 22.441406 7.425781 21.347656 6.308594 21.347656 4.929688 C 21.347656 3.554688 22.441406 2.4375 23.796875 2.4375 C 24.351562 2.433594 24.890625 2.632812 25.320312 2.992188 L 26.527344 1.765625 C 25.140625 0.523438 23.121094 0.363281 21.566406 1.371094 C 20.011719 2.378906 19.296875 4.3125 19.8125 6.113281 C 20.328125 7.917969 21.953125 9.15625 23.796875 9.152344 C 25.867188 9.152344 27.75 7.617188 27.75 4.929688 C 27.746094 4.671875 27.714844 4.414062 27.652344 4.164062 Z M 27.652344 4.164062 "/>
</clipPath>
<clipPath id="clip5">
  <path d="M 19.53125 0.503906 L 27.941406 0.503906 L 27.941406 9.304688 L 19.53125 9.304688 Z M 19.53125 0.503906 "/>
</clipPath>
<clipPath id="clip6">
  <path d="M 27.652344 4.164062 L 23.796875 4.164062 L 23.796875 5.792969 L 26.015625 5.792969 C 25.808594 6.832031 24.945312 7.425781 23.796875 7.425781 C 22.441406 7.425781 21.347656 6.308594 21.347656 4.929688 C 21.347656 3.554688 22.441406 2.4375 23.796875 2.4375 C 24.351562 2.433594 24.890625 2.632812 25.320312 2.992188 L 26.527344 1.765625 C 25.140625 0.523438 23.121094 0.363281 21.566406 1.371094 C 20.011719 2.378906 19.296875 4.3125 19.8125 6.113281 C 20.328125 7.917969 21.953125 9.15625 23.796875 9.152344 C 25.867188 9.152344 27.75 7.617188 27.75 4.929688 C 27.746094 4.671875 27.714844 4.414062 27.652344 4.164062 Z M 27.652344 4.164062 "/>
</clipPath>
<clipPath id="clip7">
  <path d="M 21.511719 2.261719 L 27.941406 2.261719 L 27.941406 9.304688 L 21.511719 9.304688 Z M 21.511719 2.261719 "/>
</clipPath>
<clipPath id="clip8">
  <path d="M 27.652344 4.164062 L 23.796875 4.164062 L 23.796875 5.792969 L 26.015625 5.792969 C 25.808594 6.832031 24.945312 7.425781 23.796875 7.425781 C 22.441406 7.425781 21.347656 6.308594 21.347656 4.929688 C 21.347656 3.554688 22.441406 2.4375 23.796875 2.4375 C 24.351562 2.433594 24.890625 2.632812 25.320312 2.992188 L 26.527344 1.765625 C 25.140625 0.523438 23.121094 0.363281 21.566406 1.371094 C 20.011719 2.378906 19.296875 4.3125 19.8125 6.113281 C 20.328125 7.917969 21.953125 9.15625 23.796875 9.152344 C 25.867188 9.152344 27.75 7.617188 27.75 4.929688 C 27.746094 4.671875 27.714844 4.414062 27.652344 4.164062 Z M 27.652344 4.164062 "/>
</clipPath>
<linearGradient id="linear5" gradientUnits="userSpaceOnUse" x1="378.88" y1="511.52" x2="378.88" y2="366.33" gradientTransform="matrix(0.0618132,0,0,0.0629865,-10.140453,-11.372206)">
<stop offset="0" style="stop-color:rgb(50.196078%,50.196078%,50.196078%);stop-opacity:0.25098;"/>
<stop offset="0.54" style="stop-color:rgb(50.196078%,50.196078%,50.196078%);stop-opacity:0.121569;"/>
<stop offset="1" style="stop-color:rgb(50.196078%,50.196078%,50.196078%);stop-opacity:0.101961;"/>
</linearGradient>
<linearGradient id="linear6" gradientUnits="userSpaceOnUse" x1="378.07" y1="483.02" x2="378.07" y2="406.49" gradientTransform="matrix(0.0618132,0,0,0.0629865,-10.140453,-11.372206)">
<stop offset="0" style="stop-color:rgb(50.196078%,50.196078%,50.196078%);stop-opacity:0.25098;"/>
<stop offset="0.54" style="stop-color:rgb(50.196078%,50.196078%,50.196078%);stop-opacity:0.121569;"/>
<stop offset="1" style="stop-color:rgb(50.196078%,50.196078%,50.196078%);stop-opacity:0.101961;"/>
</linearGradient>
<linearGradient id="linear7" gradientUnits="userSpaceOnUse" x1="481.22" y1="511.34" x2="481.22" y2="371.35" gradientTransform="matrix(0.0618132,0,0,0.0629865,-10.140453,-11.372206)">
<stop offset="0" style="stop-color:rgb(50.196078%,50.196078%,50.196078%);stop-opacity:0.25098;"/>
<stop offset="0.54" style="stop-color:rgb(50.196078%,50.196078%,50.196078%);stop-opacity:0.121569;"/>
<stop offset="1" style="stop-color:rgb(50.196078%,50.196078%,50.196078%);stop-opacity:0.101961;"/>
</linearGradient>
<linearGradient id="linear8" gradientUnits="userSpaceOnUse" x1="443.8" y1="328.74" x2="443.8" y2="216.51" gradientTransform="matrix(0.0618132,0,0,0.0629865,0,0)">
<stop offset="0" style="stop-color:rgb(50.196078%,50.196078%,50.196078%);stop-opacity:0.25098;"/>
<stop offset="0.54" style="stop-color:rgb(50.196078%,50.196078%,50.196078%);stop-opacity:0.121569;"/>
<stop offset="1" style="stop-color:rgb(50.196078%,50.196078%,50.196078%);stop-opacity:0.101961;"/>
</linearGradient>
<linearGradient id="linear9" gradientUnits="userSpaceOnUse" x1="708.4" y1="487.94" x2="708.4" y2="415.88" gradientTransform="matrix(0.0618132,0,0,0.0629865,-10.140453,-11.372206)">
<stop offset="0" style="stop-color:rgb(50.196078%,50.196078%,50.196078%);stop-opacity:0.25098;"/>
<stop offset="0.54" style="stop-color:rgb(50.196078%,50.196078%,50.196078%);stop-opacity:0.121569;"/>
<stop offset="1" style="stop-color:rgb(50.196078%,50.196078%,50.196078%);stop-opacity:0.101961;"/>
</linearGradient>
<linearGradient id="linear10" gradientUnits="userSpaceOnUse" x1="744.45" y1="486.82" x2="744.45" y2="417.99" gradientTransform="matrix(0.0618132,0,0,0.0629865,-10.140453,-11.372206)">
<stop offset="0" style="stop-color:rgb(50.196078%,50.196078%,50.196078%);stop-opacity:0.25098;"/>
<stop offset="0.54" style="stop-color:rgb(50.196078%,50.196078%,50.196078%);stop-opacity:0.121569;"/>
<stop offset="1" style="stop-color:rgb(50.196078%,50.196078%,50.196078%);stop-opacity:0.101961;"/>
</linearGradient>
<linearGradient id="linear11" gradientUnits="userSpaceOnUse" x1="780.78" y1="486.82" x2="780.78" y2="437.78" gradientTransform="matrix(0.0618132,0,0,0.0629865,-10.140453,-11.372206)">
<stop offset="0" style="stop-color:rgb(50.196078%,50.196078%,50.196078%);stop-opacity:0.25098;"/>
<stop offset="0.54" style="stop-color:rgb(50.196078%,50.196078%,50.196078%);stop-opacity:0.121569;"/>
<stop offset="1" style="stop-color:rgb(50.196078%,50.196078%,50.196078%);stop-opacity:0.101961;"/>
</linearGradient>
<linearGradient id="linear12" gradientUnits="userSpaceOnUse" x1="832.79" y1="509.37" x2="832.79" y2="437.64" gradientTransform="matrix(0.0618132,0,0,0.0629865,-10.140453,-11.372206)">
<stop offset="0" style="stop-color:rgb(50.196078%,50.196078%,50.196078%);stop-opacity:0.25098;"/>
<stop offset="0.54" style="stop-color:rgb(50.196078%,50.196078%,50.196078%);stop-opacity:0.121569;"/>
<stop offset="1" style="stop-color:rgb(50.196078%,50.196078%,50.196078%);stop-opacity:0.101961;"/>
</linearGradient>
<linearGradient id="linear13" gradientUnits="userSpaceOnUse" x1="858.05" y1="379.79" x2="858.05" y2="324.38" gradientTransform="matrix(0.0618132,0,0,0.0629865,-10.140453,-11.372206)">
<stop offset="0" style="stop-color:rgb(50.196078%,50.196078%,50.196078%);stop-opacity:0.25098;"/>
<stop offset="0.54" style="stop-color:rgb(50.196078%,50.196078%,50.196078%);stop-opacity:0.121569;"/>
<stop offset="1" style="stop-color:rgb(50.196078%,50.196078%,50.196078%);stop-opacity:0.101961;"/>
</linearGradient>
<linearGradient id="linear14" gradientUnits="userSpaceOnUse" x1="898.6" y1="381.19" x2="898.6" y2="297.72" gradientTransform="matrix(0.0618132,0,0,0.0629865,-10.140453,-11.372206)">
<stop offset="0" style="stop-color:rgb(50.196078%,50.196078%,50.196078%);stop-opacity:0.25098;"/>
<stop offset="0.54" style="stop-color:rgb(50.196078%,50.196078%,50.196078%);stop-opacity:0.121569;"/>
<stop offset="1" style="stop-color:rgb(50.196078%,50.196078%,50.196078%);stop-opacity:0.101961;"/>
</linearGradient>
<linearGradient id="linear15" gradientUnits="userSpaceOnUse" x1="939.58" y1="380.99" x2="939.58" y2="323.88" gradientTransform="matrix(0.0618132,0,0,0.0629865,-10.140453,-11.372206)">
<stop offset="0" style="stop-color:rgb(50.196078%,50.196078%,50.196078%);stop-opacity:0.25098;"/>
<stop offset="0.54" style="stop-color:rgb(50.196078%,50.196078%,50.196078%);stop-opacity:0.121569;"/>
<stop offset="1" style="stop-color:rgb(50.196078%,50.196078%,50.196078%);stop-opacity:0.101961;"/>
</linearGradient>
<linearGradient id="linear16" gradientUnits="userSpaceOnUse" x1="816.78" y1="381.19" x2="816.78" y2="323.68" gradientTransform="matrix(0.0618132,0,0,0.0629865,-10.140453,-11.372206)">
<stop offset="0" style="stop-color:rgb(50.196078%,50.196078%,50.196078%);stop-opacity:0.25098;"/>
<stop offset="0.54" style="stop-color:rgb(50.196078%,50.196078%,50.196078%);stop-opacity:0.121569;"/>
<stop offset="1" style="stop-color:rgb(50.196078%,50.196078%,50.196078%);stop-opacity:0.101961;"/>
</linearGradient>
<linearGradient id="linear17" gradientUnits="userSpaceOnUse" x1="976.13" y1="379.79" x2="976.13" y2="324.99" gradientTransform="matrix(0.0618132,0,0,0.0629865,-10.140453,-11.372206)">
<stop offset="0" style="stop-color:rgb(50.196078%,50.196078%,50.196078%);stop-opacity:0.25098;"/>
<stop offset="0.54" style="stop-color:rgb(50.196078%,50.196078%,50.196078%);stop-opacity:0.121569;"/>
<stop offset="1" style="stop-color:rgb(50.196078%,50.196078%,50.196078%);stop-opacity:0.101961;"/>
</linearGradient>
<linearGradient id="linear18" gradientUnits="userSpaceOnUse" x1="784.46" y1="379.79" x2="784.46" y2="289.72" gradientTransform="matrix(0.0618132,0,0,0.0629865,-10.140453,-11.372206)">
<stop offset="0" style="stop-color:rgb(50.196078%,50.196078%,50.196078%);stop-opacity:0.25098;"/>
<stop offset="0.54" style="stop-color:rgb(50.196078%,50.196078%,50.196078%);stop-opacity:0.121569;"/>
<stop offset="1" style="stop-color:rgb(50.196078%,50.196078%,50.196078%);stop-opacity:0.101961;"/>
</linearGradient>
</defs>
<g id="surface1">
<path style=" stroke:none;fill-rule:nonzero;fill:url(#linear0);" d="M 0 23.789062 L 53.894531 23.789062 L 53.894531 33.945312 L 0 33.945312 Z M 0 23.789062 "/>
<path style=" stroke:none;fill-rule:nonzero;fill:rgb(100%,100%,100%);fill-opacity:1;" d="M 0.316406 24.121094 L 53.503906 24.121094 L 53.503906 33.40625 L 0.316406 33.40625 Z M 0.316406 24.121094 "/>
<path style=" stroke:none;fill-rule:nonzero;fill:rgb(96.078431%,96.078431%,96.078431%);fill-opacity:1;" d="M 3.582031 26.015625 L 34.5 26.015625 L 34.5 31.539062 L 3.582031 31.539062 Z M 3.582031 26.015625 "/>
<path style=" stroke:none;fill-rule:nonzero;fill:url(#linear1);" d="M 46.492188 26.367188 C 45.441406 25.253906 43.722656 25.167969 42.566406 26.171875 C 41.414062 27.175781 41.230469 28.921875 42.148438 30.152344 C 43.066406 31.386719 44.765625 31.671875 46.023438 30.8125 L 48.09375 33.007812 C 48.121094 33.03125 48.15625 33.050781 48.191406 33.050781 C 48.230469 33.050781 48.265625 33.035156 48.292969 33.007812 L 48.808594 32.503906 C 48.832031 32.480469 48.847656 32.445312 48.851562 32.40625 C 48.851562 32.367188 48.835938 32.332031 48.8125 32.304688 L 46.742188 30.113281 C 47.5625 28.96875 47.457031 27.390625 46.492188 26.367188 Z M 45.847656 29.894531 C 45.035156 30.695312 43.738281 30.667969 42.953125 29.835938 C 42.167969 29.007812 42.195312 27.6875 43.011719 26.886719 C 43.824219 26.089844 45.121094 26.113281 45.90625 26.945312 C 46.6875 27.777344 46.664062 29.097656 45.847656 29.894531 Z M 45.847656 29.894531 "/>
<path style=" stroke:none;fill-rule:nonzero;fill:url(#linear2);" d="M 42.914062 27.808594 C 42.683594 27.808594 42.683594 28.175781 42.914062 28.175781 C 43.144531 28.175781 43.144531 27.808594 42.914062 27.808594 Z M 42.914062 27.808594 "/>
<path style=" stroke:none;fill-rule:nonzero;fill:url(#linear3);" d="M 44.519531 26.640625 C 43.925781 26.625 43.363281 26.917969 43.035156 27.421875 C 42.9375 27.578125 43.214844 27.714844 43.3125 27.5625 C 43.558594 27.164062 44.03125 26.914062 44.542969 26.925781 C 45.066406 26.945312 45.546875 27.230469 45.820312 27.683594 C 45.917969 27.847656 46.175781 27.699219 46.078125 27.535156 C 45.765625 27.011719 45.160156 26.65625 44.519531 26.640625 Z M 44.519531 26.640625 "/>
<path style=" stroke:none;fill-rule:nonzero;fill:rgb(20.784314%,20%,48.235294%);fill-opacity:1;" d="M 46.492188 26.046875 C 45.441406 24.933594 43.722656 24.847656 42.566406 25.851562 C 41.414062 26.855469 41.230469 28.601562 42.148438 29.832031 C 43.066406 31.066406 44.765625 31.351562 46.023438 30.492188 L 48.09375 32.683594 C 48.121094 32.714844 48.15625 32.730469 48.191406 32.730469 C 48.230469 32.730469 48.265625 32.714844 48.292969 32.6875 L 48.808594 32.183594 C 48.832031 32.160156 48.847656 32.125 48.851562 32.085938 C 48.851562 32.046875 48.835938 32.011719 48.8125 31.984375 L 46.742188 29.789062 C 47.558594 28.644531 47.457031 27.070312 46.492188 26.046875 Z M 45.847656 29.574219 C 45.035156 30.375 43.738281 30.347656 42.953125 29.515625 C 42.167969 28.6875 42.195312 27.363281 43.011719 26.566406 C 43.824219 25.769531 45.121094 25.792969 45.90625 26.625 C 46.6875 27.457031 46.664062 28.777344 45.847656 29.574219 Z M 45.847656 29.574219 "/>
<path style=" stroke:none;fill-rule:nonzero;fill:rgb(20.784314%,20%,48.235294%);fill-opacity:1;" d="M 42.914062 27.492188 C 42.683594 27.492188 42.683594 27.855469 42.914062 27.855469 C 43.144531 27.855469 43.144531 27.492188 42.914062 27.492188 Z M 42.914062 27.492188 "/>
<path style=" stroke:none;fill-rule:nonzero;fill:rgb(20.784314%,20%,48.235294%);fill-opacity:1;" d="M 44.519531 26.320312 C 43.925781 26.304688 43.363281 26.597656 43.035156 27.101562 C 42.9375 27.257812 43.214844 27.398438 43.3125 27.242188 C 43.558594 26.84375 44.03125 26.59375 44.542969 26.605469 C 45.066406 26.625 45.546875 26.910156 45.820312 27.363281 C 45.917969 27.527344 46.175781 27.378906 46.078125 27.214844 C 45.765625 26.691406 45.160156 26.335938 44.519531 26.320312 Z M 44.519531 26.320312 "/>
<path style=" stroke:none;fill-rule:nonzero;fill:url(#linear4);" d="M 28.316406 4.035156 L 23.808594 4.035156 L 23.808594 5.9375 L 26.40625 5.9375 C 26.164062 7.148438 25.152344 7.84375 23.808594 7.84375 C 22.246094 7.820312 20.992188 6.523438 20.992188 4.929688 C 20.992188 3.335938 22.246094 2.039062 23.808594 2.015625 C 24.457031 2.015625 25.089844 2.246094 25.589844 2.667969 L 26.996094 1.230469 C 25.382812 -0.214844 23.023438 -0.398438 21.210938 0.777344 C 19.394531 1.953125 18.5625 4.210938 19.164062 6.3125 C 19.765625 8.417969 21.660156 9.863281 23.808594 9.859375 C 26.226562 9.859375 28.429688 8.066406 28.429688 4.929688 C 28.425781 4.628906 28.386719 4.328125 28.316406 4.035156 Z M 28.316406 4.035156 "/>
<g clip-path="url(#clip1)" clip-rule="nonzero">
<g clip-path="url(#clip2)" clip-rule="nonzero">
<path style=" stroke:none;fill-rule:nonzero;fill:rgb(98.431373%,73.72549%,1.960784%);fill-opacity:1;" d="M 19.085938 7.425781 L 19.085938 2.433594 L 22.285156 4.929688 Z M 19.085938 7.425781 "/>
</g>
</g>
<g clip-path="url(#clip3)" clip-rule="nonzero">
<g clip-path="url(#clip4)" clip-rule="nonzero">
<path style=" stroke:none;fill-rule:nonzero;fill:rgb(91.764706%,26.27451%,20.784314%);fill-opacity:1;" d="M 19.085938 2.433594 L 22.285156 4.929688 L 23.605469 3.757812 L 28.121094 3.011719 L 28.121094 0.324219 L 19.085938 0.324219 Z M 19.085938 2.433594 "/>
</g>
</g>
<g clip-path="url(#clip5)" clip-rule="nonzero">
<g clip-path="url(#clip6)" clip-rule="nonzero">
<path style=" stroke:none;fill-rule:nonzero;fill:rgb(20.392157%,65.882353%,32.54902%);fill-opacity:1;" d="M 19.085938 7.425781 L 24.734375 3.011719 L 26.222656 3.199219 L 28.121094 0.324219 L 28.121094 9.535156 L 19.085938 9.535156 Z M 19.085938 7.425781 "/>
</g>
</g>
<g clip-path="url(#clip7)" clip-rule="nonzero">
<g clip-path="url(#clip8)" clip-rule="nonzero">
<path style=" stroke:none;fill-rule:nonzero;fill:rgb(25.882353%,52.156863%,95.686275%);fill-opacity:1;" d="M 28.121094 9.535156 L 22.285156 4.929688 L 21.53125 4.355469 L 28.121094 2.433594 Z M 28.121094 9.535156 "/>
</g>
</g>
<path style=" stroke:none;fill-rule:nonzero;fill:url(#linear5);" d="M 13.277344 11.703125 C 15.90625 11.703125 17.910156 13.679688 17.910156 16.273438 C 17.910156 18.863281 15.90625 20.847656 13.277344 20.847656 C 10.652344 20.847656 8.652344 18.867188 8.652344 16.273438 C 8.652344 13.679688 10.652344 11.703125 13.277344 11.703125 Z M 17.910156 20.847656 Z M 17.910156 20.847656 "/>
<path style=" stroke:none;fill-rule:nonzero;fill:url(#linear6);" d="M 13.078125 14.703125 C 13.089844 14.546875 13.101562 14.390625 13.125 14.230469 L 9.601562 14.230469 L 9.601562 14.703125 C 9.953125 14.726562 10.296875 14.761719 10.652344 14.785156 C 11.316406 15.605469 11.980469 16.429688 12.65625 17.265625 L 12.65625 18.546875 C 12.28125 18.578125 11.902344 18.601562 11.523438 18.636719 L 11.523438 19.050781 L 15.003906 19.050781 L 15.003906 18.636719 C 14.628906 18.613281 14.25 18.601562 13.875 18.589844 C 13.886719 18.136719 13.894531 17.675781 13.90625 17.222656 C 14.5625 16.636719 15.207031 16.050781 15.847656 15.460938 C 16.179688 15.4375 16.511719 15.414062 16.855469 15.382812 L 16.855469 14.832031 C 15.867188 14.839844 14.894531 14.851562 13.90625 14.875 L 13.90625 15.339844 C 14.273438 15.359375 14.640625 15.371094 15.003906 15.382812 C 14.527344 15.800781 14.050781 16.207031 13.574219 16.625 C 13.089844 16.015625 12.601562 15.394531 12.113281 14.785156 C 12.4375 14.75 12.757812 14.726562 13.078125 14.703125 Z M 13.078125 14.703125 "/>
<path style=" stroke:none;fill-rule:nonzero;fill:url(#linear7);" d="M 21.136719 12.15625 L 18.464844 12.019531 C 18.421875 14.175781 18.378906 16.34375 18.332031 18.5 C 18.753906 18.542969 19.1875 18.589844 19.605469 18.636719 C 20.117188 16.46875 20.625 14.308594 21.136719 12.15625 Z M 18.207031 20.835938 L 19.738281 20.835938 L 19.738281 19.539062 L 18.078125 19.402344 C 18.121094 19.886719 18.164062 20.363281 18.207031 20.835938 Z M 18.207031 20.835938 "/>
<path style=" stroke:none;fill-rule:nonzero;fill:rgb(41.960784%,0%,58.039216%);fill-opacity:1;" d="M 13.445312 12.175781 C 15.800781 12.175781 17.597656 13.949219 17.597656 16.273438 C 17.597656 18.597656 15.800781 20.371094 13.445312 20.371094 C 11.089844 20.371094 9.292969 18.597656 9.292969 16.273438 C 9.292969 13.949219 11.089844 12.175781 13.445312 12.175781 Z M 17.597656 20.371094 Z M 17.597656 20.371094 "/>
<path style=" stroke:none;fill-rule:nonzero;fill:rgb(100%,100%,100%);fill-opacity:1;" d="M 13.265625 14.867188 C 13.277344 14.726562 13.285156 14.582031 13.304688 14.441406 L 10.148438 14.441406 L 10.148438 14.867188 C 10.464844 14.886719 10.773438 14.917969 11.089844 14.9375 C 11.6875 15.675781 12.28125 16.414062 12.890625 17.164062 L 12.890625 18.308594 C 12.550781 18.339844 12.214844 18.359375 11.875 18.390625 L 11.875 18.765625 L 14.996094 18.765625 L 14.996094 18.390625 C 14.65625 18.371094 14.320312 18.359375 13.980469 18.347656 C 13.992188 17.945312 14 17.53125 14.011719 17.125 C 14.597656 16.597656 15.175781 16.070312 15.75 15.546875 C 16.046875 15.527344 16.347656 15.503906 16.65625 15.476562 L 16.65625 14.980469 C 15.769531 14.988281 14.894531 15 14.011719 15.019531 L 14.011719 15.433594 C 14.339844 15.457031 14.667969 15.464844 14.996094 15.476562 C 14.570312 15.851562 14.140625 16.214844 13.714844 16.589844 C 13.277344 16.042969 12.839844 15.484375 12.402344 14.9375 C 12.691406 14.90625 12.976562 14.886719 13.265625 14.867188 Z M 13.265625 14.867188 "/>
<path style=" stroke:none;fill-rule:nonzero;fill:rgb(41.960784%,0%,58.039216%);fill-opacity:1;" d="M 20.488281 12.578125 L 18.09375 12.457031 C 18.054688 14.390625 18.015625 16.335938 17.976562 18.269531 C 18.351562 18.308594 18.738281 18.351562 19.117188 18.390625 C 19.574219 16.449219 20.03125 14.511719 20.488281 12.578125 Z M 17.867188 20.363281 L 19.238281 20.363281 L 19.238281 19.199219 L 17.75 19.078125 C 17.785156 19.515625 17.828125 19.9375 17.867188 20.363281 Z M 17.867188 20.363281 "/>
<path style=" stroke:none;fill-rule:nonzero;fill:url(#linear8);" d="M 26.238281 20.707031 L 24.65625 19.578125 L 24.65625 13.636719 L 26.246094 14.132812 L 26.246094 18.128906 L 24.703125 19.527344 L 28.46875 17.511719 L 27.425781 17.03125 L 26.71875 15.46875 L 30.207031 16.558594 L 30.207031 18.296875 Z M 26.238281 20.707031 "/>
<path style=" stroke:none;fill-rule:nonzero;fill:url(#linear9);" d="M 32.773438 18.855469 L 32.757812 18.855469 L 32.757812 19.289062 L 32.285156 19.289062 L 32.285156 14.824219 L 32.757812 14.96875 L 32.757812 16.804688 L 32.769531 16.804688 C 33.003906 16.402344 33.34375 16.203125 33.792969 16.203125 C 34.171875 16.203125 34.46875 16.335938 34.683594 16.609375 C 34.898438 16.875 35.007812 17.238281 35.007812 17.691406 C 35.007812 18.195312 34.886719 18.601562 34.644531 18.90625 C 34.40625 19.210938 34.074219 19.363281 33.65625 19.359375 C 33.292969 19.375 32.949219 19.179688 32.773438 18.855469 Z M 32.757812 17.636719 L 32.757812 18.058594 C 32.753906 18.292969 32.839844 18.523438 32.996094 18.695312 C 33.167969 18.871094 33.40625 18.96875 33.65625 18.953125 C 33.898438 18.9375 34.125 18.816406 34.277344 18.617188 C 34.441406 18.394531 34.527344 18.082031 34.527344 17.683594 C 34.527344 17.347656 34.449219 17.085938 34.296875 16.894531 C 34.144531 16.707031 33.917969 16.597656 33.679688 16.609375 C 33.425781 16.597656 33.179688 16.707031 33.011719 16.902344 C 32.839844 17.105469 32.75 17.367188 32.757812 17.636719 Z M 32.757812 17.636719 "/>
<path style=" stroke:none;fill-rule:nonzero;fill:url(#linear10);" d="M 35.871094 15.585938 C 35.792969 15.585938 35.714844 15.554688 35.65625 15.496094 C 35.597656 15.4375 35.5625 15.359375 35.566406 15.273438 C 35.566406 15.191406 35.597656 15.109375 35.65625 15.050781 C 35.714844 14.988281 35.792969 14.957031 35.875 14.960938 C 35.957031 14.957031 36.039062 14.988281 36.097656 15.046875 C 36.15625 15.109375 36.1875 15.1875 36.1875 15.273438 C 36.1875 15.355469 36.15625 15.4375 36.097656 15.496094 C 36.039062 15.554688 35.957031 15.589844 35.871094 15.585938 Z M 36.105469 19.292969 L 35.628906 19.292969 L 35.628906 16.273438 L 36.105469 16.273438 Z M 36.105469 19.292969 "/>
<path style=" stroke:none;fill-rule:nonzero;fill:url(#linear11);" d="M 39.351562 19.292969 L 38.878906 19.292969 L 38.878906 17.570312 C 38.878906 16.929688 38.648438 16.609375 38.1875 16.609375 C 37.960938 16.605469 37.746094 16.703125 37.601562 16.882812 C 37.441406 17.074219 37.359375 17.320312 37.367188 17.570312 L 37.367188 19.292969 L 36.894531 19.292969 L 36.894531 16.273438 L 37.367188 16.273438 L 37.367188 16.777344 L 37.378906 16.777344 C 37.601562 16.394531 37.925781 16.203125 38.351562 16.203125 C 38.675781 16.203125 38.921875 16.3125 39.09375 16.523438 C 39.261719 16.738281 39.347656 17.046875 39.351562 17.449219 Z M 39.351562 19.292969 "/>
<path style=" stroke:none;fill-rule:nonzero;fill:url(#linear12);" d="M 42.710938 19.050781 C 42.710938 20.160156 42.1875 20.710938 41.148438 20.710938 C 40.816406 20.71875 40.484375 20.648438 40.183594 20.5 L 40.316406 20.066406 C 40.605469 20.210938 40.871094 20.292969 41.136719 20.292969 C 41.84375 20.292969 42.234375 19.902344 42.234375 19.113281 L 42.234375 18.785156 L 42.222656 18.785156 C 41.996094 19.167969 41.65625 19.359375 41.203125 19.359375 C 40.863281 19.375 40.53125 19.226562 40.3125 18.960938 C 40.089844 18.691406 39.964844 18.324219 39.964844 17.875 C 39.964844 17.359375 40.097656 16.957031 40.335938 16.65625 C 40.578125 16.351562 40.917969 16.191406 41.335938 16.191406 C 41.738281 16.191406 42.023438 16.339844 42.21875 16.667969 L 42.230469 16.667969 L 42.230469 16.273438 L 42.710938 16.273438 Z M 42.234375 17.925781 L 42.234375 17.480469 C 42.238281 17.007812 41.867188 16.621094 41.402344 16.609375 C 40.714844 16.609375 40.46875 17.246094 40.464844 17.847656 C 40.464844 18.421875 40.75 18.933594 41.335938 18.933594 C 41.921875 18.933594 42.226562 18.460938 42.234375 17.925781 Z M 42.234375 17.925781 "/>
<path style=" stroke:none;fill-rule:nonzero;fill:rgb(95.686275%,74.117647%,15.294118%);fill-opacity:1;" d="M 26.644531 20.511719 L 25.15625 19.445312 L 25.15625 13.832031 L 26.65625 14.300781 L 26.65625 18.074219 L 25.199219 19.398438 L 28.757812 17.488281 L 27.769531 17.035156 L 27.101562 15.558594 L 30.398438 16.59375 L 30.398438 18.230469 Z M 26.644531 20.511719 "/>
<path style=" stroke:none;fill-rule:nonzero;fill:rgb(95.686275%,74.117647%,15.294118%);fill-opacity:1;" d="M 32.820312 18.761719 L 32.808594 18.761719 L 32.808594 19.175781 L 32.363281 19.175781 L 32.363281 14.957031 L 32.808594 15.089844 L 32.808594 16.828125 L 32.820312 16.828125 C 33.039062 16.449219 33.363281 16.261719 33.789062 16.261719 C 34.148438 16.261719 34.429688 16.386719 34.628906 16.644531 C 34.832031 16.898438 34.9375 17.242188 34.9375 17.671875 C 34.9375 18.148438 34.820312 18.53125 34.59375 18.816406 C 34.367188 19.105469 34.054688 19.246094 33.660156 19.238281 C 33.3125 19.253906 32.988281 19.070312 32.820312 18.761719 Z M 32.808594 17.613281 L 32.808594 18.007812 C 32.804688 18.230469 32.886719 18.449219 33.035156 18.609375 C 33.199219 18.78125 33.425781 18.867188 33.65625 18.855469 C 33.890625 18.839844 34.105469 18.726562 34.246094 18.539062 C 34.402344 18.328125 34.476562 18.035156 34.476562 17.65625 C 34.476562 17.339844 34.40625 17.089844 34.261719 16.910156 C 34.121094 16.730469 33.902344 16.628906 33.675781 16.640625 C 33.4375 16.632812 33.207031 16.730469 33.046875 16.917969 C 32.886719 17.109375 32.804688 17.355469 32.8125 17.609375 Z M 32.808594 17.613281 "/>
<path style=" stroke:none;fill-rule:nonzero;fill:rgb(95.686275%,74.117647%,15.294118%);fill-opacity:1;" d="M 35.753906 15.671875 C 35.675781 15.671875 35.601562 15.640625 35.546875 15.585938 C 35.492188 15.53125 35.460938 15.453125 35.464844 15.375 C 35.460938 15.296875 35.492188 15.21875 35.546875 15.164062 C 35.601562 15.109375 35.675781 15.074219 35.753906 15.078125 C 35.832031 15.074219 35.90625 15.105469 35.960938 15.164062 C 36.019531 15.21875 36.046875 15.292969 36.046875 15.371094 C 36.046875 15.453125 36.019531 15.527344 35.960938 15.582031 C 35.90625 15.640625 35.832031 15.671875 35.753906 15.671875 Z M 35.972656 19.175781 L 35.523438 19.175781 L 35.523438 16.324219 L 35.972656 16.324219 Z M 35.972656 19.175781 "/>
<path style=" stroke:none;fill-rule:nonzero;fill:rgb(95.686275%,74.117647%,15.294118%);fill-opacity:1;" d="M 39.039062 19.175781 L 38.59375 19.175781 L 38.59375 17.546875 C 38.59375 16.941406 38.375 16.640625 37.941406 16.640625 C 37.726562 16.636719 37.523438 16.730469 37.386719 16.898438 C 37.234375 17.078125 37.15625 17.3125 37.164062 17.546875 L 37.164062 19.175781 L 36.71875 19.175781 L 36.71875 16.324219 L 37.164062 16.324219 L 37.164062 16.796875 L 37.175781 16.796875 C 37.386719 16.4375 37.695312 16.253906 38.09375 16.253906 C 38.402344 16.253906 38.636719 16.355469 38.796875 16.558594 C 38.960938 16.757812 39.039062 17.050781 39.039062 17.429688 Z M 39.039062 19.175781 "/>
<path style=" stroke:none;fill-rule:nonzero;fill:rgb(95.686275%,74.117647%,15.294118%);fill-opacity:1;" d="M 42.214844 18.945312 C 42.214844 19.992188 41.722656 20.515625 40.738281 20.515625 C 40.425781 20.523438 40.113281 20.457031 39.832031 20.316406 L 39.957031 19.90625 C 40.230469 20.046875 40.480469 20.121094 40.734375 20.121094 C 41.398438 20.121094 41.769531 19.753906 41.769531 19.007812 L 41.769531 18.691406 L 41.757812 18.691406 C 41.542969 19.058594 41.21875 19.238281 40.792969 19.238281 C 40.472656 19.25 40.160156 19.113281 39.953125 18.859375 C 39.742188 18.609375 39.625 18.261719 39.625 17.835938 C 39.625 17.351562 39.75 16.972656 39.976562 16.683594 C 40.207031 16.398438 40.527344 16.246094 40.921875 16.246094 C 41.300781 16.246094 41.574219 16.386719 41.753906 16.695312 L 41.765625 16.695312 L 41.765625 16.324219 L 42.214844 16.324219 Z M 41.765625 17.886719 L 41.765625 17.464844 C 41.765625 17.019531 41.417969 16.652344 40.980469 16.640625 C 40.332031 16.640625 40.097656 17.242188 40.09375 17.808594 C 40.09375 18.351562 40.363281 18.835938 40.917969 18.835938 C 41.46875 18.835938 41.757812 18.390625 41.765625 17.886719 Z M 41.765625 17.886719 "/>
<path style=" stroke:none;fill-rule:nonzero;fill:url(#linear13);" d="M 43.144531 9.058594 C 42.816406 9.058594 42.476562 9.304688 42.476562 9.304688 L 42.476562 9.148438 C 42.476562 9.113281 42.460938 9.097656 42.429688 9.097656 L 42.011719 9.097656 C 41.996094 9.097656 41.980469 9.101562 41.972656 9.109375 C 41.960938 9.121094 41.957031 9.132812 41.957031 9.148438 L 41.957031 12.496094 C 41.957031 12.527344 41.96875 12.550781 42.003906 12.550781 L 42.429688 12.550781 C 42.441406 12.550781 42.457031 12.542969 42.464844 12.53125 C 42.472656 12.523438 42.476562 12.507812 42.476562 12.496094 L 42.476562 9.628906 C 42.609375 9.550781 42.761719 9.507812 42.914062 9.503906 C 43.144531 9.503906 43.324219 9.617188 43.324219 9.855469 L 43.324219 12.496094 C 43.320312 12.511719 43.328125 12.527344 43.335938 12.535156 C 43.347656 12.546875 43.363281 12.550781 43.375 12.550781 L 43.792969 12.550781 C 43.808594 12.550781 43.820312 12.542969 43.832031 12.535156 C 43.839844 12.523438 43.84375 12.511719 43.84375 12.496094 L 43.84375 9.703125 C 43.84375 9.28125 43.589844 9.058594 43.144531 9.058594 Z M 43.144531 9.058594 "/>
<path style=" stroke:none;fill-rule:nonzero;fill:url(#linear14);" d="M 46.402344 7.378906 L 45.984375 7.378906 C 45.972656 7.378906 45.960938 7.382812 45.949219 7.390625 C 45.9375 7.402344 45.933594 7.414062 45.933594 7.429688 L 45.933594 9.117188 C 45.796875 9.058594 45.652344 9.027344 45.507812 9.019531 C 44.828125 9.019531 44.359375 9.683594 44.359375 10.960938 C 44.359375 12.050781 44.8125 12.636719 45.40625 12.636719 C 45.652344 12.636719 45.863281 12.492188 46.015625 12.355469 L 46.105469 12.511719 C 46.113281 12.539062 46.140625 12.554688 46.167969 12.550781 L 46.40625 12.550781 C 46.421875 12.550781 46.433594 12.542969 46.445312 12.53125 C 46.453125 12.523438 46.457031 12.507812 46.457031 12.496094 L 46.457031 7.429688 C 46.457031 7.394531 46.441406 7.378906 46.410156 7.378906 Z M 44.910156 10.84375 C 44.910156 10.140625 45.113281 9.445312 45.527344 9.445312 C 45.675781 9.445312 45.816406 9.503906 45.929688 9.597656 L 45.929688 12.074219 C 45.816406 12.144531 45.691406 12.179688 45.558594 12.183594 C 45.109375 12.183594 44.910156 11.644531 44.910156 10.847656 Z M 44.910156 10.84375 "/>
<path style=" stroke:none;fill-rule:nonzero;fill:url(#linear15);" d="M 48.007812 9.027344 C 47.3125 9.027344 46.964844 9.957031 46.964844 10.972656 C 46.964844 12.03125 47.457031 12.625 48.089844 12.625 C 48.347656 12.613281 48.601562 12.542969 48.824219 12.410156 C 48.847656 12.398438 48.859375 12.371094 48.851562 12.347656 L 48.796875 12.125 C 48.796875 12.109375 48.789062 12.097656 48.777344 12.089844 C 48.769531 12.082031 48.757812 12.082031 48.742188 12.082031 C 48.589844 12.121094 48.433594 12.144531 48.277344 12.152344 C 47.761719 12.152344 47.523438 11.683594 47.523438 11.058594 L 47.523438 10.910156 C 47.660156 10.929688 47.796875 10.941406 47.933594 10.945312 L 48.910156 10.945312 L 48.910156 10.660156 C 48.910156 9.597656 48.546875 9.03125 48.007812 9.03125 Z M 47.976562 10.511719 C 47.820312 10.511719 47.542969 10.550781 47.542969 10.550781 C 47.542969 10.550781 47.546875 10.4375 47.558594 10.328125 C 47.621094 9.746094 47.757812 9.453125 47.992188 9.453125 C 48.195312 9.453125 48.335938 9.753906 48.371094 10.28125 C 48.375 10.390625 48.375 10.511719 48.375 10.511719 Z M 47.976562 10.511719 "/>
<path style=" stroke:none;fill-rule:nonzero;fill:url(#linear16);" d="M 41.160156 9.460938 C 41.003906 9.152344 40.726562 9.015625 40.414062 9.015625 C 40.160156 9.027344 39.914062 9.089844 39.679688 9.191406 C 39.640625 9.210938 39.613281 9.226562 39.613281 9.261719 C 39.617188 9.28125 39.625 9.304688 39.636719 9.324219 L 39.777344 9.636719 C 39.785156 9.660156 39.808594 9.675781 39.835938 9.679688 C 39.855469 9.675781 39.875 9.667969 39.890625 9.65625 C 40.097656 9.519531 40.25 9.445312 40.367188 9.445312 C 40.527344 9.445312 40.632812 9.554688 40.699219 9.714844 C 40.765625 9.90625 40.796875 10.109375 40.785156 10.3125 C 40.785156 10.34375 40.785156 10.382812 40.785156 10.382812 C 40.640625 10.304688 40.480469 10.261719 40.320312 10.257812 C 39.714844 10.257812 39.386719 10.84375 39.386719 11.46875 C 39.386719 12.144531 39.769531 12.640625 40.226562 12.640625 C 40.484375 12.640625 40.714844 12.488281 40.867188 12.296875 C 40.867188 12.296875 40.949219 12.496094 40.960938 12.519531 C 40.96875 12.542969 40.992188 12.554688 41.015625 12.550781 L 41.261719 12.550781 C 41.277344 12.550781 41.289062 12.546875 41.296875 12.535156 C 41.308594 12.523438 41.308594 12.511719 41.308594 12.496094 L 41.308594 10.550781 C 41.308594 10.074219 41.285156 9.710938 41.160156 9.460938 Z M 40.789062 12.007812 C 40.683594 12.113281 40.542969 12.179688 40.394531 12.1875 C 40.269531 12.1875 40.152344 12.121094 40.085938 12.011719 C 39.988281 11.875 39.945312 11.664062 39.945312 11.429688 C 39.945312 11.058594 40.078125 10.679688 40.363281 10.679688 C 40.519531 10.679688 40.667969 10.734375 40.789062 10.832031 Z M 40.789062 12.007812 "/>
<path style=" stroke:none;fill-rule:nonzero;fill:url(#linear17);" d="M 51.121094 9.097656 L 50.75 9.097656 C 50.71875 9.097656 50.6875 9.117188 50.675781 9.148438 C 50.652344 9.210938 50.496094 9.636719 50.429688 9.8125 C 50.382812 9.9375 50.257812 10.296875 50.257812 10.296875 L 50.246094 10.296875 C 50.246094 10.296875 50.152344 10.035156 50.101562 9.90625 C 50.066406 9.800781 49.855469 9.242188 49.828125 9.171875 C 49.816406 9.136719 49.800781 9.097656 49.746094 9.097656 L 49.335938 9.097656 C 49.316406 9.097656 49.300781 9.109375 49.289062 9.125 C 49.277344 9.140625 49.273438 9.160156 49.28125 9.179688 C 49.296875 9.210938 49.945312 10.722656 49.945312 10.722656 C 49.945312 10.722656 49.246094 12.417969 49.226562 12.457031 C 49.214844 12.476562 49.214844 12.5 49.226562 12.519531 C 49.238281 12.539062 49.257812 12.550781 49.28125 12.550781 L 49.640625 12.550781 C 49.703125 12.550781 49.726562 12.515625 49.742188 12.464844 C 49.792969 12.316406 49.871094 12.113281 49.980469 11.796875 C 50.050781 11.585938 50.164062 11.21875 50.164062 11.21875 L 50.179688 11.21875 C 50.179688 11.21875 50.300781 11.59375 50.347656 11.714844 C 50.464844 12.027344 50.617188 12.429688 50.628906 12.472656 C 50.644531 12.515625 50.671875 12.546875 50.710938 12.546875 L 51.117188 12.546875 C 51.15625 12.546875 51.179688 12.5 51.15625 12.460938 C 51.113281 12.363281 50.722656 11.40625 50.457031 10.777344 C 50.457031 10.777344 51.152344 9.214844 51.167969 9.175781 C 51.179688 9.136719 51.175781 9.097656 51.121094 9.097656 Z M 51.121094 9.097656 "/>
<path style=" stroke:none;fill-rule:nonzero;fill:url(#linear18);" d="M 39.8125 6.875 L 39.339844 6.875 C 39.304688 6.871094 39.273438 6.894531 39.265625 6.925781 C 39.261719 6.957031 38.558594 9.132812 38.507812 9.316406 C 38.472656 9.441406 38.355469 9.898438 38.328125 10.007812 L 38.082031 9.332031 C 38.023438 9.140625 37.457031 7.527344 37.441406 7.464844 C 37.433594 7.429688 37.414062 7.382812 37.355469 7.382812 L 36.894531 7.382812 C 36.878906 7.386719 36.859375 7.394531 36.847656 7.410156 C 36.835938 7.421875 36.832031 7.441406 36.835938 7.460938 C 36.847656 7.488281 37.679688 9.738281 38.011719 10.597656 L 38.011719 12.488281 C 38.011719 12.523438 38.027344 12.542969 38.058594 12.542969 L 38.492188 12.542969 C 38.503906 12.542969 38.519531 12.539062 38.527344 12.527344 C 38.535156 12.515625 38.542969 12.503906 38.539062 12.488281 L 38.539062 10.609375 C 38.820312 9.816406 39.835938 6.984375 39.851562 6.949219 C 39.867188 6.917969 39.863281 6.871094 39.804688 6.871094 Z M 39.8125 6.875 "/>
<path style=" stroke:none;fill-rule:nonzero;fill:rgb(0.392157%,0.784314%,0.784314%);fill-opacity:1;" d="M 43.203125 9.105469 C 42.898438 9.105469 42.578125 9.335938 42.578125 9.335938 L 42.578125 9.1875 C 42.578125 9.15625 42.566406 9.144531 42.535156 9.144531 L 42.144531 9.144531 C 42.132812 9.144531 42.121094 9.148438 42.109375 9.15625 C 42.101562 9.164062 42.097656 9.175781 42.097656 9.1875 L 42.097656 12.304688 C 42.097656 12.339844 42.109375 12.355469 42.140625 12.355469 L 42.535156 12.355469 C 42.546875 12.355469 42.5625 12.351562 42.570312 12.339844 C 42.578125 12.332031 42.582031 12.320312 42.578125 12.304688 L 42.578125 9.636719 C 42.703125 9.5625 42.84375 9.523438 42.988281 9.519531 C 43.199219 9.519531 43.367188 9.625 43.367188 9.847656 L 43.367188 12.304688 C 43.367188 12.316406 43.371094 12.332031 43.382812 12.339844 C 43.390625 12.351562 43.40625 12.355469 43.417969 12.355469 L 43.808594 12.355469 C 43.820312 12.355469 43.832031 12.347656 43.84375 12.339844 C 43.851562 12.328125 43.855469 12.316406 43.851562 12.304688 L 43.851562 9.707031 C 43.851562 9.316406 43.617188 9.105469 43.203125 9.105469 Z M 43.203125 9.105469 "/>
<path style=" stroke:none;fill-rule:nonzero;fill:rgb(0.392157%,0.784314%,0.784314%);fill-opacity:1;" d="M 46.238281 7.542969 L 45.847656 7.542969 C 45.835938 7.542969 45.824219 7.546875 45.8125 7.554688 C 45.804688 7.5625 45.796875 7.574219 45.796875 7.589844 L 45.796875 9.164062 C 45.671875 9.109375 45.539062 9.078125 45.402344 9.074219 C 44.769531 9.074219 44.332031 9.691406 44.332031 10.878906 C 44.332031 11.894531 44.757812 12.441406 45.308594 12.441406 C 45.539062 12.441406 45.734375 12.304688 45.875 12.179688 L 45.960938 12.324219 C 45.96875 12.347656 45.992188 12.363281 46.015625 12.359375 L 46.238281 12.359375 C 46.25 12.359375 46.261719 12.351562 46.273438 12.34375 C 46.28125 12.332031 46.285156 12.320312 46.28125 12.308594 L 46.28125 7.585938 C 46.28125 7.554688 46.269531 7.542969 46.238281 7.542969 Z M 44.847656 10.769531 C 44.847656 10.117188 45.035156 9.46875 45.421875 9.46875 C 45.558594 9.472656 45.691406 9.519531 45.796875 9.613281 L 45.796875 11.917969 C 45.691406 11.980469 45.574219 12.015625 45.449219 12.019531 C 45.035156 12.019531 44.847656 11.515625 44.847656 10.769531 Z M 44.847656 10.769531 "/>
<path style=" stroke:none;fill-rule:nonzero;fill:rgb(0.392157%,0.784314%,0.784314%);fill-opacity:1;" d="M 47.730469 9.078125 C 47.082031 9.078125 46.761719 9.945312 46.761719 10.886719 C 46.761719 11.875 47.21875 12.425781 47.808594 12.425781 C 48.046875 12.417969 48.28125 12.351562 48.492188 12.226562 C 48.515625 12.21875 48.523438 12.191406 48.515625 12.164062 L 48.464844 11.957031 C 48.464844 11.945312 48.457031 11.933594 48.449219 11.925781 C 48.4375 11.917969 48.425781 11.917969 48.417969 11.917969 C 48.273438 11.957031 48.128906 11.976562 47.984375 11.980469 C 47.503906 11.980469 47.28125 11.546875 47.28125 10.964844 L 47.28125 10.824219 C 47.410156 10.84375 47.535156 10.855469 47.664062 10.859375 L 48.570312 10.859375 L 48.570312 10.589844 C 48.570312 9.605469 48.234375 9.074219 47.730469 9.074219 Z M 47.699219 10.460938 C 47.558594 10.460938 47.296875 10.496094 47.296875 10.496094 C 47.296875 10.496094 47.300781 10.390625 47.3125 10.289062 C 47.367188 9.746094 47.496094 9.472656 47.714844 9.472656 C 47.902344 9.472656 48.035156 9.753906 48.066406 10.242188 C 48.070312 10.347656 48.070312 10.460938 48.070312 10.460938 Z M 47.699219 10.460938 "/>
<path style=" stroke:none;fill-rule:nonzero;fill:rgb(0.392157%,0.784314%,0.784314%);fill-opacity:1;" d="M 41.355469 9.484375 C 41.210938 9.195312 40.957031 9.066406 40.660156 9.066406 C 40.425781 9.078125 40.195312 9.136719 39.980469 9.230469 C 39.941406 9.25 39.917969 9.265625 39.917969 9.292969 C 39.921875 9.316406 39.925781 9.335938 39.9375 9.351562 L 40.070312 9.640625 C 40.078125 9.664062 40.101562 9.683594 40.125 9.683594 C 40.144531 9.679688 40.164062 9.671875 40.175781 9.660156 C 40.371094 9.535156 40.511719 9.46875 40.621094 9.46875 C 40.769531 9.46875 40.871094 9.566406 40.933594 9.71875 C 40.992188 9.898438 41.019531 10.085938 41.011719 10.273438 C 41.011719 10.304688 41.011719 10.339844 41.011719 10.339844 C 40.878906 10.265625 40.730469 10.222656 40.578125 10.21875 C 40.015625 10.21875 39.714844 10.765625 39.714844 11.347656 C 39.714844 11.976562 40.070312 12.4375 40.496094 12.4375 C 40.734375 12.4375 40.949219 12.296875 41.09375 12.117188 C 41.09375 12.117188 41.167969 12.304688 41.179688 12.324219 C 41.183594 12.347656 41.207031 12.359375 41.226562 12.355469 L 41.457031 12.355469 C 41.46875 12.355469 41.480469 12.351562 41.488281 12.339844 C 41.496094 12.332031 41.5 12.316406 41.5 12.304688 L 41.5 10.496094 C 41.5 10.054688 41.476562 9.714844 41.363281 9.484375 Z M 41.007812 11.851562 C 40.914062 11.953125 40.78125 12.011719 40.644531 12.019531 C 40.527344 12.019531 40.417969 11.957031 40.355469 11.859375 C 40.261719 11.730469 40.222656 11.535156 40.222656 11.316406 C 40.222656 10.972656 40.34375 10.617188 40.609375 10.617188 C 40.757812 10.617188 40.894531 10.667969 41.007812 10.757812 Z M 41.007812 11.851562 "/>
<path style=" stroke:none;fill-rule:nonzero;fill:rgb(0.392157%,0.784314%,0.784314%);fill-opacity:1;" d="M 50.628906 9.144531 L 50.28125 9.144531 C 50.253906 9.140625 50.222656 9.160156 50.214844 9.191406 C 50.191406 9.25 50.046875 9.644531 49.984375 9.808594 C 49.941406 9.925781 49.828125 10.257812 49.828125 10.257812 L 49.8125 10.257812 C 49.8125 10.257812 49.726562 10.015625 49.679688 9.894531 C 49.644531 9.796875 49.453125 9.273438 49.425781 9.210938 C 49.414062 9.175781 49.398438 9.144531 49.347656 9.144531 L 48.96875 9.144531 C 48.949219 9.144531 48.933594 9.152344 48.925781 9.167969 C 48.914062 9.183594 48.910156 9.199219 48.917969 9.21875 C 48.929688 9.246094 49.535156 10.65625 49.535156 10.65625 C 49.535156 10.65625 48.882812 12.230469 48.863281 12.265625 C 48.855469 12.285156 48.859375 12.308594 48.867188 12.324219 C 48.878906 12.34375 48.894531 12.355469 48.914062 12.355469 L 49.25 12.355469 C 49.308594 12.355469 49.328125 12.324219 49.347656 12.277344 C 49.394531 12.140625 49.464844 11.949219 49.566406 11.65625 C 49.632812 11.460938 49.742188 11.117188 49.742188 11.117188 L 49.75 11.117188 C 49.75 11.117188 49.867188 11.464844 49.910156 11.578125 C 50.019531 11.867188 50.15625 12.246094 50.175781 12.285156 C 50.1875 12.324219 50.210938 12.355469 50.25 12.355469 L 50.628906 12.355469 C 50.664062 12.355469 50.683594 12.3125 50.664062 12.273438 C 50.625 12.183594 50.265625 11.292969 50.015625 10.707031 C 50.015625 10.707031 50.660156 9.253906 50.675781 9.214844 C 50.6875 9.179688 50.683594 9.140625 50.628906 9.140625 Z M 50.628906 9.144531 "/>
<path style=" stroke:none;fill-rule:nonzero;fill:rgb(89.803922%,14.901961%,12.54902%);fill-opacity:1;" d="M 40.101562 7.074219 L 39.660156 7.074219 C 39.628906 7.070312 39.601562 7.089844 39.59375 7.121094 C 39.585938 7.152344 38.933594 9.179688 38.886719 9.347656 C 38.855469 9.464844 38.746094 9.886719 38.71875 9.988281 L 38.492188 9.359375 C 38.4375 9.1875 37.910156 7.683594 37.894531 7.621094 C 37.886719 7.589844 37.871094 7.546875 37.8125 7.546875 L 37.386719 7.546875 C 37.367188 7.546875 37.351562 7.558594 37.339844 7.570312 C 37.332031 7.585938 37.328125 7.605469 37.335938 7.621094 C 37.34375 7.648438 38.117188 9.742188 38.429688 10.546875 L 38.429688 12.308594 C 38.429688 12.339844 38.441406 12.359375 38.472656 12.359375 L 38.878906 12.359375 C 38.890625 12.359375 38.902344 12.355469 38.910156 12.34375 C 38.917969 12.335938 38.921875 12.320312 38.921875 12.308594 L 38.921875 10.558594 C 39.183594 9.816406 40.132812 7.179688 40.144531 7.148438 C 40.152344 7.117188 40.152344 7.074219 40.097656 7.074219 Z M 40.101562 7.074219 "/>
</g>
</svg>
